<svg width="285" height="214" viewBox="0 0 285 214" fill="none" xmlns="http://www.w3.org/2000/svg">
<mask id="mask0_115_5634" style="mask-type:alpha" maskUnits="userSpaceOnUse" x="-60" y="-76" width="401" height="401">
<circle cx="140.5" cy="124.5" r="200" fill="url(#paint0_radial_115_5634)" stroke="#B3B3B3"/>
</mask>
<g mask="url(#mask0_115_5634)">
<path d="M286.076 -36.4302H-15.1163V264.762H286.076V-36.4302Z" fill="url(#paint1_radial_115_5634)" stroke="#C7C7C7"/>
<path d="M269.957 -20.3118H1.00351V248.642H269.957V-20.3118Z" fill="url(#paint2_radial_115_5634)" stroke="#C7C7C7"/>
<path d="M255.032 -5.38672H15.9287V233.717H255.032V-5.38672Z" fill="url(#paint3_radial_115_5634)" stroke="#C7C7C7"/>
<path d="M241.301 8.34448H29.6595V219.986H241.301V8.34448Z" fill="url(#paint4_radial_115_5634)" stroke="#C7C7C7"/>
<path d="M228.764 20.8813H42.1966V207.448H228.764V20.8813Z" fill="url(#paint5_radial_115_5634)" stroke="#C7C7C7"/>
<path d="M217.421 32.2246H53.54V196.105H217.421V32.2246Z" fill="url(#paint6_radial_115_5634)" stroke="#C7C7C7"/>
<path d="M207.272 42.3738H63.6893V185.956H207.272V42.3738Z" fill="url(#paint7_radial_115_5634)" stroke="#C7C7C7"/>
<path d="M198.316 51.3286H72.6439V177.001H198.316V51.3286Z" fill="url(#paint8_radial_115_5634)" stroke="#C7C7C7"/>
<path d="M190.555 59.0901H80.4049V169.24H190.555V59.0901Z" fill="url(#paint9_radial_115_5634)" stroke="#C7C7C7"/>
<path d="M183.989 65.657H86.9724V162.673H183.989V65.657Z" fill="url(#paint10_radial_115_5634)" stroke="#C7C7C7"/>
<path d="M178.615 71.0298H92.3448V157.3H178.615V71.0298Z" fill="url(#paint11_radial_115_5634)" stroke="#C7C7C7"/>
<path d="M174.436 75.2092H96.5237V153.121H174.436V75.2092Z" fill="url(#paint12_radial_115_5634)" stroke="#C7C7C7"/>
<path d="M171.451 78.1941H99.509V150.136H171.451V78.1941Z" fill="url(#paint13_radial_115_5634)" stroke="#C7C7C7"/>
<path d="M169.66 79.9849H101.3V148.345H169.66V79.9849Z" fill="url(#paint14_radial_115_5634)" stroke="#C7C7C7"/>
<path d="M169.063 80.5823H101.897V147.748H169.063V80.5823Z" fill="url(#paint15_radial_115_5634)" stroke="#C7C7C7"/>
<path d="M101.897 147.748L-15.1165 264.761" stroke="#C7C7C7"/>
<path d="M106.694 147.748L13.3791 264.761" stroke="#C7C7C7"/>
<path d="M111.492 147.748L37.9676 264.761" stroke="#C7C7C7"/>
<path d="M116.29 147.748L59.9392 264.761" stroke="#C7C7C7"/>
<path d="M121.087 147.748L80.1424 264.761" stroke="#C7C7C7"/>
<path d="M125.885 147.748L99.178 264.761" stroke="#C7C7C7"/>
<path d="M130.682 147.748L117.498 264.761" stroke="#C7C7C7"/>
<path d="M135.48 147.748V264.761" stroke="#C7C7C7"/>
<path d="M140.278 147.748L153.462 264.761" stroke="#C7C7C7"/>
<path d="M145.075 147.748L171.783 264.761" stroke="#C7C7C7"/>
<path d="M149.873 147.748L190.817 264.761" stroke="#C7C7C7"/>
<path d="M154.67 147.748L211.021 264.761" stroke="#C7C7C7"/>
<path d="M159.467 147.748L232.992 264.761" stroke="#C7C7C7"/>
<path d="M164.265 147.748L257.58 264.761" stroke="#C7C7C7"/>
<path d="M169.063 147.748L286.076 264.761" stroke="#C7C7C7"/>
<path d="M101.897 80.5823L-15.1158 -36.4309" stroke="#C7C7C7"/>
<path d="M101.897 85.3796L-15.1158 -7.93522" stroke="#C7C7C7"/>
<path d="M101.897 90.1772L-15.1158 16.653" stroke="#C7C7C7"/>
<path d="M101.897 94.9746L-15.1158 38.6241" stroke="#C7C7C7"/>
<path d="M101.897 99.7725L-15.1158 58.8278" stroke="#C7C7C7"/>
<path d="M101.897 104.57L-15.1158 77.8626" stroke="#C7C7C7"/>
<path d="M101.897 109.367L-15.1158 96.1832" stroke="#C7C7C7"/>
<path d="M101.897 114.165L-15.1158 114.165" stroke="#C7C7C7"/>
<path d="M101.897 118.962L-15.1158 132.147" stroke="#C7C7C7"/>
<path d="M101.897 123.76L-15.1158 150.468" stroke="#C7C7C7"/>
<path d="M101.897 128.558L-15.1158 169.502" stroke="#C7C7C7"/>
<path d="M101.897 133.355L-15.1158 189.706" stroke="#C7C7C7"/>
<path d="M101.897 138.153L-15.1158 211.677" stroke="#C7C7C7"/>
<path d="M101.897 142.95L-15.1158 236.265" stroke="#C7C7C7"/>
<path d="M101.897 147.748L-15.1158 264.761" stroke="#C7C7C7"/>
<path d="M169.063 80.582L286.076 -36.4311" stroke="#C7C7C7"/>
<path d="M164.266 80.582L257.581 -36.4311" stroke="#C7C7C7"/>
<path d="M159.468 80.582L232.993 -36.4311" stroke="#C7C7C7"/>
<path d="M154.67 80.582L211.021 -36.4311" stroke="#C7C7C7"/>
<path d="M149.873 80.582L190.817 -36.4311" stroke="#C7C7C7"/>
<path d="M145.075 80.582L171.782 -36.4311" stroke="#C7C7C7"/>
<path d="M140.277 80.582L153.462 -36.4311" stroke="#C7C7C7"/>
<path d="M135.48 80.582L135.48 -36.4311" stroke="#C7C7C7"/>
<path d="M130.682 80.582L117.498 -36.4311" stroke="#C7C7C7"/>
<path d="M125.884 80.582L99.1769 -36.4311" stroke="#C7C7C7"/>
<path d="M121.087 80.582L80.1424 -36.4311" stroke="#C7C7C7"/>
<path d="M116.29 80.582L59.9391 -36.4311" stroke="#C7C7C7"/>
<path d="M111.492 80.582L37.9676 -36.4311" stroke="#C7C7C7"/>
<path d="M106.694 80.582L13.3796 -36.4311" stroke="#C7C7C7"/>
<path d="M101.897 80.582L-15.1161 -36.4311" stroke="#C7C7C7"/>
<path d="M169.063 147.748L286.076 264.761" stroke="#C7C7C7"/>
<path d="M169.063 142.95L286.076 236.265" stroke="#C7C7C7"/>
<path d="M169.063 138.153L286.076 211.677" stroke="#C7C7C7"/>
<path d="M169.063 133.355L286.076 189.706" stroke="#C7C7C7"/>
<path d="M169.063 128.558L286.076 169.502" stroke="#C7C7C7"/>
<path d="M169.063 123.76L286.076 150.468" stroke="#C7C7C7"/>
<path d="M169.063 118.963L286.076 132.147" stroke="#C7C7C7"/>
<path d="M169.063 114.165L286.076 114.165" stroke="#C7C7C7"/>
<path d="M169.063 109.368L286.076 96.1835" stroke="#C7C7C7"/>
<path d="M169.063 104.57L286.076 77.8626" stroke="#C7C7C7"/>
<path d="M169.063 99.7727L286.076 58.828" stroke="#C7C7C7"/>
<path d="M169.063 94.9749L286.076 38.6243" stroke="#C7C7C7"/>
<path d="M169.063 90.1772L286.076 16.653" stroke="#C7C7C7"/>
<path d="M169.063 85.3799L286.076 -7.93498" stroke="#C7C7C7"/>
<path d="M169.063 80.5823L286.076 -36.4309" stroke="#C7C7C7"/>
</g>
<defs>
<radialGradient id="paint0_radial_115_5634" cx="0" cy="0" r="1" gradientUnits="userSpaceOnUse" gradientTransform="translate(140.5 124.5) rotate(90) scale(126.678)">
<stop stop-color="white" stop-opacity="0"/>
<stop offset="1" stop-color="white" stop-opacity="0.19"/>
</radialGradient>
<radialGradient id="paint1_radial_115_5634" cx="0" cy="0" r="1" gradientUnits="userSpaceOnUse" gradientTransform="translate(135.48 114.166) rotate(90) scale(95.1483)">
<stop stop-color="white" stop-opacity="0"/>
<stop offset="1" stop-color="white" stop-opacity="0.19"/>
</radialGradient>
<radialGradient id="paint2_radial_115_5634" cx="0" cy="0" r="1" gradientUnits="userSpaceOnUse" gradientTransform="translate(135.48 114.165) rotate(90) scale(84.964)">
<stop stop-color="white" stop-opacity="0"/>
<stop offset="1" stop-color="white" stop-opacity="0.19"/>
</radialGradient>
<radialGradient id="paint3_radial_115_5634" cx="0" cy="0" r="1" gradientUnits="userSpaceOnUse" gradientTransform="translate(135.481 114.165) rotate(90) scale(75.5342)">
<stop stop-color="white" stop-opacity="0"/>
<stop offset="1" stop-color="white" stop-opacity="0.19"/>
</radialGradient>
<radialGradient id="paint4_radial_115_5634" cx="0" cy="0" r="1" gradientUnits="userSpaceOnUse" gradientTransform="translate(135.48 114.165) rotate(90) scale(66.8587)">
<stop stop-color="white" stop-opacity="0"/>
<stop offset="1" stop-color="white" stop-opacity="0.19"/>
</radialGradient>
<radialGradient id="paint5_radial_115_5634" cx="0" cy="0" r="1" gradientUnits="userSpaceOnUse" gradientTransform="translate(135.48 114.165) rotate(90) scale(58.9376)">
<stop stop-color="white" stop-opacity="0"/>
<stop offset="1" stop-color="white" stop-opacity="0.19"/>
</radialGradient>
<radialGradient id="paint6_radial_115_5634" cx="0" cy="0" r="1" gradientUnits="userSpaceOnUse" gradientTransform="translate(135.48 114.165) rotate(90) scale(51.7709)">
<stop stop-color="white" stop-opacity="0"/>
<stop offset="1" stop-color="white" stop-opacity="0.19"/>
</radialGradient>
<radialGradient id="paint7_radial_115_5634" cx="0" cy="0" r="1" gradientUnits="userSpaceOnUse" gradientTransform="translate(135.481 114.165) rotate(90) scale(45.3586)">
<stop stop-color="white" stop-opacity="0"/>
<stop offset="1" stop-color="white" stop-opacity="0.19"/>
</radialGradient>
<radialGradient id="paint8_radial_115_5634" cx="0" cy="0" r="1" gradientUnits="userSpaceOnUse" gradientTransform="translate(135.48 114.165) rotate(90) scale(39.7006)">
<stop stop-color="white" stop-opacity="0"/>
<stop offset="1" stop-color="white" stop-opacity="0.19"/>
</radialGradient>
<radialGradient id="paint9_radial_115_5634" cx="0" cy="0" r="1" gradientUnits="userSpaceOnUse" gradientTransform="translate(135.48 114.165) rotate(90) scale(34.7971)">
<stop stop-color="white" stop-opacity="0"/>
<stop offset="1" stop-color="white" stop-opacity="0.19"/>
</radialGradient>
<radialGradient id="paint10_radial_115_5634" cx="0" cy="0" r="1" gradientUnits="userSpaceOnUse" gradientTransform="translate(135.48 114.165) rotate(90) scale(30.648)">
<stop stop-color="white" stop-opacity="0"/>
<stop offset="1" stop-color="white" stop-opacity="0.19"/>
</radialGradient>
<radialGradient id="paint11_radial_115_5634" cx="0" cy="0" r="1" gradientUnits="userSpaceOnUse" gradientTransform="translate(135.48 114.165) rotate(90) scale(27.2532)">
<stop stop-color="white" stop-opacity="0"/>
<stop offset="1" stop-color="white" stop-opacity="0.19"/>
</radialGradient>
<radialGradient id="paint12_radial_115_5634" cx="0" cy="0" r="1" gradientUnits="userSpaceOnUse" gradientTransform="translate(135.48 114.165) rotate(90) scale(24.6128)">
<stop stop-color="white" stop-opacity="0"/>
<stop offset="1" stop-color="white" stop-opacity="0.19"/>
</radialGradient>
<radialGradient id="paint13_radial_115_5634" cx="0" cy="0" r="1" gradientUnits="userSpaceOnUse" gradientTransform="translate(135.48 114.165) rotate(90) scale(22.7269)">
<stop stop-color="white" stop-opacity="0"/>
<stop offset="1" stop-color="white" stop-opacity="0.19"/>
</radialGradient>
<radialGradient id="paint14_radial_115_5634" cx="0" cy="0" r="1" gradientUnits="userSpaceOnUse" gradientTransform="translate(135.48 114.165) rotate(90) scale(21.5953)">
<stop stop-color="white" stop-opacity="0"/>
<stop offset="1" stop-color="white" stop-opacity="0.19"/>
</radialGradient>
<radialGradient id="paint15_radial_115_5634" cx="0" cy="0" r="1" gradientUnits="userSpaceOnUse" gradientTransform="translate(135.48 114.165) rotate(90) scale(21.2181)">
<stop stop-color="white" stop-opacity="0"/>
<stop offset="1" stop-color="white" stop-opacity="0.19"/>
</radialGradient>
</defs>
</svg>
