<svg width="51" height="50" viewBox="0 0 51 50" fill="none" xmlns="http://www.w3.org/2000/svg">
<g clip-path="url(#clip0_115_5510)">
<path d="M39.2292 19.3958C38.8506 19.1914 38.43 19.0773 38 19.0624C36.9792 19.0624 35.4167 19.3541 34.8125 19.3958C34.4519 19.3707 34.0899 19.3707 33.7292 19.3958C33.4471 19.4635 33.1925 19.6162 33 19.8333C32.5 20.4583 32.2917 21.3958 31.8542 22.0833C31.7859 22.2022 31.6894 22.3025 31.5731 22.3751C31.4568 22.4478 31.3244 22.4907 31.1875 22.4999C30.6875 22.4999 30.3959 22.4999 30.2292 22.1874C29.6042 21.3541 29.4375 20.1041 28.3542 19.6458C27.7651 19.4451 27.1412 19.3671 26.5209 19.4166C25.6042 19.4166 24.5417 19.6041 23.7292 19.6874C23.8314 19.4298 23.9149 19.1653 23.9792 18.8958C24.2292 17.6458 23.9792 16.2916 24.25 15.0208L24.625 15.1458C25.0223 15.2397 25.4361 15.2397 25.8334 15.1458C27.301 14.6627 28.5204 13.6229 29.2292 12.2499C29.4955 11.7497 29.6347 11.1916 29.6347 10.6249C29.6347 10.0582 29.4955 9.50018 29.2292 8.99992C29.0605 8.70534 28.8224 8.45645 28.5355 8.2749C28.2487 8.09336 27.9218 7.98465 27.5834 7.95825C26.9465 7.88563 26.3035 7.88563 25.6667 7.95825H25.125C24.5606 7.04849 24.1588 6.04745 23.9375 4.99992C23.7629 4.37361 23.4576 3.79139 23.0417 3.29159C22.4979 2.84974 21.8615 2.53603 21.1799 2.37373C20.4982 2.21143 19.7888 2.20472 19.1042 2.35409C18.9292 2.36995 18.767 2.45219 18.6508 2.58391C18.5345 2.71564 18.4732 2.88685 18.4792 3.06242C18.4845 3.15003 18.507 3.23572 18.5455 3.31459C18.5841 3.39347 18.6377 3.46396 18.7036 3.52203C18.7694 3.58009 18.846 3.6246 18.9291 3.65298C19.0121 3.68136 19.0999 3.69307 19.1875 3.68742C20.75 3.68742 21.5625 3.68742 22 4.27075C22.342 4.76081 22.5633 5.32475 22.6459 5.91659C22.8915 7.05874 23.3586 8.14166 24.0209 9.10409C24.1295 9.2476 24.2674 9.36638 24.4255 9.45258C24.5835 9.53878 24.758 9.59042 24.9375 9.60409H26.8959C27.2292 9.60409 27.5834 9.60409 27.7292 9.83325C27.8863 10.1745 27.9385 10.5547 27.8791 10.9256C27.8198 11.2965 27.6516 11.6414 27.3959 11.9166C26.8796 12.6175 26.1478 13.1298 25.3125 13.3749C25.1459 13.3749 24.9167 13.3749 24.6875 13.2291C24.2715 13.1306 23.842 13.1025 23.4167 13.1458C23.1369 13.1634 22.8707 13.273 22.6597 13.4577C22.4487 13.6423 22.3046 13.8916 22.25 14.1666C21.8959 15.5833 22.0834 17.1249 21.7709 18.5624C21.6757 18.9453 21.521 19.3108 21.3125 19.6458C20.7709 19.6458 19.8959 19.2708 19.7917 19.2708C19.1889 19.0963 18.565 19.0051 17.9375 18.9999C17.6351 18.0218 17.2005 17.0896 16.6459 16.2291C16.3063 15.7763 15.8659 15.4088 15.3597 15.1557C14.8534 14.9025 14.2952 14.7708 13.7292 14.7708C13.2298 14.7405 12.7309 14.8373 12.2791 15.0523C11.8273 15.2673 11.4374 15.5933 11.1459 15.9999C10.4867 17.1673 10.0753 18.4581 9.93753 19.7916L9.10419 19.9374H5.72919C5.0261 19.9354 4.3261 19.8444 3.64586 19.6666C3.12503 19.5416 3.02086 19.0833 3.02086 18.5833C3.14636 17.3677 3.46274 16.1795 3.95836 15.0624C4.93165 12.7438 6.42078 10.6775 8.31253 9.02075C10.2065 7.31083 12.444 6.02521 14.875 5.24992C14.9873 5.183 15.0738 5.08033 15.1207 4.95837C15.1676 4.83642 15.1722 4.70224 15.1338 4.57734C15.0954 4.45245 15.0161 4.34408 14.9088 4.2696C14.8014 4.19511 14.6721 4.15884 14.5417 4.16659C11.9143 4.90585 9.47233 6.19074 7.37503 7.93742C5.236 9.69928 3.53213 11.9307 2.39586 14.4583C1.61271 16.0076 1.21262 17.7223 1.22919 19.4583C1.2896 19.9796 1.50735 20.4701 1.85347 20.8646C2.19959 21.2591 2.65766 21.5389 3.16669 21.6666C3.96964 21.8896 4.79344 22.0292 5.62503 22.0833H9.12503C9.67312 22.1169 10.2228 22.1169 10.7709 22.0833C11.019 22.0669 11.2566 21.9768 11.4533 21.8247C11.65 21.6725 11.7968 21.4651 11.875 21.2291C12.0503 20.0207 12.3505 18.8338 12.7709 17.6874C12.8366 17.4783 12.9666 17.2953 13.1424 17.1644C13.3182 17.0334 13.5309 16.9613 13.75 16.9583C13.9847 16.9574 14.2162 17.0117 14.4261 17.1166C14.6359 17.2215 14.8182 17.3742 14.9584 17.5624C15.506 18.5105 15.9462 19.5167 16.2709 20.5624C16.3636 20.7596 16.5032 20.9311 16.6775 21.0619C16.8519 21.1926 17.0556 21.2786 17.2709 21.3124C18.1032 21.3698 18.9385 21.3698 19.7709 21.3124C19.9792 21.3124 21.3542 21.4999 21.8542 21.4791C22.0558 21.4834 22.2558 21.4426 22.4396 21.3597C22.6235 21.2768 22.7864 21.1539 22.9167 20.9999V20.8749C23.7292 20.8749 25.1459 20.7291 26.3334 20.7499C26.7446 20.7322 27.1552 20.796 27.5417 20.9374C28.0209 21.1666 28.0834 21.6874 28.25 22.1458C28.4105 22.7102 28.72 23.2212 29.1459 23.6249C29.6867 24.0572 30.3726 24.2659 31.0625 24.2083C31.6871 24.1974 32.2866 23.9605 32.75 23.5416C33.2683 22.9015 33.7089 22.2021 34.0625 21.4583C34.8959 21.4583 37.5834 21.1874 37.5834 21.1874C37.5834 21.5416 37.125 24.1041 36.8959 25.1249C36.6695 26.1522 36.3913 27.1674 36.0625 28.1666L33.8334 34.7916C33.6794 35.3673 33.4844 35.9312 33.25 36.4791C33.1455 36.7245 32.9807 36.9394 32.7709 37.1041C32.1 37.5194 31.3461 37.7825 30.5625 37.8749C29.2391 37.9999 27.9068 37.9999 26.5834 37.8749H23.7084C23.3962 37.8963 23.083 37.8963 22.7709 37.8749C23.1106 37.0933 23.3284 36.2642 23.4167 35.4166C23.6937 33.8734 23.6937 32.2931 23.4167 30.7499C23.3328 30.5388 23.1939 30.3539 23.0144 30.2147C22.8348 30.0755 22.6212 29.9869 22.3959 29.9583L20.8125 29.7499C20.2352 29.653 19.6951 29.4009 19.25 29.0208C19.0671 28.8697 18.9172 28.6826 18.8097 28.4712C18.7022 28.2597 18.6393 28.0284 18.625 27.7916C18.625 27.2083 18.625 26.8958 19 26.8333C19.6999 26.7959 20.4014 26.859 21.0834 27.0208C21.542 27.1321 22.0206 27.1321 22.4792 27.0208C22.7053 26.8785 22.8924 26.6821 23.0234 26.4492C23.1543 26.2164 23.2251 25.9545 23.2292 25.6874C23.3051 24.5428 23.3051 23.3945 23.2292 22.2499C23.2239 22.1623 23.2013 22.0766 23.1628 21.9977C23.1243 21.9189 23.0706 21.8484 23.0048 21.7903C22.939 21.7322 22.8624 21.6877 22.7793 21.6594C22.6963 21.631 22.6084 21.6193 22.5209 21.6249C22.3477 21.6357 22.1856 21.7135 22.0689 21.8419C21.9522 21.9702 21.8901 22.139 21.8959 22.3124C21.9623 23.4319 21.9204 24.5552 21.7709 25.6666C21.166 25.5913 20.5672 25.4729 19.9792 25.3124C19.2672 25.1714 18.5283 25.2896 17.8959 25.6458C17.5623 25.9064 17.301 26.2481 17.1369 26.6383C16.9728 27.0285 16.9113 27.4542 16.9584 27.8749C16.9614 28.628 17.2101 29.3594 17.6667 29.9583C18.3384 30.782 19.2477 31.3786 20.2709 31.6666L21.5209 31.8958C21.6126 32.7405 21.6126 33.5927 21.5209 34.4374C21.4607 35.4384 21.1606 36.4102 20.6459 37.2708C20.6459 37.3749 20.4375 37.3749 20.3125 37.4166C19.8777 37.541 19.4306 37.6178 18.9792 37.6458H16.375C15.352 37.6724 14.3284 37.6237 13.3125 37.4999C12.7408 37.4474 12.1833 37.2922 11.6667 37.0416C11.3637 36.8779 11.106 36.6417 10.9167 36.3541C10.4584 35.6458 10.1042 34.8333 9.70836 34.2708C8.08439 32.1034 6.62211 29.8194 5.33336 27.4374C4.50435 25.8525 3.84781 24.1832 3.37503 22.4583C3.36606 22.3759 3.33964 22.2963 3.29752 22.2249C3.2554 22.1535 3.19855 22.0919 3.13076 22.0443C3.06297 21.9966 2.9858 21.9639 2.90438 21.9483C2.82296 21.9328 2.73917 21.9348 2.65858 21.9542C2.578 21.9736 2.50248 22.01 2.43704 22.0608C2.37161 22.1117 2.31777 22.176 2.27911 22.2493C2.24046 22.3226 2.21787 22.4033 2.21285 22.486C2.20784 22.5688 2.22051 22.6516 2.25003 22.7291C2.6359 24.571 3.23726 26.3611 4.04169 28.0624C5.2563 30.5885 6.64869 33.0252 8.20836 35.3541C8.64586 36.0208 9.00003 37.0416 9.52086 37.8333C9.81682 38.2995 10.216 38.6916 10.6875 38.9791C11.4097 39.3597 12.1919 39.6134 13 39.7291L13.9792 39.8541V41.3749C13.9913 41.8115 14.0831 42.2422 14.25 42.6458C14.4292 43.0788 14.716 43.4589 15.0834 43.7499L15.4584 43.9583C15.4482 44.0203 15.4482 44.0837 15.4584 44.1458C15.5357 45.3576 15.877 46.5379 16.4584 47.6041C16.9298 48.3914 17.6165 49.0275 18.4375 49.4374C19.4309 49.8753 20.5124 50.0769 21.5968 50.0263C22.6813 49.9757 23.7392 49.6743 24.6875 49.1458C25.6869 48.6557 26.4894 47.8397 26.9628 46.8323C27.4362 45.8249 27.5522 44.6862 27.2917 43.6041C27.6193 43.4467 27.927 43.2509 28.2084 43.0208C28.675 42.579 29.0454 42.0457 29.2963 41.4542C29.5473 40.8627 29.6734 40.2258 29.6667 39.5833H30.7917C31.8392 39.496 32.8555 39.1833 33.7709 38.6666C34.2728 38.3563 34.6828 37.9176 34.9584 37.3958C35.2544 36.7875 35.5118 36.1613 35.7292 35.5208C36.3334 33.9999 37.0209 32.4999 37.625 30.9791C37.8959 30.2916 38.1459 29.6249 38.375 28.8958C38.7292 27.8333 39.0417 26.8124 39.2917 25.6458C39.5397 24.5343 39.7068 23.4064 39.7917 22.2708C39.8587 21.6127 39.8587 20.9496 39.7917 20.2916C39.7628 20.1122 39.6982 19.9404 39.6015 19.7865C39.5049 19.6326 39.3783 19.4997 39.2292 19.3958ZM24.5 46.8541C23.7302 47.3508 22.8504 47.6513 21.9375 47.7291C21.0344 47.8539 20.1146 47.7684 19.25 47.4791C18.5747 47.2626 17.9939 46.8215 17.6042 46.2291C17.2567 45.6799 16.9901 45.0835 16.8125 44.4583H16.9375C17.7713 44.5915 18.614 44.6611 19.4584 44.6666C20.6875 44.6666 21.9167 44.5208 23.0834 44.4374C24.0563 44.3584 25.0234 44.2193 25.9792 44.0208C25.9997 44.5808 25.8741 45.1365 25.6147 45.6333C25.3554 46.13 24.9712 46.5508 24.5 46.8541ZM27.1042 41.6666C25.8015 42.2617 24.3556 42.4713 22.9375 42.2708C21.6042 42.3749 20.2084 42.4791 18.7709 42.4999C18.2088 42.5312 17.6454 42.5312 17.0834 42.4999C16.7681 42.484 16.4579 42.4135 16.1667 42.2916C15.9115 42.2158 15.6859 42.063 15.5209 41.8541C15.371 41.5632 15.2857 41.2434 15.2709 40.9166C15.2508 40.5766 15.2508 40.2357 15.2709 39.8958H16.3334C17.6499 39.9271 18.9668 39.8504 20.2709 39.6666C20.8806 39.5522 21.4572 39.3031 21.9584 38.9374C22.0504 39.048 22.1739 39.1279 22.3125 39.1666C22.7527 39.2483 23.1984 39.297 23.6459 39.3124H26.4792L28.25 39.4791C28.2201 39.903 28.1028 40.3161 27.9057 40.6926C27.7085 41.069 27.4356 41.4006 27.1042 41.6666Z" fill="black"/>
<path d="M49.625 8.95829C49.2799 8.03089 48.8763 7.12629 48.4167 6.24995C47.8013 4.83494 46.8687 3.58042 45.691 2.58338C44.5134 1.58634 43.1222 0.873489 41.625 0.499953C38.7303 -0.233545 35.6901 -0.161502 32.8334 0.708286C32.7481 0.732222 32.6685 0.772896 32.5992 0.827934C32.5298 0.882972 32.4721 0.951272 32.4295 1.02885C32.3868 1.10642 32.36 1.19172 32.3507 1.27976C32.3413 1.3678 32.3496 1.45682 32.375 1.54162C32.428 1.70618 32.5411 1.84473 32.6917 1.92968C32.8422 2.01462 33.0193 2.03971 33.1875 1.99995C35.7973 1.27116 38.5569 1.27116 41.1667 1.99995C42.4112 2.34094 43.5596 2.96629 44.5212 3.82673C45.4829 4.68717 46.2316 5.75918 46.7084 6.95829C46.8542 7.31245 47.1875 8.04162 47.4375 8.77079C47.6875 9.49995 47.8542 9.72912 47.7709 9.99995C47.6875 10.2708 47.5 10.2291 47.3334 10.3541C46.8542 10.6666 46.25 10.9583 45.7709 11.25C45.4771 11.4341 45.2106 11.6585 44.9792 11.9166C44.8569 12.0515 44.7626 12.2094 44.7018 12.3811C44.641 12.5528 44.6149 12.7348 44.625 12.9166C44.625 13.25 44.7709 13.7916 44.7709 14.0416C44.746 14.5111 44.6103 14.968 44.375 15.375C44.3157 15.522 44.2192 15.6511 44.0951 15.7497C43.9709 15.8482 43.8233 15.913 43.6667 15.9375C43.1875 15.9375 42.9792 15.6458 42.7709 15.3333C42.4697 14.8224 42.1209 14.3411 41.7292 13.8958C41.3598 13.4968 40.8819 13.2144 40.3542 13.0833C40.0192 12.9986 39.6684 12.9986 39.3334 13.0833C38.5781 13.3811 37.8468 13.7363 37.1459 14.1458C36.9706 14.2492 36.7811 14.3265 36.5834 14.375C36.5834 14.375 36.4792 14.375 36.4375 14.375C36.2775 14.1519 36.1381 13.9148 36.0209 13.6666C35.6667 12.8958 35.3959 11.9791 35.0625 11.3125L34.9167 11.0208C35.9814 10.3986 36.8983 9.55274 37.6042 8.54162C37.9577 7.99508 38.0919 7.33524 37.9798 6.69406C37.8678 6.05287 37.5179 5.4776 37 5.08329C36.7394 4.82625 36.4301 4.62383 36.0903 4.48789C35.7504 4.35195 35.3868 4.28522 35.0209 4.29162C33.9331 4.50294 32.8714 4.83124 31.8542 5.27079L31.75 4.91662L30.5834 1.68745C30.5309 1.53827 30.4213 1.41605 30.2787 1.34767C30.1361 1.2793 29.9721 1.27038 29.8229 1.32287C29.6738 1.37536 29.5515 1.48496 29.4832 1.62757C29.4148 1.77018 29.4059 1.9341 29.4584 2.08329L30.4792 5.35412C30.4792 5.35412 30.6667 6.02079 30.7709 6.24995C30.826 6.39248 30.9235 6.51475 31.05 6.60039C31.1766 6.68602 31.3264 6.73094 31.4792 6.72912C32.5 6.72912 33.5625 6.02079 34.625 5.85412C34.856 5.79681 35.0982 5.80336 35.3257 5.87309C35.5532 5.94281 35.7575 6.07308 35.9167 6.24995C36.1227 6.42103 36.2595 6.66114 36.3017 6.92559C36.3439 7.19004 36.2885 7.4608 36.1459 7.68745C35.3751 8.63871 34.4088 9.41315 33.3125 9.95829C33.1426 10.0548 33.0048 10.199 32.9159 10.373C32.827 10.547 32.7911 10.7432 32.8125 10.9375C32.9154 11.407 33.0764 11.8619 33.2917 12.2916C33.5834 12.9583 33.8334 13.875 34.1459 14.6666C34.3212 15.0805 34.545 15.4721 34.8125 15.8333C35.0087 16.0949 35.2637 16.3066 35.5568 16.4514C35.85 16.5961 36.1731 16.6699 36.5 16.6666C37.3321 16.5743 38.1311 16.289 38.8334 15.8333C39.25 15.6041 39.9375 15.3333 39.9375 15.3333C40.2257 15.5787 40.4659 15.8754 40.6459 16.2083C40.9341 16.6958 41.2842 17.144 41.6875 17.5416C41.982 17.8121 42.3328 18.0141 42.7146 18.133C43.0964 18.2518 43.4998 18.2847 43.8959 18.2291C44.3088 18.1864 44.708 18.0566 45.0671 17.8483C45.4262 17.64 45.737 17.358 45.9792 17.0208C46.5972 16.1865 46.946 15.1835 46.9792 14.1458C47.0315 13.8005 47.0315 13.4494 46.9792 13.1041C47.5625 12.6875 48.4375 12.2916 49.0625 11.8125C49.3842 11.5275 49.634 11.1706 49.7917 10.7708C49.9211 10.1637 49.863 9.5316 49.625 8.95829Z" fill="black"/>
</g>
<defs>
<clipPath id="clip0_115_5510">
<rect width="50" height="50" fill="white" transform="translate(0.5)"/>
</clipPath>
</defs>
</svg>
