<svg width="196" height="85" viewBox="0 0 196 85" fill="none" xmlns="http://www.w3.org/2000/svg">
<g filter="url(#filter0_d_115_4940)">
<path d="M1.29199 32.2311C0.578445 22.8694 7.58915 14.7018 16.9508 13.9883L171.503 2.20834C180.864 1.49479 189.032 8.50549 189.745 17.8672L192.329 51.7688C193.043 61.1305 186.032 69.2981 176.671 70.0117L22.1188 81.7916C12.7571 82.5052 4.58953 75.4945 3.87598 66.1328L1.29199 32.2311Z" fill="url(#paint0_linear_115_4940)" shape-rendering="crispEdges"/>
<path d="M17.0046 14.6942L171.556 2.9143C180.528 2.23048 188.356 8.94937 189.039 17.921L191.623 51.8227C192.307 60.7943 185.588 68.6219 176.617 69.3057L22.065 81.0857C13.0934 81.7695 5.26576 75.0506 4.58194 66.079L1.99795 32.1773C1.32483 23.346 7.82472 15.6237 16.5854 14.7321L17.0046 14.6942Z" stroke="black" stroke-width="1.41667" shape-rendering="crispEdges"/>
<path d="M22.4113 56.9315C21.8237 56.9763 21.3618 56.8463 21.0257 56.5417C20.6896 56.237 20.4991 55.7908 20.4543 55.2032L19.3102 40.1927C19.2654 39.6051 19.3947 39.1346 19.6981 38.7812C20.0187 38.4265 20.4728 38.2267 21.0605 38.1819C21.579 38.1424 21.993 38.2151 22.3027 38.4001C22.6282 38.5665 22.9391 38.8818 23.2352 39.346L30.0577 49.8298L29.1763 49.897L34.331 38.5003C34.5534 37.9966 34.8043 37.6385 35.0836 37.426C35.3789 37.1949 35.7771 37.0602 36.2783 37.022C36.866 36.9772 37.3278 37.1072 37.664 37.4118C38.0174 37.7152 38.2165 38.1607 38.2613 38.7483L39.4054 53.7588C39.4502 54.3464 39.3295 54.8162 39.0434 55.1683C38.7574 55.5204 38.3205 55.7189 37.7329 55.7637C37.1453 55.8084 36.6747 55.6792 36.3213 55.3758C35.9852 55.0711 35.7948 54.625 35.75 54.0374L34.9497 43.5378L35.52 43.4944L31.356 52.4948C31.1737 52.839 30.9681 53.1068 30.7393 53.298C30.5265 53.4707 30.2299 53.5715 29.8497 53.6005C29.4695 53.6295 29.1518 53.5668 28.8966 53.4124C28.6415 53.258 28.407 53.0325 28.1932 52.7359L22.6594 44.4485L23.2816 44.4011L24.0838 54.9266C24.1286 55.5142 24.008 55.9841 23.7219 56.3361C23.4531 56.6869 23.0163 56.8854 22.4113 56.9315ZM46.3134 55.1097C45.6566 55.1597 45.1416 55.0164 44.7683 54.6798C44.3949 54.3432 44.1832 53.8466 44.1332 53.1898L43.0207 38.5941C42.9706 37.9374 43.1046 37.4143 43.4226 37.0251C43.7406 36.6358 44.228 36.4161 44.8848 36.366C45.5242 36.3173 46.0306 36.4612 46.404 36.7978C46.7773 37.1344 46.989 37.6311 47.039 38.2879L48.1515 52.8835C48.2016 53.5403 48.0676 54.0633 47.7496 54.4526C47.4489 54.8406 46.9702 55.0596 46.3134 55.1097ZM54.8913 54.4558C54.2864 54.502 53.8072 54.3733 53.4538 54.07C53.1163 53.748 52.9239 53.276 52.8765 52.6538L51.7502 37.8766C51.7001 37.2199 51.8175 36.7068 52.1022 36.3374C52.4042 35.9667 52.8231 35.761 53.3589 35.7201C53.8256 35.6846 54.1871 35.7526 54.4436 35.9243C54.716 36.0773 55.0322 36.3488 55.3922 36.7385L65.3751 47.6334L64.6751 47.6867L63.8491 36.8501C63.803 36.2452 63.923 35.7667 64.2091 35.4146C64.5111 35.0439 64.9646 34.8355 65.5695 34.7894C66.1744 34.7433 66.6456 34.8812 66.983 35.2032C67.3365 35.5065 67.5362 35.9607 67.5823 36.5656L68.7225 51.5242C68.7659 52.0945 68.6539 52.5638 68.3865 52.9318C68.1177 53.2826 67.7327 53.4771 67.2315 53.5153C66.7475 53.5522 66.3514 53.4867 66.0431 53.319C65.7521 53.15 65.4266 52.8706 65.0666 52.4808L55.1096 41.584L55.7837 41.5326L56.6097 52.3692C56.6571 52.9914 56.5384 53.4872 56.2537 53.8566C55.9676 54.2087 55.5135 54.4084 54.8913 54.4558ZM79.9587 52.5452C79.302 52.5953 78.7869 52.452 78.4136 52.1154C78.0403 51.7788 77.8286 51.2821 77.7785 50.6253L76.7787 37.5074L72.19 37.8571C71.6542 37.898 71.2282 37.7827 70.912 37.5113C70.5958 37.2399 70.4179 36.8449 70.3784 36.3264C70.3376 35.7906 70.4535 35.3733 70.7262 35.0743C70.9977 34.7581 71.4013 34.5796 71.937 34.5388L85.1328 33.533C85.6685 33.4922 86.0945 33.6074 86.4108 33.8789C86.7256 34.133 86.9035 34.528 86.9443 35.0637C86.9839 35.5822 86.8679 35.9996 86.5965 36.3158C86.3251 36.632 85.9215 36.8105 85.3857 36.8514L80.797 37.2011L81.7969 50.3191C81.8469 50.9758 81.7129 51.4989 81.3949 51.8882C81.0942 52.2761 80.6155 52.4951 79.9587 52.5452ZM101.143 50.9306C100.538 50.9767 100.059 50.848 99.7053 50.5447C99.3678 50.2227 99.1754 49.7507 99.1279 49.1285L98.0016 34.3513C97.9516 33.6946 98.0689 33.1815 98.3537 32.8121C98.6557 32.4414 99.0746 32.2357 99.6104 32.1948C100.077 32.1593 100.439 32.2273 100.695 32.399C100.967 32.5521 101.284 32.8235 101.644 33.2132L111.627 44.1081L110.927 44.1614L110.101 33.3248C110.055 32.7199 110.174 32.2414 110.461 31.8893C110.763 31.5186 111.216 31.3102 111.821 31.2641C112.426 31.218 112.897 31.356 113.235 31.6779C113.588 31.9813 113.788 32.4354 113.834 33.0403L114.974 47.9989C115.017 48.5693 114.905 49.0385 114.638 49.4065C114.369 49.7573 113.984 49.9518 113.483 49.99C112.999 50.0269 112.603 49.9615 112.295 49.7937C112.004 49.6247 111.678 49.3453 111.318 48.9555L101.361 38.0587L102.035 38.0074L102.861 48.8439C102.909 49.4661 102.79 49.9619 102.505 50.3313C102.219 50.6834 101.765 50.8831 101.143 50.9306ZM128.314 48.9117C126.517 49.0487 124.906 48.7804 123.481 48.1067C122.072 47.4144 120.934 46.3887 120.065 45.0294C119.214 43.6688 118.717 42.0466 118.573 40.1627C118.464 38.7282 118.573 37.4248 118.901 36.2525C119.245 35.0616 119.783 34.0297 120.516 33.1568C121.248 32.2666 122.15 31.5547 123.222 31.021C124.311 30.486 125.529 30.1671 126.878 30.0644C128.71 29.9247 130.329 30.1924 131.737 30.8674C133.144 31.5424 134.273 32.5602 135.124 33.9208C135.992 35.2627 136.497 36.8757 136.641 38.7595C136.75 40.194 136.633 41.5067 136.289 42.6977C135.945 43.8886 135.407 44.9291 134.675 45.8193C133.944 46.7095 133.042 47.4214 131.97 47.9551C130.898 48.4888 129.679 48.8076 128.314 48.9117ZM128.053 45.4896C129.073 45.4119 129.919 45.1127 130.592 44.5921C131.281 44.0528 131.782 43.3193 132.093 42.3916C132.421 41.4453 132.538 40.35 132.443 39.1056C132.298 37.2044 131.762 35.7676 130.836 34.7952C129.909 33.8055 128.677 33.3692 127.138 33.4865C126.136 33.5629 125.29 33.862 124.599 34.384C123.909 34.906 123.408 35.6308 123.096 36.5585C122.784 37.4863 122.677 38.5809 122.773 39.8426C122.916 41.7265 123.452 43.1719 124.381 44.1789C125.308 45.1687 126.532 45.6056 128.053 45.4896ZM147.789 47.3752C147.235 47.4174 146.776 47.322 146.411 47.0891C146.044 46.8389 145.736 46.4452 145.486 45.9079L139.127 31.5818C138.852 30.9422 138.853 30.3772 139.128 29.8868C139.421 29.3951 139.965 29.119 140.76 29.0584C141.313 29.0162 141.747 29.1136 142.06 29.3504C142.391 29.586 142.673 29.973 142.905 30.5116L148.153 42.9146L147.038 42.9996L150.581 29.9526C150.746 29.3838 150.965 28.9585 151.239 28.6769C151.529 28.3766 151.925 28.2074 152.426 28.1692C152.91 28.1323 153.31 28.2409 153.625 28.4951C153.938 28.7319 154.22 29.1276 154.471 29.6822L159.741 42.0314L158.782 42.1045L162.167 29.0434C162.299 28.4945 162.511 28.0785 162.802 27.7956C163.092 27.4953 163.505 27.3248 164.041 27.284C164.715 27.2326 165.225 27.4284 165.572 27.8713C165.918 28.3142 165.996 28.8733 165.804 29.5485L161.639 44.7028C161.49 45.2531 161.262 45.679 160.955 45.9806C160.646 46.2648 160.207 46.4287 159.636 46.4722C159.083 46.5143 158.633 46.4183 158.284 46.1841C157.935 45.9326 157.635 45.5382 157.386 45.001L152.406 33.7248L153.029 33.6773L149.766 45.6078C149.599 46.1594 149.362 46.586 149.055 46.8875C148.764 47.1705 148.342 47.3331 147.789 47.3752ZM172.536 39.5959C172.139 39.6262 171.818 39.5289 171.575 39.3041C171.332 39.0793 171.167 38.7355 171.079 38.2728L169.574 29.4698C169.428 28.6986 169.528 28.0652 169.872 27.5696C170.216 27.0567 170.776 26.7706 171.554 26.7113C172.297 26.6546 172.877 26.8538 173.294 27.3087C173.71 27.7464 173.905 28.3574 173.877 29.1417L173.724 38.0713C173.707 38.5418 173.596 38.9067 173.39 39.1658C173.201 39.4236 172.916 39.5669 172.536 39.5959ZM172.975 45.3512C172.283 45.4039 171.714 45.2387 171.268 44.8555C170.839 44.471 170.599 43.9504 170.549 43.2936C170.501 42.6541 170.66 42.1205 171.027 41.6927C171.41 41.2462 171.947 40.9967 172.639 40.944C173.33 40.8913 173.882 41.0579 174.294 41.4437C174.721 41.8109 174.96 42.3142 175.008 42.9537C175.058 43.6105 174.901 44.1614 174.535 44.6065C174.186 45.0503 173.666 45.2985 172.975 45.3512Z" fill="black"/>
</g>
<defs>
<filter id="filter0_d_115_4940" x="0" y="0.916321" width="196.455" height="85.0006" filterUnits="userSpaceOnUse" color-interpolation-filters="sRGB">
<feFlood flood-opacity="0" result="BackgroundImageFix"/>
<feColorMatrix in="SourceAlpha" type="matrix" values="0 0 0 0 0 0 0 0 0 0 0 0 0 0 0 0 0 0 127 0" result="hardAlpha"/>
<feOffset dx="2.83333" dy="2.83333"/>
<feComposite in2="hardAlpha" operator="out"/>
<feColorMatrix type="matrix" values="0 0 0 0 0 0 0 0 0 0 0 0 0 0 0 0 0 0 1 0"/>
<feBlend mode="normal" in2="BackgroundImageFix" result="effect1_dropShadow_115_4940"/>
<feBlend mode="normal" in="SourceGraphic" in2="effect1_dropShadow_115_4940" result="shape"/>
</filter>
<linearGradient id="paint0_linear_115_4940" x1="4.38264" y1="14.9462" x2="196.249" y2="34.9362" gradientUnits="userSpaceOnUse">
<stop stop-color="#FE63BF"/>
<stop offset="1" stop-color="white"/>
</linearGradient>
</defs>
</svg>
