<svg width="22" height="22" viewBox="0 0 22 22" fill="none" xmlns="http://www.w3.org/2000/svg">
<g clip-path="url(#clip0_332_3560)">
<path fill-rule="evenodd" clip-rule="evenodd" d="M21.9175 2.36504C21.8681 2.21677 21.7752 2.08679 21.651 1.99198C21.5268 1.89717 21.3769 1.84191 21.2208 1.83337C20.9078 1.85573 20.614 1.99282 20.3958 2.21837C19.2709 3.35709 18.2379 4.58315 17.3067 5.88504C15.015 8.92837 12.2467 12.98 11.0092 14.85L10.56 15.5375C9.3102 15.0839 8.01213 14.7763 6.69166 14.6209C6.08247 14.5185 5.45887 14.5403 4.85832 14.685C4.77763 14.7173 4.70433 14.7656 4.64288 14.8271C4.58143 14.8885 4.5331 14.9618 4.50082 15.0425C4.47073 15.2233 4.48146 15.4085 4.53221 15.5845C4.58297 15.7606 4.67247 15.9231 4.79416 16.06C5.42204 16.8296 6.13899 17.5219 6.92999 18.1225C8.67166 19.525 10.8717 20.8725 11.66 20.9734C11.701 20.9785 11.7425 20.9754 11.7823 20.9643C11.8221 20.9532 11.8593 20.9343 11.8917 20.9087C11.9241 20.8831 11.9511 20.8514 11.9711 20.8153C11.9911 20.7791 12.0038 20.7394 12.0083 20.6984C12.016 20.6147 11.9906 20.5313 11.9374 20.4661C11.8843 20.401 11.8077 20.3593 11.7242 20.35C10.3782 19.8295 9.13632 19.0719 8.05749 18.1134C7.11561 17.4137 6.25746 16.6078 5.49999 15.7117C5.42948 15.6182 5.36517 15.5203 5.30749 15.4184C5.37848 15.3935 5.45246 15.378 5.52749 15.3725C6.45726 15.4075 7.37995 15.549 8.27749 15.7942C9.03964 15.9678 9.78272 16.2166 10.4958 16.5367C10.5734 16.5832 10.6635 16.6046 10.7537 16.598C10.8439 16.5914 10.9299 16.5572 11 16.5C11.0788 16.4539 11.14 16.383 11.1742 16.2984V16.2525C11.275 16.0967 11.4767 15.785 11.7792 15.3359C13.035 13.5025 15.8308 9.50587 18.1225 6.49004C19.1492 5.13337 20.0658 3.96921 20.7075 3.30004C20.7902 3.21352 20.8825 3.13664 20.9825 3.07087C20.9367 3.32754 20.8267 3.66671 20.7442 3.98754C19.9618 6.45214 18.9745 8.84689 17.7925 11.1467C16.4005 14.0848 14.7983 16.9185 12.9983 19.6259C12.9767 19.6548 12.9609 19.6876 12.9519 19.7226C12.943 19.7576 12.941 19.794 12.9461 19.8298C12.9512 19.8655 12.9633 19.8999 12.9817 19.931C13.0001 19.9621 13.0244 19.9892 13.0533 20.0109C13.1131 20.0551 13.1879 20.0742 13.2616 20.0639C13.3353 20.0536 13.4021 20.0148 13.4475 19.9559C16.4501 15.6257 19.0083 11.0037 21.0833 6.16004C21.4824 5.27723 21.7895 4.35572 22 3.41004C22.0642 3.06048 22.0358 2.70019 21.9175 2.36504Z" fill="#34D26E"/>
<path fill-rule="evenodd" clip-rule="evenodd" d="M8.35083 12.8975C9.50583 11.3117 11.1008 9.23088 12.595 7.30588L14.4283 4.92254C15.345 3.79504 16.0417 2.84171 16.555 2.29171C16.6467 2.20004 16.7292 2.09004 16.8025 2.00754C16.8112 2.05297 16.8112 2.09962 16.8025 2.14504C16.7795 2.54248 16.7118 2.93607 16.6008 3.31838C16.5 3.88671 16.2708 4.58338 15.9958 5.31671C15.9735 5.35143 15.9593 5.39072 15.9543 5.43167C15.9492 5.47263 15.9534 5.51419 15.9666 5.55329C15.9798 5.59239 16.0016 5.62802 16.0305 5.65753C16.0593 5.68705 16.0944 5.7097 16.1332 5.7238C16.172 5.7379 16.2135 5.7431 16.2545 5.739C16.2956 5.7349 16.3352 5.72161 16.3704 5.70012C16.4056 5.67863 16.4356 5.64949 16.458 5.61485C16.4804 5.58022 16.4948 5.54098 16.5 5.50004C17.0151 4.45266 17.394 3.34365 17.6275 2.20004C17.7008 1.44838 17.38 1.09088 16.9583 1.04504C16.6989 1.04998 16.4505 1.15128 16.2617 1.32921C15.2784 2.21986 14.3821 3.20206 13.585 4.26254C13.0075 4.99588 12.3842 5.83004 11.7517 6.69171C10.3125 8.69004 8.8825 10.89 7.81 12.54C7.77786 12.6089 7.77123 12.687 7.7913 12.7604C7.81138 12.8337 7.85684 12.8975 7.91959 12.9405C7.98233 12.9834 8.05829 13.0026 8.13392 12.9948C8.20954 12.9869 8.27992 12.9525 8.3325 12.8975H8.35083Z" fill="#34D26E"/>
<path fill-rule="evenodd" clip-rule="evenodd" d="M6.10499 20.1667C5.59166 20.0659 4.63833 18.9751 3.66666 17.7284C3.27249 17.2334 2.88749 16.6926 2.52083 16.1884C2.15416 15.6842 1.75083 15.0792 1.46666 14.6026C1.27117 14.3129 1.10242 14.0061 0.962493 13.6859C0.962493 13.6859 0.962493 13.6859 0.962493 13.6401C1.79333 13.6257 2.62156 13.737 3.41916 13.9701C3.45347 13.9827 3.48993 13.9885 3.52646 13.987C3.563 13.9856 3.59889 13.9769 3.63208 13.9616C3.66528 13.9463 3.69513 13.9246 3.71994 13.8977C3.74475 13.8709 3.76402 13.8394 3.77666 13.8051C3.7893 13.7708 3.79506 13.7343 3.79361 13.6978C3.79215 13.6612 3.78352 13.6253 3.7682 13.5921C3.75288 13.5589 3.73117 13.5291 3.70431 13.5043C3.67745 13.4795 3.64597 13.4602 3.61166 13.4476C2.79936 13.1213 1.94409 12.9145 1.07249 12.8334C0.805448 12.7933 0.532523 12.8282 0.28416 12.9342C0.186576 12.9873 0.109238 13.0711 0.0641595 13.1726C0.00472845 13.4206 -0.00480671 13.678 0.0361082 13.9298C0.0770231 14.1816 0.167572 14.4227 0.302493 14.6392C0.696392 15.4469 1.17252 16.2118 1.72333 16.9217C3.17166 18.8376 5.18833 20.7259 5.99499 20.8451C6.03533 20.853 6.07685 20.853 6.11716 20.8448C6.15747 20.8367 6.19577 20.8207 6.22985 20.7976C6.26394 20.7746 6.29313 20.7451 6.31575 20.7108C6.33837 20.6764 6.35397 20.638 6.36166 20.5976C6.38055 20.5526 6.38862 20.5038 6.38521 20.4551C6.38181 20.4065 6.36703 20.3593 6.34206 20.3174C6.31709 20.2755 6.28263 20.24 6.24146 20.2138C6.20028 20.1877 6.15354 20.1715 6.10499 20.1667Z" fill="#34D26E"/>
<path d="M11.8517 20.9675C10.9659 21.1181 5.66667 16.3333 5 15L11 16L21 2L21.5 2.5C22.035 3.56991 19.6117 9.25154 16.6091 14.3912C15.1215 16.9377 13.9262 20.6148 11.8517 20.9675Z" fill="#34D26E"/>
</g>
<defs>
<clipPath id="clip0_332_3560">
<rect width="22" height="22" fill="white"/>
</clipPath>
</defs>
</svg>
