<svg width="31" height="30" viewBox="0 0 31 30" fill="none" xmlns="http://www.w3.org/2000/svg">
<g clip-path="url(#clip0_115_5935)">
<path fill-rule="evenodd" clip-rule="evenodd" d="M29.95 4.92494C29.9256 4.86111 29.8888 4.80279 29.8415 4.75342C29.7943 4.70405 29.7377 4.66462 29.675 4.63744C29.5875 4.63744 29.3875 4.63744 29.3 4.56245L28.6625 4.38744L26.75 3.91245H26.625C26.7356 3.60155 26.8274 3.28432 26.9 2.96244C27.0103 2.49037 27.0772 2.0092 27.1 1.52494C27.13 1.21316 27.13 0.899226 27.1 0.587444C27.0602 0.427112 26.9782 0.280362 26.8625 0.162444C26.7608 0.0749806 26.6364 0.01802 26.5037 -0.00188241C26.371 -0.0217848 26.2354 -0.00382003 26.1125 0.0499444C25.7125 0.174944 24.775 0.612444 24.6875 0.649944C23.95 0.987445 23.2 1.31244 22.5 1.68744C22.0093 1.95514 21.5374 2.25583 21.0875 2.58744C20.7607 2.78599 20.4513 3.01179 20.1625 3.26244C20.0134 3.37829 19.9006 3.53446 19.8375 3.71245C19.7054 4.12855 19.642 4.56344 19.65 4.99995C19.65 5.69994 19.7625 6.47495 19.825 7.12495L19.25 7.59995C18.6932 8.09634 18.1633 8.62209 17.6625 9.17495C16.5244 10.466 15.4681 11.827 14.5 13.2499C14.4381 13.3355 14.4115 13.4415 14.4254 13.5461C14.4394 13.6508 14.4929 13.7461 14.575 13.8124C14.6168 13.8446 14.6645 13.8682 14.7155 13.8819C14.7664 13.8955 14.8196 13.8989 14.8719 13.892C14.9241 13.885 14.9745 13.8678 15.0201 13.8412C15.0657 13.8147 15.1056 13.7794 15.1375 13.7374C16.2645 12.4274 17.4578 11.1758 18.7125 9.98744C19.225 9.48744 19.775 9.02495 20.325 8.54995H20.4375C20.8875 8.54995 21.3375 8.69995 21.7875 8.79995C22.2108 8.90149 22.6282 9.02669 23.0375 9.17495C23.3258 9.29276 23.6224 9.38886 23.925 9.46245C24.1672 9.49966 24.4149 9.46489 24.6375 9.36244C25.0456 9.14938 25.4274 8.88927 25.775 8.58745C26.4227 7.93 27.1207 7.324 27.8625 6.77495C28.1375 6.58745 28.75 6.33745 29.2 6.04995C29.4716 5.89843 29.7031 5.68413 29.875 5.42495C29.9257 5.35324 29.9588 5.27067 29.9718 5.18385C29.9849 5.09702 29.9774 5.00836 29.95 4.92494ZM20.65 5.09995C20.7875 3.99994 21.2 4.02495 21.8 3.64995C22.223 3.3678 22.6612 3.10908 23.1125 2.87494C23.8 2.49994 24.5 2.16244 25.2125 1.81244L26.0125 1.37494C26.0157 1.42906 26.0157 1.48332 26.0125 1.53744C26.0485 1.95333 26.0485 2.37156 26.0125 2.78744C25.9609 3.12458 25.89 3.45847 25.8 3.78744C25.8 3.78744 25.8 3.78744 25.7 3.78744C24.0496 4.41153 22.4834 5.23873 21.0375 6.24995L20.6 6.59995C20.5897 6.09941 20.6064 5.59868 20.65 5.09995ZM27.225 5.68745C26.9538 5.83629 26.6983 6.01218 26.4625 6.21244C26.025 6.56245 25.625 6.97495 25.2125 7.37495C23.8 8.78745 24.075 8.33745 23.375 8.17494C22.9006 8.06634 22.4207 7.98289 21.9375 7.92495L21.0875 7.83745L21.2625 7.68745C26.175 3.59995 26.125 4.42494 28.2625 5.24994C27.8625 5.41245 27.45 5.56245 27.225 5.68745Z" fill="black"/>
<path fill-rule="evenodd" clip-rule="evenodd" d="M13.45 12.5C13.5412 12.4801 13.6207 12.4248 13.6711 12.3463C13.7215 12.2678 13.7386 12.1724 13.7187 12.0813C13.6988 11.9901 13.6436 11.9106 13.565 11.8602C13.4865 11.8098 13.3912 11.7926 13.3 11.8125C12.937 11.8911 12.5937 12.0423 12.2908 12.2572C11.9879 12.472 11.7316 12.746 11.5375 13.0625C11.3217 13.4041 11.1919 13.793 11.1592 14.1957C11.1266 14.5985 11.192 15.0031 11.35 15.375C11.5499 15.8073 11.8591 16.18 12.2472 16.4562C12.6352 16.7325 13.0886 16.9027 13.5625 16.95C14.0173 17.005 14.4787 16.9559 14.9117 16.8065C15.3448 16.657 15.7383 16.4112 16.0625 16.0875C16.1345 16.0091 16.1745 15.9065 16.1745 15.8C16.1745 15.6936 16.1345 15.591 16.0625 15.5125C15.9861 15.4414 15.8856 15.4018 15.7812 15.4018C15.6769 15.4018 15.5764 15.4414 15.5 15.5125C15.2522 15.6865 14.9701 15.8054 14.6726 15.8615C14.3751 15.9175 14.0691 15.9094 13.775 15.8375C13.5123 15.7803 13.2673 15.6607 13.0606 15.4888C12.8539 15.3169 12.6917 15.0978 12.5875 14.85C12.4799 14.6611 12.4182 14.4496 12.4073 14.2325C12.3964 14.0154 12.4368 13.7987 12.525 13.6C12.5993 13.3649 12.7192 13.1466 12.8779 12.9579C13.0366 12.7691 13.231 12.6135 13.45 12.5Z" fill="black"/>
<path fill-rule="evenodd" clip-rule="evenodd" d="M15.35 10.0875C15.3571 10.0414 15.3549 9.99446 15.3435 9.94929C15.3322 9.90413 15.312 9.86167 15.284 9.82442C15.2561 9.78717 15.221 9.75587 15.1808 9.73235C15.1406 9.70883 15.0962 9.69357 15.05 9.68745C14.5805 9.63673 14.107 9.63673 13.6375 9.68745C13.1551 9.72208 12.6798 9.82303 12.225 9.98745C11.217 10.3473 10.3307 10.9836 9.66756 11.8237C9.00437 12.6637 8.59109 13.6735 8.47501 14.7375C8.34697 15.8474 8.62614 16.966 9.26066 17.8856C9.89519 18.8052 10.8419 19.4632 11.925 19.7375C13.2248 20.1203 14.612 20.0849 15.8906 19.6363C17.1692 19.1877 18.2744 18.3485 19.05 17.2375C19.5925 16.5996 19.9512 15.8261 20.0875 15C20.1319 14.5478 20.0802 14.0913 19.9359 13.6605C19.7916 13.2296 19.5578 12.8342 19.25 12.5C19.2181 12.458 19.1782 12.4227 19.1326 12.3962C19.087 12.3696 19.0366 12.3524 18.9844 12.3454C18.9321 12.3385 18.8789 12.3419 18.828 12.3555C18.777 12.3692 18.7293 12.3928 18.6875 12.425C18.6459 12.4557 18.6109 12.4945 18.5845 12.539C18.5582 12.5835 18.541 12.6329 18.534 12.6841C18.527 12.7354 18.5304 12.7875 18.5438 12.8375C18.5573 12.8874 18.5807 12.9342 18.6125 12.975C18.8393 13.2261 19.0127 13.5207 19.1223 13.8408C19.2319 14.161 19.2753 14.5 19.25 14.8375C19.1054 15.4959 18.7957 16.1067 18.35 16.6125C17.6501 17.4799 16.7047 18.116 15.6375 18.4375C14.589 18.775 13.461 18.775 12.4125 18.4375C11.6163 18.243 10.9166 17.7684 10.4415 17.1005C9.96639 16.4326 9.74756 15.6159 9.82501 14.8C9.86327 13.9381 10.1361 13.1031 10.6141 12.385C11.0922 11.6668 11.7572 11.0929 12.5375 10.725C12.9182 10.5698 13.3173 10.4648 13.725 10.4125C14.1396 10.3541 14.5604 10.3541 14.975 10.4125C15.021 10.4159 15.0672 10.4101 15.111 10.3956C15.1547 10.3811 15.1952 10.3581 15.2301 10.3279C15.2649 10.2977 15.2934 10.2609 15.314 10.2196C15.3346 10.1784 15.3468 10.1335 15.35 10.0875Z" fill="black"/>
<path fill-rule="evenodd" clip-rule="evenodd" d="M22.175 17.6125C22.1165 17.5253 22.026 17.4646 21.923 17.4436C21.8201 17.4225 21.7131 17.4428 21.625 17.5C21.5805 17.5279 21.5421 17.5644 21.5122 17.6076C21.4822 17.6507 21.4614 17.6995 21.4508 17.7509C21.4403 17.8023 21.4404 17.8554 21.451 17.9068C21.4616 17.9582 21.4825 18.0069 21.5125 18.05C22.1783 19.126 22.7074 20.2807 23.0875 21.4875C23.3745 22.2012 23.4484 22.9828 23.3 23.7375C23.0676 24.2393 22.6826 24.6549 22.2 24.925C21.3827 25.3965 20.5147 25.7739 19.6125 26.05L15.2125 27.55C13.944 28.0915 12.6061 28.4533 11.2375 28.625C10.3787 28.7054 9.51433 28.5498 8.7375 28.175C8.64059 28.109 8.56294 28.0184 8.5125 27.9125C8.375 27.7 8.2875 27.475 8.1875 27.2875C7.9125 26.7625 7.65 26.225 7.4 25.675C7.15 25.125 6.925 24.575 6.7 24.0125C5.6 21.2625 4.3125 18.2375 3.325 15.1875C2.66872 13.216 2.20407 11.1857 1.9375 9.12501C1.93283 9.07895 1.91907 9.03427 1.89701 8.99356C1.87495 8.95285 1.84504 8.91692 1.80899 8.88786C1.77295 8.85879 1.7315 8.83717 1.68705 8.82423C1.64259 8.8113 1.59601 8.80732 1.55 8.81251C1.45828 8.825 1.37482 8.87209 1.31672 8.94414C1.25861 9.01619 1.23027 9.10774 1.2375 9.20001C1.46321 11.317 1.88161 13.409 2.4875 15.45C3.375 18.55 4.55 21.7 5.5625 24.4625C5.775 25.05 6 25.625 6.2625 26.2C6.525 26.775 6.775 27.3375 7.0625 27.8875C7.21989 28.2537 7.41689 28.6017 7.65 28.925C7.80578 29.1191 8.002 29.277 8.225 29.3875C9.19127 29.8598 10.2643 30.071 11.3375 30C12.8302 29.786 14.2858 29.3653 15.6625 28.75L20 27.125C20.9724 26.7905 21.9035 26.3459 22.775 25.8C23.4404 25.3998 23.958 24.7945 24.25 24.075C24.4343 23.1256 24.3343 22.1428 23.9625 21.25C23.5168 19.9693 22.9165 18.7478 22.175 17.6125Z" fill="black"/>
<path fill-rule="evenodd" clip-rule="evenodd" d="M1.6125 8.58755C1.68818 8.54077 1.74402 8.46778 1.76938 8.3825C1.79473 8.29721 1.78783 8.20558 1.75 8.12505C1.69119 7.94953 1.6787 7.7618 1.71374 7.58003C1.74877 7.39827 1.83016 7.22863 1.95 7.08755C2.19812 6.7618 2.49792 6.47889 2.8375 6.25005C2.8375 6.70005 2.9625 7.13755 3.05 7.58755C3.3 8.83755 3.625 10.15 3.875 11.425C4.1 12.4875 4.325 13.5625 4.6 14.6375C5.025 16.25 5.5 17.85 6.0625 19.4C6.9456 21.8755 8.01102 24.2821 9.25 26.6C9.15846 26.607 9.06653 26.607 8.975 26.6C8.88102 26.6096 8.79446 26.6554 8.73376 26.7278C8.67306 26.8001 8.643 26.8933 8.65 26.9875C8.65317 27.0336 8.66539 27.0785 8.68598 27.1197C8.70656 27.161 8.7351 27.1978 8.76995 27.228C8.80479 27.2582 8.84526 27.2812 8.88903 27.2957C8.93281 27.3102 8.97901 27.316 9.025 27.3125C10.531 27.2773 12.0263 27.0505 13.475 26.6375C14.05 26.475 14.6125 26.3 15.175 26.1C16 25.8 16.8125 25.45 17.675 25.125C18.725 24.65 19.775 24.2 20.8 23.7125C21.5 23.375 22.175 23.0375 22.85 22.65C22.9403 22.5997 23.0076 22.5162 23.0378 22.4173C23.0679 22.3183 23.0585 22.2115 23.0116 22.1194C22.9647 22.0272 22.8839 21.9567 22.7862 21.9228C22.6885 21.8889 22.5814 21.8942 22.4875 21.9375C21.8 22.25 21.1125 22.525 20.4125 22.7875C19.35 23.175 18.275 23.5375 17.1875 23.9L14.3125 25C13.375 25.3625 12.45 25.75 11.4875 26.0375C11.0375 26.175 10.575 26.3 10.1 26.4C9.22926 24.4698 8.45743 22.4964 7.7875 20.4875C7.2625 19 6.75 17.5 6.3375 15.8875C5.925 14.275 5.3875 12.75 4.975 11.25C4.625 10 4.25 8.75005 3.85 7.50005C3.7125 6.97505 3.5875 6.45005 3.4875 5.92505C3.825 5.72505 4.1875 5.53755 4.5875 5.33755L5.075 5.13755L5.925 6.25005C6.025 6.38755 6.125 6.58755 6.225 6.75005C6.3045 6.86093 6.40162 6.95805 6.5125 7.03755C6.67975 7.16693 6.88922 7.22932 7.1 7.21255C7.49452 7.19573 7.88725 7.14977 8.275 7.07505C8.66414 7.02722 9.04874 6.94779 9.425 6.83755C10.225 6.58755 11 6.25005 11.8125 6.06255C12.1738 5.98975 12.529 5.88946 12.875 5.76255C13.0762 5.69192 13.2508 5.56097 13.375 5.38755C13.4718 5.20979 13.5314 5.01413 13.55 4.81255C13.55 4.51255 13.55 4.13755 13.6125 3.91255C13.6634 3.54548 13.7386 3.18219 13.8375 2.82505C13.8375 2.65005 13.9375 2.50005 13.9875 2.32505L15.2375 2.10005C15.55 2.10005 15.8 2.37505 16.0375 2.71255C16.4625 3.35094 16.8068 4.03952 17.0625 4.76255C17.0941 4.86356 17.1645 4.9479 17.2583 4.9971C17.352 5.0463 17.4614 5.05635 17.5625 5.02505C17.6616 4.99071 17.744 4.9199 17.7927 4.82701C17.8415 4.73412 17.853 4.62614 17.825 4.52505C17.553 3.56099 17.1312 2.64566 16.575 1.81255C16.4186 1.57797 16.2067 1.38564 15.9581 1.25262C15.7095 1.1196 15.4319 1.05002 15.15 1.05005C14.7 1.05005 14.2125 1.15005 13.725 1.22505H13.625C12.221 1.42627 10.8308 1.71433 9.4625 2.08755C8.34347 2.40103 7.24543 2.78514 6.175 3.23755C5.45555 3.54722 4.7544 3.89779 4.075 4.28755C1.8125 5.60005 0.499998 7.11255 1.15 8.40005C1.1884 8.48459 1.25779 8.55117 1.34385 8.58606C1.4299 8.62095 1.52606 8.62148 1.6125 8.58755ZM6.6125 4.45005C7.6125 4.07505 8.7 3.72505 9.7875 3.40005C10.875 3.07505 11.9125 2.80005 12.925 2.56255C12.7875 2.93755 12.6625 3.32505 12.5625 3.71255C12.375 4.56255 12.5625 4.53755 11.475 4.80005L8.0375 5.80005C6.875 6.11255 7.125 6.11255 6.625 5.61255L5.85 4.75005L6.6125 4.45005Z" fill="black"/>
</g>
<defs>
<clipPath id="clip0_115_5935">
<rect width="30" height="30" fill="white" transform="translate(0.5)"/>
</clipPath>
</defs>
</svg>
