<svg width="31" height="30" viewBox="0 0 31 30" fill="none" xmlns="http://www.w3.org/2000/svg">
<g clip-path="url(#clip0_115_5928)">
<path d="M15.0416 14.55C15.2626 14.7797 15.4963 14.9967 15.7416 15.2C16.1291 15.55 16.5166 15.825 16.8541 16.175C16.9187 16.2591 17.0132 16.3151 17.1179 16.3314C17.2226 16.3477 17.3296 16.323 17.4166 16.2625C17.461 16.2327 17.4988 16.194 17.5275 16.1489C17.5562 16.1038 17.5753 16.0533 17.5835 16.0004C17.5917 15.9476 17.5889 15.8936 17.5752 15.8419C17.5616 15.7902 17.5374 15.7419 17.5041 15.7C17.2757 15.2324 17.0081 14.785 16.7041 14.3625C16.5718 14.1845 16.4255 14.0173 16.2666 13.8625C16.1108 13.7 15.9391 13.5535 15.7541 13.425L15.4291 13.2375C16.258 12.4554 16.8946 11.4921 17.2893 10.4231C17.684 9.35399 17.8259 8.2081 17.7041 7.07503C17.4416 3.55003 15.0541 0.212534 10.8041 0.275034C5.89165 0.437534 3.16665 3.85003 3.05415 7.26253C3.00677 8.60884 3.38295 9.9361 4.12969 11.0573C4.87644 12.1786 5.95612 13.0373 7.21665 13.5125C6.08731 14.1903 5.02429 14.973 4.04165 15.85C3.23055 16.5481 2.51594 17.351 1.91665 18.2375C1.38603 18.9834 1.00798 19.8267 0.804191 20.7191C0.600405 21.6114 0.574902 22.5353 0.729147 23.4375C0.740779 23.4925 0.763528 23.5446 0.795998 23.5905C0.828469 23.6363 0.869975 23.6751 0.917968 23.7044C0.965962 23.7336 1.01943 23.7528 1.07509 23.7606C1.13075 23.7685 1.18743 23.7649 1.24165 23.75C1.3444 23.7316 1.43636 23.675 1.49899 23.5915C1.56163 23.508 1.59027 23.4038 1.57915 23.3C1.51874 21.7217 2.0441 20.1768 3.05415 18.9625C3.6279 18.1834 4.2588 17.4481 4.94165 16.7625C5.95515 15.7296 7.03225 14.761 8.16665 13.8625C8.90959 14.0635 9.67265 14.1809 10.4416 14.2125C10.4886 14.2159 10.5358 14.2098 10.5804 14.1945C10.6249 14.1792 10.666 14.1551 10.701 14.1236C10.736 14.0921 10.7643 14.0538 10.7842 14.0111C10.804 13.9684 10.8151 13.9221 10.8166 13.875C10.8203 13.7829 10.7887 13.6929 10.7284 13.6232C10.668 13.5535 10.5833 13.5095 10.4916 13.5C6.14165 13.1375 4.15415 10.3625 4.24165 7.53753H4.34165C4.94747 7.81818 5.60027 7.9835 6.26665 8.02503C6.54915 8.0558 6.83415 8.0558 7.11665 8.02503C7.39714 7.98352 7.67328 7.91658 7.94165 7.82503C8.589 7.59397 9.17482 7.21768 9.65415 6.72503C9.70866 6.65848 9.73948 6.57568 9.74175 6.48968C9.74401 6.40367 9.71759 6.31936 9.66665 6.25003C9.98771 6.44381 10.3219 6.61506 10.6666 6.76253C11.2698 7.0455 11.903 7.25936 12.5541 7.40003C13.8895 7.65516 15.2578 7.68895 16.6041 7.50003C16.7916 11 14.7791 13.4875 11.9166 13.875C11.8231 13.8988 11.7413 13.9556 11.6864 14.035C11.6314 14.1144 11.607 14.2109 11.6177 14.3069C11.6284 14.4028 11.6734 14.4916 11.7444 14.557C11.8154 14.6224 11.9077 14.6599 12.0041 14.6625C12.8833 14.5948 13.7368 14.3344 14.5041 13.9C14.6666 14.125 14.8416 14.3375 15.0416 14.55ZM9.09165 6.12503C8.70839 6.3529 8.28335 6.50166 7.84165 6.56253C7.62915 6.56253 7.41665 6.56253 7.19165 6.66253L6.21665 6.80003C5.66411 6.89928 5.1028 6.94117 4.54165 6.92503C4.50103 6.90419 4.45604 6.89333 4.4104 6.89333C4.36475 6.89333 4.31976 6.90419 4.27915 6.92503C4.39179 6.10653 4.67192 5.32003 5.10206 4.61461C5.53219 3.90919 6.1031 3.29999 6.77915 2.82503C7.30892 3.91967 8.0577 4.89393 8.97915 5.68753C9.14165 5.82503 9.31665 5.93753 9.49165 6.06253C9.42569 6.03506 9.35343 6.02636 9.28284 6.03739C9.21224 6.04842 9.14608 6.07875 9.09165 6.12503ZM12.8416 6.12503C12.2838 5.96145 11.7403 5.75242 11.2166 5.50003C10.6977 5.24958 10.2002 4.95693 9.72915 4.62503C8.83906 4.01685 8.06446 3.25495 7.44165 2.37503C8.49803 1.86762 9.6573 1.61095 10.8291 1.62503C14.1416 1.51253 16.0541 3.97503 16.5166 6.68753C15.2848 6.69382 14.0589 6.51688 12.8791 6.16253L12.8416 6.12503Z" fill="black"/>
<path d="M11.1541 16.575C11.164 16.5227 11.1622 16.4688 11.1488 16.4172C11.1355 16.3656 11.1109 16.3176 11.0769 16.2766C11.0429 16.2356 11.0002 16.2026 10.952 16.1799C10.9038 16.1573 10.8512 16.1455 10.7979 16.1455C10.7446 16.1455 10.692 16.1573 10.6437 16.1799C10.5955 16.2026 10.5529 16.2356 10.5189 16.2766C10.4848 16.3176 10.4603 16.3656 10.4469 16.4172C10.4336 16.4688 10.4318 16.5227 10.4416 16.575C10.3166 17.2125 10.1791 17.825 10.1041 18.5V19.3375V20.1625C10.1666 20.8125 10.2791 21.4125 10.3666 22.0875C10.3699 22.1981 10.4161 22.303 10.4954 22.38C10.5748 22.457 10.681 22.5001 10.7916 22.5C10.8988 22.4968 11.0006 22.4519 11.0753 22.3749C11.1499 22.2979 11.1917 22.1948 11.1916 22.0875C11.2541 21.4375 11.3416 20.8375 11.3916 20.1625V19.35V18.525C11.3416 17.8375 11.2291 17.2125 11.1541 16.575Z" fill="black"/>
<path d="M29.4166 19.5625C29.6166 19.425 29.7916 19.275 29.8416 19.2375C30.1051 19.0126 30.319 18.7353 30.4696 18.4232C30.6202 18.1112 30.7044 17.7713 30.7166 17.425C30.7573 16.7471 30.5433 16.0784 30.1166 15.55C29.9791 15.3919 29.8286 15.2456 29.6666 15.1125C29.5081 14.9847 29.341 14.8678 29.1666 14.7625C29.0132 14.6659 28.8498 14.5863 28.6791 14.525C28.5054 14.4603 28.3252 14.4142 28.1416 14.3875C27.8495 14.3168 27.5456 14.3091 27.2503 14.3652C26.955 14.4212 26.675 14.5397 26.4291 14.7125C26.1746 14.9445 25.963 15.2195 25.8041 15.525C25.6885 15.753 25.5412 15.9634 25.3666 16.15C25.2585 16.0649 25.1458 15.9856 25.0291 15.9125L23.1666 14.0875C23.0992 14.0234 23.0097 13.9875 22.9166 13.9875C22.8236 13.9875 22.7341 14.0234 22.6666 14.0875C22.6329 14.1347 22.6036 14.185 22.5791 14.2375C22.5155 14.1976 22.4418 14.1764 22.3666 14.1764C22.2915 14.1764 22.2178 14.1976 22.1541 14.2375C21.8666 14.4875 20.8291 15.25 20.2791 15.8125C20.0617 16.0075 19.9018 16.2582 19.8166 16.5375C19.8038 16.6688 19.8346 16.8006 19.9041 16.9125C20.0166 17.1125 20.4041 17.475 20.4791 17.6125C20.6916 17.9927 20.779 18.43 20.7291 18.8625C20.7253 19.0347 20.6642 19.2006 20.5555 19.3341C20.4469 19.4677 20.2969 19.5612 20.1291 19.6C19.9097 19.6371 19.6843 19.6111 19.4791 19.525C19.0911 19.3647 18.7256 19.1546 18.3916 18.9C18.1661 18.7002 17.9235 18.5203 17.6666 18.3625C17.4889 18.2603 17.279 18.229 17.0791 18.275C16.5412 18.4167 16.0399 18.6719 15.6087 19.0233C15.1775 19.3747 14.8264 19.8143 14.5791 20.3125C14.3047 20.8632 14.1975 21.4822 14.2708 22.0931C14.3441 22.7039 14.5947 23.28 14.9916 23.75C16.0596 25.2308 17.2786 26.5965 18.6291 27.825C19.5831 28.6625 20.7035 29.2888 21.9166 29.6625C22.4199 29.7876 22.9518 29.7161 23.4041 29.4625C24.178 29.0046 24.8742 28.4265 25.4666 27.7501C25.7432 27.4399 26.0019 27.1144 26.2416 26.775C26.3438 26.6281 26.391 26.4499 26.375 26.2717C26.359 26.0934 26.2808 25.9265 26.1541 25.8C25.8103 25.5168 25.5257 25.1685 25.3166 24.775C25.2484 24.6551 25.2201 24.5166 25.2358 24.3795C25.2516 24.2424 25.3105 24.1139 25.4041 24.0125C25.5117 23.9169 25.6396 23.8469 25.7782 23.8079C25.9168 23.769 26.0625 23.762 26.2041 23.7875C26.6016 23.8255 26.9879 23.9401 27.3416 24.125C27.4916 24.1875 27.8916 24.5125 28.1041 24.6C28.2368 24.6617 28.3834 24.6876 28.5291 24.675C28.7348 24.6325 28.9224 24.5278 29.0666 24.375C29.2595 24.1569 29.439 23.9274 29.6041 23.6876C30.0618 23.1995 30.3357 22.5677 30.3791 21.9001C30.3413 21.242 30.0813 20.6162 29.6416 20.125C29.6041 20 29.4916 19.775 29.4166 19.5625ZM28.0666 19.8125C28.2783 20.1667 28.5209 20.5013 28.7916 20.8125C29.0612 21.1094 29.224 21.4877 29.2541 21.8875C29.2017 22.2784 29.0111 22.6376 28.7166 22.9L28.3791 23.3125C28.0673 23.009 27.6938 22.776 27.2841 22.6294C26.8743 22.4827 26.4378 22.4258 26.0041 22.4625C25.4396 22.4686 24.9003 22.6978 24.5041 23.1C24.2686 23.3312 24.0992 23.6212 24.0135 23.9399C23.9278 24.2586 23.9289 24.5944 24.0166 24.9125C24.2014 25.4993 24.5276 26.0316 24.9666 26.4625C24.8315 26.5869 24.6896 26.7038 24.5416 26.8126C24.1897 27.227 23.796 27.604 23.3666 27.9375C23.0291 28.2 22.6791 28.4626 22.3541 28.3625C21.3086 28.032 20.3455 27.4823 19.5291 26.75C18.2284 25.6206 17.0434 24.3644 15.9916 23C15.7346 22.7202 15.561 22.3741 15.4903 22.0009C15.4196 21.6276 15.4547 21.2419 15.5916 20.8875C15.7491 20.5576 15.9722 20.2633 16.2473 20.0226C16.5224 19.7819 16.8438 19.5998 17.1916 19.4875C17.802 19.9378 18.4652 20.3115 19.1666 20.6C19.5665 20.7493 20.0018 20.7754 20.4166 20.6751C20.7145 20.6167 20.9897 20.4754 21.2109 20.2676C21.432 20.0597 21.59 19.7937 21.6666 19.5C21.8509 18.7443 21.7343 17.9465 21.3416 17.275C21.2791 17.175 20.9666 16.825 20.8166 16.6625C20.9944 16.469 21.1866 16.2894 21.3916 16.125C21.9166 15.65 22.5416 15.15 22.7666 14.9625C22.826 14.9138 22.8695 14.8486 22.8916 14.775L24.4166 16.4375C24.5919 16.633 24.7798 16.8167 24.9791 16.9875C25.0537 17.0355 25.1405 17.0609 25.2291 17.0609C25.3178 17.0609 25.4046 17.0355 25.4791 16.9875C26.2916 16.525 26.3791 15.7375 26.9166 15.35C27.0768 15.26 27.2536 15.2036 27.4363 15.1842C27.619 15.1649 27.8037 15.183 27.9791 15.2375C28.0961 15.2534 28.2099 15.2871 28.3166 15.3375C28.4297 15.3816 28.5385 15.436 28.6416 15.5L29.0166 15.7875L29.3416 16.125C29.6058 16.4846 29.718 16.9335 29.6541 17.375C29.6491 17.573 29.6006 17.7675 29.5121 17.9446C29.4235 18.1218 29.297 18.2773 29.1416 18.4C28.8688 18.5241 28.5892 18.6326 28.3041 18.725C28.2033 18.7702 28.1138 18.8375 28.0424 18.9218C27.971 19.0062 27.9195 19.1056 27.8916 19.2125C27.8711 19.4206 27.9148 19.63 28.0166 19.8125H28.0666Z" fill="black"/>
</g>
<defs>
<clipPath id="clip0_115_5928">
<rect width="30" height="30" fill="white" transform="translate(0.666626)"/>
</clipPath>
</defs>
</svg>
