<svg width="31" height="30" viewBox="0 0 31 30" fill="none" xmlns="http://www.w3.org/2000/svg">
<path fill-rule="evenodd" clip-rule="evenodd" d="M18.3 11.5C18.2181 11.2372 18.0707 10.9996 17.8717 10.8094C17.6727 10.6191 17.4287 10.4826 17.1625 10.4125C16.41 10.2795 15.64 10.2795 14.8875 10.4125C14.6006 10.4373 14.312 10.4373 14.025 10.4125C13.9396 10.4091 13.8557 10.3885 13.7784 10.352C13.7011 10.3155 13.632 10.2638 13.575 10.2C13.2625 9.7125 13.675 9.3875 14.175 9.1625C14.8409 8.85929 15.5691 8.71794 16.3 8.75C16.3912 8.77744 16.4895 8.76791 16.5737 8.72347C16.6579 8.67903 16.7212 8.60325 16.75 8.5125C16.759 8.4672 16.7585 8.42055 16.7487 8.37543C16.7389 8.33031 16.7199 8.28769 16.693 8.25019C16.666 8.2127 16.6317 8.18113 16.592 8.15745C16.5524 8.13377 16.5083 8.11847 16.4625 8.1125C16.0525 8.02136 15.6312 7.99187 15.2125 8.025C15.2069 7.9919 15.2069 7.9581 15.2125 7.925C15.2251 7.82958 15.2251 7.73292 15.2125 7.6375C15.2314 7.5468 15.2314 7.4532 15.2125 7.3625C15.15 7.125 15.0375 6.9375 14.9625 6.7125C14.9625 6.60641 14.9204 6.50467 14.8454 6.42966C14.7704 6.35464 14.6686 6.3125 14.5625 6.3125C14.4553 6.31575 14.3536 6.36064 14.2789 6.43765C14.2042 6.51466 14.1625 6.61773 14.1625 6.725C14.0811 6.9581 14.0143 7.19606 13.9625 7.4375C13.9563 7.5374 13.9563 7.6376 13.9625 7.7375C13.9496 7.83708 13.9496 7.93792 13.9625 8.0375L14.0375 8.2C13.5819 8.30586 13.1551 8.5107 12.7875 8.8C12.5066 9.03448 12.322 9.36428 12.2689 9.72634C12.2159 10.0884 12.2982 10.4573 12.5 10.7625C12.6273 10.9944 12.8063 11.194 13.023 11.3457C13.2398 11.4974 13.4885 11.5973 13.75 11.6375C14.4811 11.7184 15.2189 11.7184 15.95 11.6375C16.2153 11.5987 16.4848 11.5987 16.75 11.6375C16.8217 11.6529 16.888 11.6871 16.942 11.7365C16.9961 11.786 17.036 11.849 17.0576 11.919C17.0793 11.989 17.0819 12.0636 17.0652 12.1349C17.0484 12.2063 17.013 12.2719 16.9625 12.325C16.7464 12.5528 16.4872 12.7355 16.2 12.8625C15.5681 13.1452 14.8793 13.2778 14.1875 13.25C13.9863 13.2297 13.7909 13.1703 13.6125 13.075C13.4061 12.9693 13.213 12.8392 13.0375 12.6875C12.9965 12.6546 12.9494 12.6302 12.8989 12.6156C12.8484 12.6009 12.7956 12.5964 12.7433 12.6022C12.6911 12.608 12.6405 12.624 12.5945 12.6494C12.5484 12.6747 12.5078 12.7089 12.475 12.75C12.4047 12.8243 12.3655 12.9227 12.3655 13.025C12.3655 13.1273 12.4047 13.2257 12.475 13.3C12.7283 13.532 13.0047 13.7372 13.3 13.9125C13.5203 14.0259 13.7562 14.106 14 14.15C14.2246 14.1703 14.4505 14.1703 14.675 14.15C14.6691 14.2457 14.6691 14.3418 14.675 14.4375C14.6679 14.5332 14.6679 14.6293 14.675 14.725C14.75 14.9625 14.85 15.15 14.9375 15.375C14.9375 15.427 14.9479 15.4784 14.9682 15.5262C14.9884 15.5741 15.0181 15.6174 15.0554 15.6535C15.0927 15.6897 15.1369 15.7179 15.1854 15.7367C15.2339 15.7554 15.2856 15.7642 15.3375 15.7625C15.39 15.7644 15.4423 15.7552 15.491 15.7356C15.5397 15.716 15.5837 15.6864 15.6202 15.6487C15.6567 15.611 15.685 15.566 15.703 15.5167C15.7211 15.4674 15.7286 15.4149 15.725 15.3625C15.8147 15.131 15.8857 14.8928 15.9375 14.65C15.9506 14.5462 15.9506 14.4413 15.9375 14.3375C15.9506 14.2421 15.9506 14.1454 15.9375 14.05C16.5343 13.9278 17.1 13.6854 17.6 13.3375C17.8999 13.1483 18.1303 12.8669 18.2565 12.5355C18.3828 12.2042 18.398 11.8408 18.3 11.5Z" fill="black"/>
<path fill-rule="evenodd" clip-rule="evenodd" d="M6.10005 10.9875C5.48106 9.98473 5.14186 8.83449 5.11769 7.65628C5.09351 6.47808 5.38523 5.31489 5.96255 4.28753C6.21232 3.83626 6.57289 3.45601 7.01028 3.18265C7.44767 2.90928 7.94746 2.75179 8.46255 2.72503C9.60644 2.62941 10.7525 2.88215 11.7501 3.45003C12.4938 3.93444 13.1281 4.56882 13.6126 5.31253C14.1001 5.87503 14.5626 5.75003 14.8626 5.50003C14.9939 5.34689 15.1071 5.17912 15.2001 5.00003C15.5001 4.51253 15.7251 3.75003 16.0126 3.36253C16.5142 2.63416 17.2 2.05186 18.0001 1.67503C18.7792 1.30742 19.6578 1.20639 20.5001 1.38753C21.0456 1.53594 21.5522 1.80194 21.984 2.16688C22.4159 2.53181 22.7627 2.98684 23.0001 3.50003C23.5273 4.55687 23.8093 5.71907 23.8251 6.90003C23.7642 9.20799 23.0347 11.4487 21.7251 13.35C20.4695 15.3045 18.6337 16.8168 16.4751 17.675C16.4263 17.6918 16.3814 17.7182 16.343 17.7525C16.3046 17.7869 16.2734 17.8286 16.2513 17.8751C16.2291 17.9217 16.2165 17.9722 16.2142 18.0237C16.2118 18.0752 16.2198 18.1266 16.2376 18.175C16.2531 18.2249 16.2785 18.2711 16.3123 18.3109C16.3461 18.3507 16.3876 18.3832 16.4343 18.4066C16.481 18.4299 16.5319 18.4436 16.584 18.4468C16.6361 18.4499 16.6884 18.4425 16.7376 18.425C19.089 17.5525 21.1085 15.9658 22.5126 13.8875C23.9477 11.8347 24.7672 9.41496 24.875 6.91253C24.9144 5.26668 24.4806 3.6441 23.6251 2.23753C23.0061 1.22609 22.0286 0.485151 20.8876 0.162533C19.76 -0.123156 18.5685 -0.0128329 17.5126 0.475033C16.4713 0.926036 15.5725 1.65199 14.9126 2.57503C14.6574 3.02467 14.436 3.49262 14.2501 3.97503C13.7457 3.28806 13.108 2.70987 12.3751 2.27503C10.9131 1.45262 9.19627 1.20736 7.56255 1.58753C6.98438 1.7311 6.44444 1.99893 5.98031 2.37239C5.51618 2.74586 5.13901 3.21598 4.87505 3.75003C4.24351 4.95758 3.9432 6.31091 4.00468 7.67224C4.06616 9.03358 4.48724 10.3543 5.22505 11.5C7.28435 14.6024 10.2795 16.967 13.7751 18.25C14.2001 18.45 14.4251 17.9 14.1751 17.6375C10.8438 16.3375 8.01476 14.0077 6.10005 10.9875Z" fill="black"/>
<path fill-rule="evenodd" clip-rule="evenodd" d="M28 20.1624C27.9789 19.8082 27.8276 19.4743 27.575 19.2249C27.4533 19.1434 27.3165 19.0871 27.1727 19.0592C27.0288 19.0313 26.8809 19.0324 26.7375 19.0624C26.0875 19.1624 24.45 19.5499 24.3125 19.5624C22.1684 19.6608 20.1372 20.5517 18.6125 22.0624C17.4233 23.4726 16.7101 25.2226 16.575 27.0624C16.475 26.4374 16.3875 25.8124 16.3 25.0874C16.2125 24.3624 16.0875 23.5624 15.975 22.8249C15.6977 21.3363 15.4974 19.8343 15.375 18.3249C15.3802 18.2796 15.3761 18.2337 15.3631 18.19C15.35 18.1463 15.3282 18.1056 15.299 18.0706C15.2698 18.0355 15.2338 18.0068 15.1931 17.986C15.1525 17.9653 15.108 17.953 15.0625 17.9499C14.0875 17.8499 14.6125 19.5749 14.6125 22.3999C14.6428 22.9868 14.7096 23.5713 14.8125 24.1499C14.9 24.7249 15.0125 25.3124 15.1375 25.8749C15.1319 25.9373 15.1319 26.0001 15.1375 26.0624C14.3731 24.9754 13.4104 24.0424 12.3 23.3124C11.2365 22.6708 10.0021 22.3698 8.76252 22.4499C8.23662 22.4785 7.71614 22.5708 7.21252 22.7249C6.50002 22.9249 5.81252 23.2249 5.13752 23.4749L4.01252 23.8499H3.41252C3.23517 23.9012 3.08351 24.0172 2.98752 24.1749C2.91638 24.2871 2.8786 24.4171 2.8786 24.5499C2.8786 24.6827 2.91638 24.8128 2.98752 24.9249C3.23301 25.2744 3.55327 25.5647 3.92502 25.7749C4.57502 26.1749 5.47502 26.5124 5.90002 26.7624C7.69953 27.9 9.67689 28.7282 11.75 29.2124C13.1919 29.5203 14.6945 29.3582 16.0375 28.7499C16.1729 29.1038 16.3359 29.4465 16.525 29.7749C16.5499 29.8222 16.584 29.8641 16.6254 29.898C16.6667 29.9319 16.7144 29.9572 16.7657 29.9723C16.817 29.9875 16.8708 29.9922 16.9239 29.9862C16.977 29.9802 17.0284 29.9636 17.075 29.9374C17.1673 29.8871 17.236 29.8026 17.2664 29.702C17.2968 29.6014 17.2865 29.4929 17.2375 29.3999C17.1873 29.314 17.1495 29.2214 17.125 29.1249C17.182 29.1578 17.2467 29.1752 17.3125 29.1752C17.3783 29.1752 17.443 29.1578 17.5 29.1249C18.0596 28.7212 18.6799 28.409 19.3375 28.1999C21.0567 27.8413 22.7328 27.3008 24.3375 26.5874C25.2133 26.0569 25.981 25.3656 26.6 24.5499C27.2302 23.7227 27.6814 22.7734 27.925 21.7624C28.0411 21.2373 28.0665 20.6961 28 20.1624ZM15.75 28.0249C14.5543 28.49 13.2428 28.5687 12 28.2499C10.0862 27.6943 8.27817 26.8241 6.65002 25.6749C6.30002 25.4624 5.67502 25.1874 5.10002 24.8749L5.68752 24.6874C6.33752 24.4249 6.93752 24.1374 7.67502 23.9124C8.08027 23.7697 8.49915 23.6692 8.92502 23.6124C9.94416 23.4878 10.9771 23.6752 11.8875 24.1499C13.4453 25.1448 14.7676 26.4672 15.7625 28.0249H15.75ZM26.75 20.7624C26.7266 20.9978 26.689 21.2316 26.6375 21.4624C26.4172 22.2941 26.0302 23.0724 25.5 23.7499C25.0081 24.4653 24.3845 25.0804 23.6625 25.5624C22.1674 26.2992 20.6009 26.8814 18.9875 27.2999C18.2532 27.5705 17.5657 27.9543 16.95 28.4374C16.95 28.4374 16.95 28.5249 16.95 28.5624C16.95 28.5999 16.8875 28.2999 16.85 28.1624C16.9355 28.1661 17.0192 28.1372 17.0842 28.0815C17.1492 28.0258 17.1906 27.9475 17.2 27.8624C17.3354 25.9612 18.1058 24.1606 19.3875 22.7499C20.7864 21.51 22.5932 20.8291 24.4625 20.8374C24.5875 20.8374 25.9375 20.5249 26.725 20.3999C26.7408 20.5201 26.7492 20.6412 26.75 20.7624Z" fill="black"/>
</svg>
