<svg width="31" height="30" viewBox="0 0 31 30" fill="none" xmlns="http://www.w3.org/2000/svg">
<g clip-path="url(#clip0_115_5922)">
<path fill-rule="evenodd" clip-rule="evenodd" d="M20.3334 15.0749C20.3334 14.5874 20.0084 14.4124 19.8709 14.1624C19.5709 13.5874 18.9084 13.0499 19.0959 12.6124C19.3959 11.9499 20.3459 11.8124 21.0584 11.9874C21.5583 12.2184 22.0717 12.4187 22.5959 12.5874C23.0584 12.6624 23.4209 12.1999 23.8459 11.6874C24.4358 11.0305 24.8866 10.2608 25.1709 9.42492C25.1811 9.28038 25.1461 9.13626 25.0709 9.01242C24.3024 8.20443 23.4227 7.50997 22.4584 6.94992C22.4584 6.94992 22.2834 6.77492 22.1584 6.68742C22.5132 6.01799 22.6938 5.27 22.6834 4.51242C22.6249 3.96122 22.4136 3.43732 22.0733 2.9998C21.733 2.56227 21.2772 2.22852 20.7574 2.03618C20.2375 1.84384 19.6743 1.80055 19.1311 1.9112C18.588 2.02185 18.0866 2.28203 17.6834 2.66242C17.0459 3.37492 18.1084 3.74992 18.1959 3.13742L18.5959 2.82492C18.9413 2.63921 19.3301 2.5492 19.722 2.56423C20.1139 2.57926 20.4946 2.69878 20.8248 2.9104C21.155 3.12202 21.4226 3.41806 21.5999 3.76786C21.7773 4.11766 21.8579 4.5085 21.8334 4.89992C21.7301 5.4686 21.5269 6.01451 21.2334 6.51242C20.7459 7.51242 21.8459 7.33742 24.1084 9.46242C23.7248 10.1656 23.2311 10.8029 22.6459 11.3499L21.3959 10.8249C20.7651 10.6011 20.0761 10.6034 19.4468 10.8314C18.8175 11.0594 18.287 11.499 17.9459 12.0749C17.3709 13.3249 18.2959 13.9874 18.7209 14.7999C18.9959 15.3499 19.1584 14.9749 18.7209 15.8249C18.3832 16.4914 17.9633 17.1129 17.4709 17.6749C16.2209 17.2749 9.3459 13.6374 8.5209 12.2499C8.76494 11.3409 9.19011 10.4906 9.7709 9.74992C11.1834 10.4999 12.0334 11.1374 13.3209 10.3999C15.9459 8.87492 15.0959 5.87492 12.1334 5.39992C12.4657 4.63741 12.8851 3.91594 13.3834 3.24992C13.6959 2.91242 14.9584 3.53742 15.3334 3.72492C15.4295 3.77299 15.5408 3.7809 15.6428 3.74691C15.7448 3.71292 15.8291 3.63981 15.8771 3.54367C15.9252 3.44753 15.9331 3.33623 15.8991 3.23426C15.8651 3.13228 15.792 3.04799 15.6959 2.99992C12.9084 1.49992 12.8334 2.29992 11.2959 4.99992C11.0959 5.34992 10.8459 5.73742 11.1334 6.08742C11.4209 6.43742 12.2834 6.34992 12.6084 6.46242C13.4834 6.77492 14.2084 7.63742 13.7584 8.44992C13.4584 8.97492 12.7209 9.62492 12.1084 9.53742C9.6084 8.47492 9.7459 7.66242 8.6084 9.32492C7.93322 10.1822 7.50142 11.2056 7.3584 12.2874C7.3584 14.5249 17.0459 19.0249 17.6709 19.0499C18.7709 19.1124 20.3334 15.7749 20.3334 15.0749Z" fill="black"/>
<path fill-rule="evenodd" clip-rule="evenodd" d="M11.2209 24.4623C10.8209 22.7248 11.5459 18.1123 9.49587 18.1498C7.67087 18.1498 8.02087 19.6373 7.37087 21.3998C7.19587 21.8873 7.22087 21.9373 6.12087 20.9248C5.90952 20.7117 5.721 20.4771 5.55837 20.2248C5.65837 19.7373 5.45837 20.0998 5.83337 16.9748C5.97087 15.8623 5.92087 14.5623 4.93337 14.0373C4.62439 13.8665 4.26817 13.8009 3.91859 13.8505C3.56901 13.9001 3.2451 14.0622 2.99587 14.3123C2.84857 14.1021 2.64486 13.9378 2.40823 13.8382C2.1716 13.7387 1.91166 13.7081 1.65837 13.7498C0.333374 13.8998 0.333374 15.4248 0.333374 16.7123C0.408374 20.1373 3.08337 23.8123 5.63337 26.0998L6.40837 28.0748C6.52087 28.4123 7.24587 28.0123 7.12087 27.6748L6.58337 25.5873C6.58337 25.4248 1.29587 21.2373 1.34587 16.6998C1.34587 16.1873 1.34587 14.7998 1.82087 14.7498C2.54587 14.6748 2.40837 15.3248 3.40837 17.9373C3.76718 18.9181 4.22364 19.8604 4.77087 20.7498C5.32797 21.5658 6.09731 22.2141 6.99587 22.6248C8.55837 22.9123 8.34587 20.3498 8.82087 19.6248C8.93337 19.4373 9.14587 19.3498 9.49587 19.3373C10.7459 19.3373 9.77087 24.7873 10.5959 25.1498C10.8834 25.2873 11.4584 24.8873 11.2709 24.6373C11.2959 24.6123 11.2334 24.5373 11.2209 24.4623ZM3.34587 14.8998C3.4928 14.735 3.69588 14.6309 3.91546 14.6078C4.13504 14.5847 4.35535 14.6442 4.53337 14.7748C5.03337 15.1123 4.92087 16.3373 4.87087 17.0248C4.81295 17.6958 4.83393 18.3713 4.93337 19.0373C4.33045 17.6876 3.80052 16.3065 3.34587 14.8998Z" fill="black"/>
<path fill-rule="evenodd" clip-rule="evenodd" d="M19.3959 24.6374C19.2084 24.8874 19.7834 25.2874 20.0709 25.1499C20.8959 24.7874 19.9584 19.2874 21.1709 19.3374C21.5209 19.3374 21.7334 19.4374 21.8459 19.6249C22.3209 20.3499 22.1084 22.9124 23.6709 22.6249C24.5695 22.2142 25.3388 21.5659 25.8959 20.7499C26.4604 19.8625 26.9337 18.9202 27.3084 17.9374C28.3084 15.3249 28.1709 14.6749 28.8959 14.7499C29.4084 14.7499 29.3709 16.1874 29.3709 16.6999C29.3709 21.2374 24.1959 25.4499 24.1334 25.5874L23.5459 27.6749C23.4209 28.0124 24.1459 28.4124 24.2584 28.0749L25.0334 26.0999C27.5334 23.8124 30.2584 20.1374 30.3334 16.7124C30.3334 15.4624 30.3334 13.8999 29.0084 13.7499C28.7494 13.7006 28.4816 13.7274 28.2375 13.8273C27.9934 13.9271 27.7836 14.0956 27.6334 14.3124C27.3842 14.0623 27.0603 13.9002 26.7107 13.8506C26.3611 13.8009 26.0049 13.8665 25.6959 14.0374C24.7084 14.5624 24.6584 15.8624 24.7959 16.9749C25.1834 20.2249 24.9709 19.7624 25.0709 20.2249C24.9083 20.4772 24.7198 20.7118 24.5084 20.9249C23.4459 21.9374 23.4709 21.8874 23.2584 21.3999C22.6084 19.6374 22.9584 18.1749 21.1334 18.1499C19.0709 18.1499 19.8084 22.7249 19.4084 24.4624C19.4334 24.5374 19.3709 24.6124 19.3959 24.6374ZM25.7334 19.0374C25.8328 18.3713 25.8538 17.6959 25.7959 17.0249C25.7959 16.3374 25.6334 15.1124 26.1334 14.7749C26.3114 14.6443 26.5317 14.5847 26.7513 14.6078C26.9709 14.631 27.174 14.7351 27.3209 14.8999C26.8663 16.3065 26.3363 17.6877 25.7334 19.0374Z" fill="black"/>
</g>
<defs>
<clipPath id="clip0_115_5922">
<rect width="30" height="30" fill="white" transform="translate(0.333374)"/>
</clipPath>
</defs>
</svg>
