<svg width="30" height="30" viewBox="0 0 30 30" fill="none" xmlns="http://www.w3.org/2000/svg">
<g clip-path="url(#clip0_115_5916)">
<path fill-rule="evenodd" clip-rule="evenodd" d="M27.8375 15.85L27.525 15.1C27.4678 14.9724 27.3716 14.8662 27.2504 14.7966C27.1292 14.727 26.989 14.6976 26.85 14.7125C26.45 14.775 26.0375 14.925 25.6 14.9625C25.5032 14.9649 25.4075 14.9405 25.3237 14.892C25.2399 14.8434 25.1711 14.7727 25.125 14.6875C25.0767 14.6038 25.0513 14.509 25.0513 14.4125C25.0513 14.3159 25.0767 14.2211 25.125 14.1375C25.2898 13.8324 25.5054 13.5576 25.7625 13.325C25.8625 13.225 26.15 12.9875 26.3125 12.8C26.4602 12.6432 26.5486 12.4399 26.5625 12.225C26.5748 12.0722 26.5534 11.9186 26.5 11.775C26.5 11.6125 26.2875 11.3875 26.2625 11.2875L25.525 9.77496C25.4019 9.53344 25.2641 9.29967 25.1125 9.07496C24.9898 8.91062 24.8125 8.7954 24.6125 8.74996C24.4519 8.71473 24.2856 8.71473 24.125 8.74996C23.975 8.74996 23.75 8.93746 23.6625 8.97496L22.5 9.52496C22.3875 9.39996 22.275 9.29996 22.25 9.27496C21.9752 8.98215 21.6314 8.76296 21.25 8.63746C20.879 8.51856 20.487 8.48021 20.1 8.52496C19.4365 8.59731 18.827 8.92447 18.4 9.43746C18.1873 9.68508 18.0277 9.97367 17.9309 10.2854C17.8342 10.5972 17.8024 10.9254 17.8375 11.25C17.8657 11.4291 17.9117 11.605 17.975 11.775C18.003 11.8563 18.0364 11.9356 18.075 12.0125L17.6 12.2125L16.85 12.575C16.2 13.1375 16.475 13.7375 17.175 13.4625L17.9625 13.15C18.1875 13.075 18.4875 13.025 18.75 12.9375C18.9038 12.8843 19.0507 12.813 19.1875 12.725C19.2931 12.6322 19.365 12.5071 19.3921 12.3692C19.4192 12.2313 19.4 12.0883 19.3375 11.9625C19.3375 11.8875 19.2 11.7 19.2 11.6875L19.05 11.1375C19.0477 10.8234 19.1637 10.5199 19.375 10.2875C19.6097 10.0926 19.9076 9.99039 20.2125 9.99996C20.3927 9.99505 20.5718 10.0292 20.7375 10.1C20.8829 10.16 21.0115 10.2544 21.1125 10.375C21.1125 10.375 21.375 10.825 21.475 10.975C21.5518 11.1035 21.6595 11.2108 21.7883 11.2872C21.9171 11.3636 22.0629 11.4066 22.2125 11.4125C22.3635 11.3868 22.5079 11.3316 22.6375 11.25L23.0375 11.0125L24.15 10.575L24.8375 11.925L24.9 12.1125L24.6875 12.2625C24.2368 12.7362 23.9141 13.317 23.75 13.95C23.6922 14.2179 23.6959 14.4955 23.7608 14.7618C23.8258 15.0281 23.9503 15.2762 24.125 15.4875C24.2744 15.7049 24.4714 15.8854 24.701 16.0153C24.9306 16.1453 25.1867 16.2212 25.45 16.2375C25.8466 16.2209 26.2384 16.1451 26.6125 16.0125C26.7125 16.1625 26.85 16.3125 26.85 16.325C27.1 16.8125 27.3875 17.3 27.6375 17.7875C27.7 17.925 27.75 18.075 27.8125 18.2125C27.575 18.325 27.35 18.45 27.1 18.55C26.5875 18.7625 26.05 18.8875 25.525 19.0625C25 19.2375 24.45 19.4875 23.9375 19.7L22.0375 20.8625L20.7875 21.475C20.6516 21.5363 20.5456 21.6491 20.4928 21.7886C20.4401 21.9281 20.4449 22.0828 20.5063 22.2187C20.5676 22.3546 20.6804 22.4606 20.8199 22.5134C20.9594 22.5661 21.1141 22.5613 21.25 22.5C22.3783 22.1622 23.4811 21.7445 24.55 21.25C24.9125 21.1 25.2875 20.9625 25.65 20.7875C26.0125 20.6125 26.4 20.4125 26.75 20.2125C27.1213 19.9726 27.4801 19.7139 27.825 19.4375L27.75 20.825C27.75 21.675 27.75 21.9125 26.6875 22.6625C25.9122 23.1327 25.1063 23.5503 24.275 23.9125C23.575 24.2875 22.825 24.6125 22.0875 24.925C21.7 25.1 21.2875 25.2625 20.8375 25.425C20.8375 25.1125 20.95 23.8125 20.3875 23.8125C19.825 23.8125 19.4125 24.125 19.575 25.1625C19.6375 25.575 19.7 25.4375 19.8375 25.8375L16.7125 27.0875C15.5625 27.575 14.5 28.1625 13.3625 28.625C12.8993 28.8168 12.4231 28.9756 11.9375 29.1C11.8132 29.1281 11.7051 29.2045 11.6372 29.3124C11.5692 29.4202 11.5468 29.5506 11.575 29.675C11.6032 29.7993 11.6796 29.9073 11.7874 29.9753C11.8953 30.0433 12.0257 30.0656 12.15 30.0375C12.694 29.923 13.2288 29.7684 13.75 29.575C14.925 29.2 16.0375 28.7 17.2 28.325C18.775 27.775 20.3875 27.3 21.925 26.6875C22.9819 26.2604 24.0091 25.7634 25 25.2C25.8735 24.7415 26.7094 24.2149 27.5 23.625C28.0411 23.1763 28.4693 22.6069 28.75 21.9625C28.8198 21.8319 28.8542 21.6854 28.85 21.5375C28.85 21.2625 28.725 20.875 28.7125 20.6875C28.625 16.8875 29.675 20.0875 27.8375 15.85Z" fill="black"/>
<path fill-rule="evenodd" clip-rule="evenodd" d="M10.5375 28.9749C9.83779 28.6668 9.24898 28.1521 8.85 27.4999C8.20129 26.383 7.64124 25.2169 7.175 24.0124C6.875 23.3624 6.6 22.6999 6.325 22.0374C5.875 21.0374 4.475 17.4999 4.4375 17.3874C4.0875 16.5249 3.675 15.6749 3.3375 14.8124C3.2 14.4624 3.0625 14.1124 2.9375 13.7499C2.8125 13.3874 2.625 12.7249 2.5 12.1999C2.4081 11.8875 2.33299 11.5704 2.275 11.2499C2.19915 10.9743 2.19734 10.6836 2.26977 10.407C2.34219 10.1305 2.48628 9.87797 2.6875 9.67492C2.9125 9.36242 3.1625 9.07492 3.4125 8.78742C3.53063 9.81719 3.7059 10.8396 3.9375 11.8499C4.1875 12.9624 4.6 13.8249 4.9375 14.9499C5.0625 15.3499 5.1 15.5499 5.325 16.1374C5.41131 16.2619 5.53631 16.3544 5.68058 16.4005C5.82485 16.4467 5.98032 16.4438 6.12284 16.3925C6.26536 16.3412 6.38694 16.2443 6.4687 16.1168C6.55047 15.9893 6.58783 15.8383 6.575 15.6874C6.3875 15.1999 6.3375 15.0374 6.1875 14.6749C5.675 13.4249 5.2 12.1749 4.8125 10.9249C4.5875 9.99992 4.3625 9.13742 4.1875 8.24992C4.1875 8.24992 4.1875 8.17492 4.1125 8.12492C5.625 7.57492 7.125 6.87492 8.65 6.33742C9.32303 6.08403 10.012 5.87524 10.7125 5.71242C11.1732 5.48725 11.6546 5.30724 12.15 5.17492C12.275 5.41242 12.4625 5.74992 12.6125 6.09992C12.7555 6.39698 12.8565 6.71251 12.9125 7.03742C12.9125 7.03742 12.9125 7.18742 12.9125 7.03742C12.8289 7.18229 12.7282 7.31659 12.6125 7.43742C12.3263 7.7398 12.09 8.08579 11.9125 8.46242C11.816 8.67877 11.7661 8.91302 11.7661 9.14992C11.7661 9.38683 11.816 9.62107 11.9125 9.83742C12.0855 10.3356 12.4032 10.7708 12.825 11.0874C13.2741 11.407 13.8308 11.5372 14.375 11.4499H14.6125C14.6053 11.4913 14.6053 11.5336 14.6125 11.5749L15.025 12.6124C15.4 13.2624 16.1 12.6749 15.9875 12.1499L15.675 11.1749C15.598 10.9034 15.5062 10.6364 15.4 10.3749C15.3559 10.2747 15.2867 10.1876 15.1991 10.1219C15.1115 10.0563 15.0085 10.0142 14.9 9.99992C14.7807 9.97262 14.6568 9.97262 14.5375 9.99992C14.4375 9.99992 14.075 10.0874 14.0875 10.2124C13.9146 10.193 13.7524 10.1185 13.625 9.99992C13.4493 9.83644 13.32 9.62946 13.25 9.39992C13.2275 9.3509 13.2159 9.2976 13.2159 9.24367C13.2159 9.18974 13.2275 9.13645 13.25 9.08742C13.435 8.8154 13.6534 8.56764 13.9 8.34992C14.1732 8.06088 14.3708 7.70877 14.475 7.32492C14.5206 6.89907 14.456 6.46865 14.2875 6.07492C14.0437 5.42046 13.7425 4.78884 13.3875 4.18742C13.2832 4.02648 13.1342 3.89939 12.9589 3.8217C12.7835 3.74401 12.5893 3.71907 12.4 3.74992C11.6861 3.88308 10.9807 4.05839 10.2875 4.27492C9.55075 4.5146 8.83223 4.80702 8.1375 5.14992C6.55 5.86242 5 6.76242 3.4625 7.49992L3.1875 7.68742C2.775 8.11242 2.325 8.54992 1.9375 9.02492C1.65427 9.3573 1.39922 9.7127 1.175 10.0874C1.1152 10.2171 1.08123 10.3572 1.075 10.4999C1.075 10.7749 1.1375 11.1749 1.1375 11.3374C1.1375 11.7249 1.2125 12.0999 1.2875 12.4874C1.3625 12.8749 1.4875 13.5749 1.6 14.1249C1.7262 14.6768 1.88906 15.2197 2.0875 15.7499C2.3625 16.4999 2.675 17.2499 2.9625 17.9999C3.5 19.3624 4.025 20.7249 4.6125 22.0624C5.025 22.9624 5.475 23.8499 5.95 24.7124C6.51972 25.9398 7.18861 27.1187 7.95 28.2374C8.53462 29.0457 9.36246 29.6458 10.3125 29.9499C10.4019 29.9745 10.4967 29.9709 10.5839 29.9396C10.6712 29.9083 10.7467 29.8508 10.8 29.7749C10.8707 29.8453 10.9633 29.8894 11.0625 29.8999C11.1253 29.905 11.1884 29.8973 11.2481 29.8771C11.3078 29.857 11.3627 29.8249 11.4095 29.7827C11.4563 29.7406 11.4941 29.6893 11.5204 29.6321C11.5467 29.5749 11.561 29.5129 11.5625 29.4499C11.7028 28.8874 11.7989 28.3149 11.85 27.7374C11.5125 27.0874 11.15 26.8749 10.6 27.3499C10.4715 27.8821 10.4503 28.4345 10.5375 28.9749Z" fill="black"/>
<path fill-rule="evenodd" clip-rule="evenodd" d="M14.5125 2.1874L14.8625 2.63739C14.9875 2.77489 15.1125 2.9124 15.25 3.0374C16.5 4.2874 16.5 4.2874 16.825 4.1749C17.3875 3.89989 16.575 2.2749 16.475 2.0999C16.3635 1.89844 16.2247 1.71336 16.0625 1.5499C15.9138 1.38109 15.746 1.23008 15.5625 1.0999C13.925 -0.150105 13.6375 0.274895 13.525 0.449895C13.4125 0.624895 13.475 0.899895 14.5125 2.1874Z" fill="black"/>
<path fill-rule="evenodd" clip-rule="evenodd" d="M19.4125 3.74994C19.55 3.74994 19.8125 3.88744 20.4625 2.49994C20.5289 2.36897 20.5793 2.23047 20.6125 2.08744C20.6125 1.94994 20.6125 1.81244 20.6875 1.67494C20.8125 0.349936 20.8625 0.174936 20.525 0.0249359C20.3875 0.0249359 19.9875 -0.250064 19.275 1.27494C19.1964 1.41626 19.1376 1.56767 19.1 1.72494C19.0528 1.87515 19.0235 2.03038 19.0125 2.18744C19.0125 2.18744 18.95 3.74994 19.4125 3.74994Z" fill="black"/>
<path fill-rule="evenodd" clip-rule="evenodd" d="M24.0375 4.99987C24.225 4.91237 24.4 4.81237 24.575 4.71237L25.1125 4.37487C26.575 3.41237 26.8625 3.34987 26.7 2.89987C26.625 2.71237 26.5125 2.31237 24.45 2.99987C24.2174 3.08171 23.9916 3.18203 23.775 3.29987C23.5584 3.42276 23.3534 3.565 23.1625 3.72487C22.8625 3.99987 21.65 5.27487 22.1 5.69987C22.55 6.12487 22.3875 5.86237 24.0375 4.99987Z" fill="black"/>
<path fill-rule="evenodd" clip-rule="evenodd" d="M20 21.5499L19.2875 19.6999C19.5 19.5749 19.7375 19.4749 19.75 19.4624C20.1747 19.1065 20.5053 18.6514 20.7125 18.1374C20.8685 17.74 20.9075 17.3063 20.825 16.8874C20.7808 16.6335 20.6847 16.3915 20.5427 16.1765C20.4008 15.9614 20.216 15.7779 20 15.6374C19.4481 15.2813 18.7902 15.1268 18.1375 15.1999L17.4125 15.3499L17.25 15.1499L16.4625 13.7499C16.4625 13.7499 16.2375 13.0374 16.025 12.9749C15.425 12.7999 14.2875 13.8624 13.8125 14.1499C13.6275 14.2622 13.4354 14.3625 13.2375 14.4499C13.125 14.4499 12.6125 14.6374 12.4125 14.7374C12.2703 14.8194 12.1601 14.9472 12.1 15.0999C12.0787 15.2114 12.0787 15.3259 12.1 15.4374C12.1 15.6249 12.2625 15.9999 12.2625 16.1499C12.282 16.4667 12.2264 16.7837 12.1 17.0749C12.004 17.3119 11.8268 17.5069 11.6 17.6249C11.5236 17.6676 11.4375 17.69 11.35 17.69C11.2625 17.69 11.1764 17.6676 11.1 17.6249C10.827 17.4713 10.5853 17.2678 10.3875 17.0249C10.1945 16.7861 9.98574 16.5606 9.76249 16.3499C9.55796 16.1906 9.30896 16.0989 9.04999 16.0874C8.87238 16.0978 8.69638 16.1271 8.52499 16.1749C8.07499 16.2749 7.61249 16.5124 7.18749 16.5624H7.02499C6.62499 16.3999 5.54999 17.1249 5.69999 17.5499C5.69999 17.6374 6.94999 20.5249 7.38749 21.5499C7.71249 22.3624 8.03749 23.1624 8.38749 23.9499C8.62542 24.5552 8.92712 25.1335 9.28749 25.6749C9.51194 25.9514 9.77754 26.1917 10.075 26.3874C10.5649 26.6511 11.1073 26.8025 11.6629 26.8306C12.2186 26.8587 12.7735 26.7628 13.2875 26.5499C14.143 26.3154 14.9788 26.0145 15.7875 25.6499C16.563 25.2732 17.3183 24.8559 18.05 24.3999C18.3625 24.2124 18.95 23.9749 19.4 23.6874C19.4 23.7874 20.2625 23.1749 20.3375 22.8749C20.366 22.4088 20.248 21.9455 20 21.5499ZM18.8375 18.3999C18.8375 18.3999 18.275 18.7749 18.0875 18.9249C17.958 19.0175 17.859 19.1467 17.8034 19.2959C17.7477 19.4451 17.7378 19.6076 17.775 19.7624L18.5 21.9999L18.625 22.2249L18.375 22.3624C17.95 22.5999 17.425 22.8124 17.125 22.9749C16.4375 23.3874 15.7375 23.7749 15 24.1249C14.285 24.4672 13.5455 24.7555 12.7875 24.9874C12.4196 25.1132 12.0375 25.193 11.65 25.2249C11.3164 25.2548 10.9808 25.1989 10.675 25.0624C10.4715 24.9535 10.2994 24.7943 10.175 24.5999C9.90262 24.2018 9.66028 23.784 9.44999 23.3499C8.94999 22.4124 8.48749 21.4624 8.03749 20.4999C7.58749 19.5374 7.34999 18.9499 7.01249 18.1624H7.27499C9.57499 17.5624 8.72499 17.6999 9.18749 18.1624C9.60194 18.6207 10.127 18.965 10.7125 19.1624C10.9581 19.2404 11.2173 19.2662 11.4734 19.2383C11.7296 19.2103 11.977 19.1291 12.2 18.9999C12.6164 18.7664 12.9487 18.4078 13.15 17.9749C13.4257 17.4043 13.5299 16.766 13.45 16.1374C13.419 16.0228 13.3635 15.9162 13.2875 15.8249C13.4625 15.7374 13.65 15.5874 13.7 15.5624C13.9321 15.4369 14.1574 15.2992 14.375 15.1499C14.7625 14.8749 15.1375 14.5624 15.5375 14.2874L16.2875 15.7749C16.3589 15.9897 16.4554 16.1953 16.575 16.3874C16.6721 16.5098 16.8094 16.5939 16.9625 16.6249C17.1324 16.6501 17.3051 16.6501 17.475 16.6249C17.725 16.6249 18.0125 16.4999 18.2375 16.4874C18.5462 16.4696 18.8537 16.5389 19.125 16.6874C19.2287 16.7351 19.32 16.8062 19.3916 16.8951C19.4631 16.984 19.5131 17.0884 19.5375 17.1999C19.5651 17.4258 19.5167 17.6545 19.4 17.8499C19.2465 18.0608 19.0609 18.2464 18.85 18.3999H18.8375Z" fill="black"/>
</g>
<defs>
<clipPath id="clip0_115_5916">
<rect width="30" height="30" fill="white"/>
</clipPath>
</defs>
</svg>
