<svg width="22" height="22" viewBox="0 0 22 22" fill="none" xmlns="http://www.w3.org/2000/svg">
<g clip-path="url(#clip0_2015_316)">
<path d="M4.58333 10.175L6.41667 8.34167L11.4583 13.3833L14.6667 10.175L17.4167 12.925V4.58333H4.58333V10.175ZM3.66667 2.75H18.3333C18.5764 2.75 18.8096 2.84658 18.9815 3.01849C19.1534 3.19039 19.25 3.42355 19.25 3.66667V18.3333C19.25 18.5764 19.1534 18.8096 18.9815 18.9815C18.8096 19.1534 18.5764 19.25 18.3333 19.25H3.66667C3.42355 19.25 3.19039 19.1534 3.01849 18.9815C2.84658 18.8096 2.75 18.5764 2.75 18.3333V3.66667C2.75 3.42355 2.84658 3.19039 3.01849 3.01849C3.19039 2.84658 3.42355 2.75 3.66667 2.75ZM14.2083 9.16667C13.8437 9.16667 13.4939 9.0218 13.2361 8.76394C12.9782 8.50608 12.8333 8.15634 12.8333 7.79167C12.8333 7.42699 12.9782 7.07726 13.2361 6.81939C13.4939 6.56153 13.8437 6.41667 14.2083 6.41667C14.573 6.41667 14.9227 6.56153 15.1806 6.81939C15.4385 7.07726 15.5833 7.42699 15.5833 7.79167C15.5833 8.15634 15.4385 8.50608 15.1806 8.76394C14.9227 9.0218 14.573 9.16667 14.2083 9.16667Z" fill="black"/>
</g>
<defs>
<clipPath id="clip0_2015_316">
<rect width="22" height="22" fill="white"/>
</clipPath>
</defs>
</svg>
