<svg width="23" height="22" viewBox="0 0 23 22" fill="none" xmlns="http://www.w3.org/2000/svg">
<path d="M11.5 20.1667C6.43723 20.1667 2.33331 16.0628 2.33331 11C2.33331 5.93729 6.43723 1.83337 11.5 1.83337C16.5627 1.83337 20.6666 5.93729 20.6666 11C20.6666 16.0628 16.5627 20.1667 11.5 20.1667ZM11.5 18.3334C13.4449 18.3334 15.3102 17.5608 16.6854 16.1855C18.0607 14.8102 18.8333 12.945 18.8333 11C18.8333 9.05512 18.0607 7.18986 16.6854 5.81459C15.3102 4.43932 13.4449 3.66671 11.5 3.66671C9.55506 3.66671 7.6898 4.43932 6.31453 5.81459C4.93926 7.18986 4.16665 9.05512 4.16665 11C4.16665 12.945 4.93926 14.8102 6.31453 16.1855C7.6898 17.5608 9.55506 18.3334 11.5 18.3334ZM10.5833 6.41671H12.4166V8.25004H10.5833V6.41671ZM10.5833 10.0834H12.4166V15.5834H10.5833V10.0834Z" fill="black"/>
</svg>
