<svg width="41" height="40" viewBox="0 0 41 40" fill="none" xmlns="http://www.w3.org/2000/svg">
<g clip-path="url(#clip0_115_5721)">
<path fill-rule="evenodd" clip-rule="evenodd" d="M33.35 25.25C33.3417 25.1754 33.3187 25.1031 33.2823 25.0375C33.2459 24.9718 33.1968 24.9141 33.1379 24.8675C33.079 24.821 33.0114 24.7867 32.9391 24.7665C32.8667 24.7463 32.7911 24.7407 32.7166 24.75C32.5691 24.7668 32.4341 24.8408 32.3406 24.9561C32.2471 25.0714 32.2026 25.2189 32.2166 25.3667C33.05 34.2333 28.3666 37.95 22.9333 38.3167C19.2603 38.5048 15.6347 37.4218 12.6666 35.25C11.7045 34.6115 10.8911 33.7735 10.2814 32.7929C9.67175 31.8123 9.2802 30.712 9.13331 29.5667C8.66872 26.1721 9.46962 22.7253 11.3833 19.8833C12.4089 18.5439 13.7394 17.4686 15.2641 16.7468C16.7889 16.025 18.4639 15.6775 20.15 15.7333C28.2333 15.7333 30.7333 19.0667 31.3666 21.9833C31.3804 22.0481 31.407 22.1095 31.4447 22.164C31.4825 22.2184 31.5306 22.2648 31.5865 22.3005C31.6423 22.3361 31.7047 22.3604 31.7699 22.3717C31.8352 22.3831 31.902 22.3814 31.9666 22.3667C32.094 22.3386 32.2053 22.2619 32.2769 22.1529C32.3486 22.044 32.3748 21.9113 32.35 21.7833C32.0129 19.892 30.9853 18.1932 29.4666 17.0167C29.4666 14.9 29.4666 12.7167 29.2833 10.6C29.1666 8.93332 28.9833 7.46666 28.7333 6.01666C28.527 5.0737 28.1233 4.18514 27.5488 3.40951C26.9742 2.63387 26.2419 1.98876 25.4 1.51666C23.836 0.549389 22.0387 0.0251651 20.2 -1.02203e-05C18.2797 -0.14313 16.3805 0.476493 14.9141 1.72449C13.4477 2.97248 12.5324 4.74824 12.3666 6.66666C12.25 7.71666 12.15 9.29999 12.0833 11.1C12.0166 12.9 12 15 11.8833 16.8333C11.1604 17.4061 10.5061 18.0604 9.93331 18.7833C7.70781 21.9668 6.74003 25.8617 7.21664 29.7167C7.38578 31.1311 7.85919 32.4922 8.60434 33.7063C9.34949 34.9204 10.3487 35.9588 11.5333 36.75C14.8749 39.1581 18.9594 40.309 23.0666 40C29.1666 39.3833 34.5333 35.2 33.35 25.25ZM13.4333 11.15C13.6166 9.39999 13.8166 7.81666 13.9833 6.84999C14.1554 5.37349 14.899 4.02317 16.0549 3.0885C17.2108 2.15383 18.6868 1.70922 20.1666 1.84999C21.6789 1.8767 23.1591 2.28979 24.4666 3.04999C25.1068 3.37789 25.6726 3.83424 26.1285 4.39055C26.5845 4.94687 26.9208 5.5912 27.1166 6.28332C27.5044 8.09899 27.7882 9.93531 27.9666 11.7833C28.1166 13.2333 28.2 14.6833 28.2666 16.1333C25.7476 14.8923 22.9748 14.2533 20.1666 14.2667C17.7613 14.1088 15.3653 14.6904 13.3 15.9333C13.4333 14.2333 13.2833 12.7 13.4333 11.15Z" fill="white"/>
<path fill-rule="evenodd" clip-rule="evenodd" d="M21.7166 29.2834C21.2089 29.5884 20.6395 29.7763 20.05 29.8334C19.8037 29.8671 19.5529 29.839 19.3202 29.7517C19.0875 29.6645 18.8801 29.5207 18.7166 29.3334C18.6762 29.2809 18.6257 29.2369 18.5682 29.2038C18.5107 29.1708 18.4472 29.1494 18.3815 29.1409C18.3157 29.1324 18.2489 29.1369 18.1849 29.1542C18.1208 29.1715 18.0608 29.2013 18.0083 29.2418C17.9558 29.2823 17.9117 29.3327 17.8787 29.3902C17.8457 29.4477 17.8243 29.5112 17.8158 29.577C17.8073 29.6427 17.8118 29.7095 17.8291 29.7736C17.8464 29.8376 17.8762 29.8976 17.9166 29.9501C18.1087 30.2306 18.3552 30.4696 18.6415 30.6529C18.9279 30.8362 19.2481 30.9599 19.5833 31.0168C20.4999 31.1469 21.4346 31.0199 22.2833 30.6501C22.8701 30.4392 23.3959 30.0871 23.8144 29.625C24.233 29.1628 24.5314 28.6048 24.6833 28.0001C24.9002 26.8051 24.656 25.5722 24 24.5501C23.7599 24.1708 23.4458 23.844 23.0763 23.5891C22.7069 23.3342 22.2898 23.1565 21.85 23.0668C20.7195 22.8496 19.5491 23.0076 18.5166 23.5168C18.0366 23.6851 17.6014 23.9611 17.2445 24.3237C16.8876 24.6862 16.6184 25.1256 16.4575 25.6082C16.2967 26.0908 16.2484 26.6038 16.3164 27.108C16.3844 27.6122 16.5669 28.0941 16.85 28.5168C16.8787 28.5862 16.9214 28.6489 16.9754 28.7012C17.0293 28.7535 17.0934 28.7941 17.1637 28.8207C17.234 28.8472 17.3089 28.8591 17.384 28.8556C17.459 28.852 17.5325 28.8332 17.6 28.8001C17.7341 28.735 17.8382 28.621 17.8909 28.4815C17.9436 28.342 17.9409 28.1876 17.8833 28.0501C17.6479 27.6086 17.5806 27.0967 17.694 26.6093C17.8074 26.122 18.0938 25.6923 18.5 25.4001C19.2805 24.8849 20.2309 24.6936 21.15 24.8668C21.3904 24.8833 21.6237 24.9551 21.8318 25.0765C22.0399 25.1979 22.2173 25.3657 22.35 25.5668C22.7661 26.1904 22.9599 26.9361 22.9 27.6834C22.8374 28.0226 22.6984 28.343 22.4933 28.6202C22.2882 28.8975 22.0226 29.1243 21.7166 29.2834Z" fill="white"/>
</g>
<defs>
<clipPath id="clip0_115_5721">
<rect width="40" height="40" fill="white" transform="translate(0.333313)"/>
</clipPath>
</defs>
</svg>
