<svg width="22" height="22" viewBox="0 0 22 22" fill="none" xmlns="http://www.w3.org/2000/svg">
<g clip-path="url(#clip0_2003_169)">
<path d="M9.16663 10.0833H3.66663V2.75C3.66663 2.50689 3.7632 2.27373 3.93511 2.10182C4.10702 1.92991 4.34018 1.83333 4.58329 1.83333H17.4166C17.6597 1.83333 17.8929 1.92991 18.0648 2.10182C18.2367 2.27373 18.3333 2.50689 18.3333 2.75V19.25C18.3333 19.4931 18.2367 19.7263 18.0648 19.8982C17.8929 20.0701 17.6597 20.1667 17.4166 20.1667H4.58329C4.34018 20.1667 4.10702 20.0701 3.93511 19.8982C3.7632 19.7263 3.66663 19.4931 3.66663 19.25V11.9167H9.16663V14.6667L13.75 11L9.16663 7.33333V10.0833Z" fill="#1A1A1A"/>
</g>
<defs>
<clipPath id="clip0_2003_169">
<rect width="22" height="22" fill="white"/>
</clipPath>
</defs>
</svg>
