<svg width="252" height="44" viewBox="0 0 252 44" fill="none" xmlns="http://www.w3.org/2000/svg">
<path fill-rule="evenodd" clip-rule="evenodd" d="M14.9155 2.38926L19.0551 0L38.1101 10.9959L33.9705 13.3852L14.9155 2.38926Z" fill="#EB278E"/>
<path fill-rule="evenodd" clip-rule="evenodd" d="M10.7744 4.77891L14.914 2.38965L27.7569 9.8044L23.6173 12.1937L10.7744 4.77891Z" fill="#C40075"/>
<path fill-rule="evenodd" clip-rule="evenodd" d="M6.6333 7.16779L10.7737 4.77808L14.9141 7.16779L10.7737 9.55751L6.6333 7.16779Z" fill="#9E005D"/>
<path fill-rule="evenodd" clip-rule="evenodd" d="M12.8423 13.1436L16.9819 10.749L27.7577 16.9718L23.6181 19.3611L12.8423 13.1436Z" fill="#9E005D"/>
<path fill-rule="evenodd" clip-rule="evenodd" d="M23.6162 14.5829L27.7558 12.1937L31.8953 14.5829L38.1074 10.9963V15.7802L31.8953 19.3614L23.6162 14.5829Z" fill="#C40075"/>
<path fill-rule="evenodd" clip-rule="evenodd" d="M38.1116 28.2202V32.9987L19.0566 44V39.2215L38.1116 28.2202Z" fill="#EB278E"/>
<path fill-rule="evenodd" clip-rule="evenodd" d="M38.1096 23.4417V28.2206L25.2603 35.636V30.857L38.1096 23.4417Z" fill="#C40075"/>
<path fill-rule="evenodd" clip-rule="evenodd" d="M38.1125 18.6577V23.4424L33.9722 25.8321V21.0528L38.1125 18.6577Z" fill="#9E005D"/>
<path fill-rule="evenodd" clip-rule="evenodd" d="M29.8332 21.0522V25.8311L19.0566 32.0489V27.2701L29.8332 21.0522Z" fill="#9E005D"/>
<path fill-rule="evenodd" clip-rule="evenodd" d="M23.1947 29.6589V34.4428L19.0551 36.8321V43.9998L14.9155 41.6106V34.4428L23.1947 29.6589Z" fill="#C40075"/>
<path fill-rule="evenodd" clip-rule="evenodd" d="M4.13959 35.3882L0 32.999V10.9963L4.13959 13.3856V35.3882Z" fill="#EB278E"/>
<path fill-rule="evenodd" clip-rule="evenodd" d="M8.2807 37.7771L4.14111 35.3878V20.5583L8.2807 22.9476V37.7771Z" fill="#C40075"/>
<path fill-rule="evenodd" clip-rule="evenodd" d="M12.422 40.1676L8.28169 37.7779V32.9985L12.422 35.3882V40.1676Z" fill="#9E005D"/>
<path fill-rule="evenodd" clip-rule="evenodd" d="M14.4843 31.8068L10.3447 29.4122V16.9719L14.4843 19.3612V31.8068Z" fill="#9E005D"/>
<path fill-rule="evenodd" clip-rule="evenodd" d="M10.3463 21.7503L6.21207 19.361V14.5825L0 10.9959L4.13959 8.60669L10.3463 12.1933V21.7503Z" fill="#C40075"/>
<path d="M46.3625 29.2136V13.8472H49.7504V19.5384H56.9987V13.8472H60.3866V29.2136H56.9987V22.3894H49.7504V29.2136H46.3625Z" fill="#EB278E"/>
<path d="M78.4806 13.8472L72.3867 22.2015V29.2136H68.9987V22.2015L62.8833 13.8472H67.0712L70.8135 19.1894L74.5289 13.8472H78.4806Z" fill="#EB278E"/>
<path d="M81 29.2136V13.8472H89.5154C91.706 13.8472 93.1396 14.4807 94.1275 15.517C94.9275 16.3653 95.4 17.4713 95.4 18.6955C95.4 20.6713 94.1758 22.2015 92.2966 23.023L95.894 29.2136H92.0336L88.9302 23.5653H84.3665V29.2136H81ZM84.3665 16.6982V20.7196H89.8698C91.0456 20.7196 92.0121 19.8713 92.0121 18.6955C92.0121 18.18 91.8242 17.7076 91.4698 17.3532C90.9275 16.7626 90.2456 16.6928 89.6336 16.6928H84.3611L84.3665 16.6982Z" fill="#EB278E"/>
<path d="M104.346 13.8472H107.24L114.37 29.2136H110.676L109.264 25.9653H102.16L100.77 29.2136H97.2154L104.346 13.8472ZM103.309 23.3022H108.109L105.779 17.8686H105.64L103.309 23.3022Z" fill="#EB278E"/>
<path d="M136.51 13.8472V29.2136H133.594L125.782 19.7102H125.761V29.2136H122.373V13.8472H125.267L133.101 23.3773H133.122V13.8472H136.51Z" fill="#0E97B2"/>
<path d="M150.391 22.6471H144.721V26.3196H154.697V29.2136H141.355V13.8472H154.155V16.7626H144.721V19.7532H150.391V22.6471Z" fill="#0E97B2"/>
<path d="M156.271 13.8472H170.762V16.7626H165.211V29.2082H161.844V16.7626H156.266V13.8472H156.271Z" fill="#0E97B2"/>
<path d="M175.734 13.8472L178.676 23.9411H178.816L181.968 13.8472H184.437L187.568 23.9411H187.707L190.671 13.8472H194.198L189.28 29.2136H186.08L183.186 20.0861H183.047L180.174 29.2136H176.974L172.056 13.8472H175.729H175.734Z" fill="#0E97B2"/>
<path d="M204.489 13.8472C209.359 13.8472 213.267 17.4928 213.267 21.9653C213.267 26.4377 209.364 30.1532 204.489 30.1532C199.614 30.1532 195.807 26.529 195.807 21.9653C195.807 17.4015 199.619 13.8472 204.489 13.8472ZM204.489 27.2592C207.431 27.2592 209.735 24.8592 209.735 21.9653C209.735 19.0713 207.431 16.768 204.489 16.768C201.547 16.768 199.335 19.1196 199.335 21.9653C199.335 24.8109 201.595 27.2592 204.489 27.2592Z" fill="#0E97B2"/>
<path d="M216.77 29.2136V13.8472H225.285C227.476 13.8472 228.91 14.4807 229.897 15.517C230.697 16.3653 231.17 17.4713 231.17 18.6955C231.17 20.6713 229.946 22.2015 228.067 23.023L231.664 29.2136H227.804L224.7 23.5653H220.136V29.2136H216.77ZM220.136 16.6982V20.7196H225.64C226.816 20.7196 227.782 19.8713 227.782 18.6955C227.782 18.18 227.594 17.7076 227.24 17.3532C226.697 16.7626 226.016 16.6928 225.404 16.6928H220.131L220.136 16.6982Z" fill="#0E97B2"/>
<path d="M238.517 20.5371L245.55 13.8525H249.787L243.387 19.8498L250.941 29.2136H246.683L240.992 22.0619L238.522 24.3921V29.2136H235.134V13.8472H238.522V20.5317L238.517 20.5371Z" fill="#0E97B2"/>
</svg>
