<svg width="183" height="32" viewBox="0 0 183 32" fill="none" xmlns="http://www.w3.org/2000/svg">
<path fill-rule="evenodd" clip-rule="evenodd" d="M10.8477 1.73755L13.8583 -9.15527e-05L27.7165 7.99698L24.7059 9.73462L10.8477 1.73755Z" fill="#EB278E"/>
<path fill-rule="evenodd" clip-rule="evenodd" d="M7.83594 3.47535L10.8466 1.7377L20.1869 7.13026L17.1763 8.8679L7.83594 3.47535Z" fill="#C40075"/>
<path fill-rule="evenodd" clip-rule="evenodd" d="M4.82422 5.21265L7.83483 3.47501L10.8455 5.21265L7.83483 6.95029L4.82422 5.21265Z" fill="#9E005D"/>
<path fill-rule="evenodd" clip-rule="evenodd" d="M9.33984 9.55884L12.3505 7.81729L20.1874 12.343L17.1768 14.0806L9.33984 9.55884Z" fill="#9E005D"/>
<path fill-rule="evenodd" clip-rule="evenodd" d="M17.1758 10.6054L20.1864 8.86775L23.197 10.6054L27.7149 7.99698V11.4762L23.197 14.0807L17.1758 10.6054Z" fill="#C40075"/>
<path fill-rule="evenodd" clip-rule="evenodd" d="M27.7176 20.5238V23.9991L13.8594 32.0001V28.5248L27.7176 20.5238Z" fill="#EB278E"/>
<path fill-rule="evenodd" clip-rule="evenodd" d="M27.7153 17.0482V20.5235L18.3711 25.9161V22.4408L27.7153 17.0482Z" fill="#C40075"/>
<path fill-rule="evenodd" clip-rule="evenodd" d="M27.7176 13.5692V17.0484L24.707 18.7861V15.3108L27.7176 13.5692Z" fill="#9E005D"/>
<path fill-rule="evenodd" clip-rule="evenodd" d="M21.6963 15.3105V18.7857L13.8594 23.3075V19.8322L21.6963 15.3105Z" fill="#9E005D"/>
<path fill-rule="evenodd" clip-rule="evenodd" d="M16.8689 21.5702V25.0494L13.8583 26.7871V32L10.8477 30.2623V25.0494L16.8689 21.5702Z" fill="#C40075"/>
<path fill-rule="evenodd" clip-rule="evenodd" d="M3.01062 25.7366L0 23.9989V7.99698L3.01062 9.73463V25.7366Z" fill="#EB278E"/>
<path fill-rule="evenodd" clip-rule="evenodd" d="M6.02234 27.4743L3.01172 25.7367V14.9516L6.02234 16.6892V27.4743Z" fill="#C40075"/>
<path fill-rule="evenodd" clip-rule="evenodd" d="M9.03405 29.2119L6.02344 27.4742V23.9989L9.03405 25.7366V29.2119Z" fill="#9E005D"/>
<path fill-rule="evenodd" clip-rule="evenodd" d="M10.5341 23.1322L7.52344 21.3906V12.3432L10.5341 14.0808V23.1322Z" fill="#9E005D"/>
<path fill-rule="evenodd" clip-rule="evenodd" d="M7.52459 15.8182L4.51788 14.0805V10.6052L0 7.99683L3.01062 6.25919L7.52459 8.86761V15.8182Z" fill="#C40075"/>
<path d="M33.7177 21.2461V10.0705H36.1816V14.2096H41.4531V10.0705H43.917V21.2461H41.4531V16.2831H36.1816V21.2461H33.7177Z" fill="#EB278E"/>
<path d="M57.0768 10.0705L52.6448 16.1464V21.2461H50.1809V16.1464L45.7333 10.0705H48.779L51.5007 13.9558L54.2028 10.0705H57.0768Z" fill="#EB278E"/>
<path d="M58.9091 21.2461V10.0705H65.1021C66.6953 10.0705 67.7379 10.5313 68.4563 11.2849C69.0382 11.9019 69.3818 12.7063 69.3818 13.5966C69.3818 15.0336 68.4915 16.1464 67.1248 16.7439L69.741 21.2461H66.9335L64.6765 17.1383H61.3574V21.2461H58.9091ZM61.3574 12.144V15.0687H65.3598C66.215 15.0687 66.9178 14.4517 66.9178 13.5966C66.9178 13.2217 66.7812 12.8781 66.5235 12.6204C66.1291 12.1909 65.6332 12.1401 65.188 12.1401H61.3535L61.3574 12.144Z" fill="#EB278E"/>
<path d="M75.8876 10.0705H77.9923L83.1779 21.2461H80.4914L79.4644 18.8837H74.2984L73.287 21.2461H70.702L75.8876 10.0705ZM75.134 16.9469H78.6249L76.9302 12.9952H76.8287L75.134 16.9469Z" fill="#EB278E"/>
<path d="M99.2803 10.0705V21.2461H97.16L91.4785 14.3346H91.4628V21.2461H88.9989V10.0705H91.1036L96.8007 17.0016H96.8163V10.0705H99.2803Z" fill="#0E97B2"/>
<path d="M109.375 16.4705H105.252V19.1414H112.507V21.2461H102.804V10.0705H112.113V12.1909H105.252V14.3658H109.375V16.4705Z" fill="#0E97B2"/>
<path d="M113.651 10.0705H124.19V12.1909H120.153V21.2422H117.704V12.1909H113.647V10.0705H113.651Z" fill="#0E97B2"/>
<path d="M127.807 10.0705L129.946 17.4116H130.048L132.34 10.0705H134.136L136.413 17.4116H136.514L138.67 10.0705H141.235L137.658 21.2461H135.331L133.226 14.6079H133.125L131.036 21.2461H128.709L125.132 10.0705H127.803H127.807Z" fill="#0E97B2"/>
<path d="M148.719 10.0705C152.261 10.0705 155.104 12.7219 155.104 15.9746C155.104 19.2273 152.265 21.9295 148.719 21.9295C145.174 21.9295 142.405 19.2937 142.405 15.9746C142.405 12.6555 145.178 10.0705 148.719 10.0705ZM148.719 19.8248C150.859 19.8248 152.534 18.0793 152.534 15.9746C152.534 13.8699 150.859 12.1948 148.719 12.1948C146.579 12.1948 144.971 13.9051 144.971 15.9746C144.971 18.0442 146.615 19.8248 148.719 19.8248Z" fill="#0E97B2"/>
<path d="M157.651 21.2461V10.0705H163.844C165.437 10.0705 166.48 10.5313 167.199 11.2849C167.78 11.9019 168.124 12.7063 168.124 13.5966C168.124 15.0336 167.234 16.1464 165.867 16.7439L168.483 21.2461H165.676L163.419 17.1383H160.1V21.2461H157.651ZM160.1 12.144V15.0687H164.102C164.957 15.0687 165.66 14.4517 165.66 13.5966C165.66 13.2217 165.523 12.8781 165.266 12.6204C164.871 12.1909 164.375 12.1401 163.93 12.1401H160.096L160.1 12.144Z" fill="#0E97B2"/>
<path d="M173.467 14.9359L178.582 10.0744H181.663L177.008 14.4361L182.503 21.2461H179.406L175.267 16.0449L173.471 17.7396V21.2461H171.007V10.0705H173.471V14.932L173.467 14.9359Z" fill="#0E97B2"/>
</svg>
