<svg width="40" height="40" viewBox="0 0 40 40" fill="none" xmlns="http://www.w3.org/2000/svg">
<g clip-path="url(#clip0_332_3544)">
<path fill-rule="evenodd" clip-rule="evenodd" d="M8.03333 10.4001C8.33629 10.4608 8.64228 10.5053 8.94999 10.5334C8.96429 10.6335 9.00857 10.7268 9.077 10.8012C9.14543 10.8756 9.2348 10.9275 9.33333 10.9501C10.023 11.1074 10.6819 11.3777 11.2833 11.7501C11.841 12.093 12.2644 12.6165 12.4833 13.2334C12.5477 13.4219 12.5869 13.618 12.6 13.8167V14.8834V15.6667C12.5949 15.842 12.6501 16.0136 12.7562 16.1531C12.8623 16.2926 13.0131 16.3916 13.1833 16.4334C13.2831 16.4578 13.3868 16.4613 13.4881 16.444C13.5893 16.4266 13.6859 16.3886 13.7718 16.3323C13.8578 16.2761 13.9313 16.2027 13.9877 16.1169C14.0442 16.0311 14.0824 15.9346 14.1 15.8334V14.8667C14.2016 14.5323 14.3356 14.2085 14.5 13.9001C14.6376 13.6059 14.8052 13.3266 15 13.0667C15.2854 12.736 15.6232 12.4545 16 12.2334C16.4136 11.9849 16.8422 11.7622 17.2833 11.5667C17.5333 11.4501 18.1333 11.3001 18.4833 11.1001C18.7019 10.9992 18.8912 10.8444 19.0333 10.6501C19.1663 10.488 19.2304 10.2801 19.2117 10.0713C19.193 9.86245 19.093 9.6693 18.9333 9.53341C18.7714 9.37603 18.5587 9.2815 18.3333 9.26674C18.0725 9.28371 17.8108 9.28371 17.55 9.26674L16.6667 9.03341C16.3842 8.93536 16.1109 8.81267 15.85 8.66674C15.2706 8.43299 14.7925 8.00208 14.5 7.45008C14.2079 6.78552 14.0061 6.08485 13.9 5.36674C13.8595 5.17092 13.7537 4.99465 13.6 4.86674C13.4167 4.75008 12.6167 4.51674 12.5 5.35008V6.38341C12.4711 6.69454 12.4097 7.00177 12.3167 7.30008C12.2493 7.59389 12.1486 7.87906 12.0167 8.15008C11.8649 8.46401 11.6482 8.7422 11.3811 8.96629C11.1139 9.19037 10.8022 9.35526 10.4667 9.45008C9.71074 9.64829 8.922 9.68801 8.14999 9.56674C8.09527 9.55908 8.03958 9.56227 7.9861 9.57614C7.93262 9.59 7.88239 9.61426 7.83828 9.64753C7.79417 9.68081 7.75705 9.72244 7.72903 9.77007C7.70102 9.81769 7.68265 9.87036 7.67499 9.92508C7.66733 9.97979 7.67052 10.0355 7.68439 10.089C7.69825 10.1425 7.72251 10.1927 7.75578 10.2368C7.78906 10.2809 7.83069 10.318 7.87832 10.346C7.92594 10.3741 7.97861 10.3924 8.03333 10.4001ZM11.2833 10.2334C12.0273 9.94156 12.6462 9.39929 13.0333 8.70008L13.3333 8.33341L13.5333 8.68341C13.9516 9.31334 14.5258 9.82433 15.2 10.1667C15.4361 10.3001 15.6811 10.417 15.9333 10.5167C15.5626 10.7075 15.2061 10.9247 14.8667 11.1667C14.4701 11.4548 14.1214 11.8035 13.8333 12.2001C13.7184 12.3336 13.6179 12.4789 13.5333 12.6334C13.2448 12.0675 12.8282 11.5767 12.3167 11.2001C11.8777 10.882 11.3949 10.6294 10.8833 10.4501L11.2833 10.2334Z" fill="black"/>
<path fill-rule="evenodd" clip-rule="evenodd" d="M35.25 22.7C35.25 19.9667 34.9833 17.55 34.9167 16.3667C34.9122 16.3034 34.8934 16.242 34.8616 16.1872C34.8298 16.1323 34.786 16.0854 34.7333 16.05C34.6585 15.723 34.5039 15.4195 34.2833 15.1667C33.9764 14.8539 33.6149 14.5997 33.2167 14.4167C32.6884 14.1663 32.1272 13.9924 31.55 13.9C31.4874 13.8882 31.423 13.8892 31.3609 13.9032C31.2987 13.9171 31.24 13.9436 31.1885 13.9811C31.137 14.0186 31.0937 14.0662 31.0612 14.1211C31.0288 14.1759 31.008 14.2368 31 14.3C30.988 14.3614 30.9885 14.4246 31.0014 14.4858C31.0143 14.5469 31.0394 14.6049 31.0752 14.6562C31.1109 14.7075 31.1566 14.7511 31.2096 14.7844C31.2625 14.8177 31.3216 14.84 31.3833 14.85C31.7929 14.9334 32.1905 15.0678 32.5667 15.25C32.9181 15.4012 33.2313 15.6289 33.4833 15.9167C33.5632 16.0257 33.6192 16.1503 33.6479 16.2824C33.6766 16.4144 33.6774 16.551 33.65 16.6834C33.6407 16.8079 33.6047 16.929 33.5443 17.0383C33.4838 17.1476 33.4005 17.2426 33.3 17.3167C32.6278 17.7268 31.8683 17.9723 31.0833 18.0334C29.8285 18.2118 28.5548 18.2118 27.3 18.0334C27.0578 18.0009 26.8182 17.9508 26.5833 17.8834C26.3449 17.8149 26.1111 17.7314 25.8833 17.6334L25 17.15C24.8726 17.0765 24.7612 16.9781 24.6724 16.8607C24.5837 16.7434 24.5194 16.6094 24.4833 16.4667C24.4954 16.2918 24.5484 16.1222 24.6382 15.9717C24.728 15.8211 24.8519 15.6938 25 15.6C25.6279 15.1152 26.3482 14.7636 27.1167 14.5667C27.8886 14.3342 28.7016 14.2717 29.5 14.3834C29.5536 14.3943 29.6089 14.3946 29.6626 14.3842C29.7163 14.3738 29.7675 14.3529 29.8131 14.3227C29.8588 14.2925 29.8981 14.2536 29.9287 14.2083C29.9593 14.1629 29.9807 14.112 29.9917 14.0584C30.0026 14.0047 30.0029 13.9495 29.9925 13.8958C29.9821 13.842 29.9612 13.7909 29.931 13.7452C29.9008 13.6996 29.8619 13.6603 29.8166 13.6297C29.7712 13.599 29.7203 13.5776 29.6667 13.5667C28.7507 13.3575 27.7993 13.3575 26.8833 13.5667C25.9495 13.728 25.0555 14.0675 24.25 14.5667C23.9142 14.762 23.63 15.0349 23.4212 15.3626C23.2124 15.6902 23.0851 16.0631 23.05 16.45C23.0226 17.0182 23.2066 17.5763 23.5667 18.0167C23.35 19.4834 23.15 21.35 23.05 23.3334C23.05 24.25 23.05 25.1834 22.95 26.1334C22.85 27.0834 22.95 28.0167 22.95 28.9334C22.95 29.85 22.95 30.6 23.0667 31.4667C22.9815 31.4104 22.8923 31.3603 22.8 31.3167C22.2717 31.0664 21.7106 30.8924 21.1333 30.8C21.0114 30.787 20.8891 30.8207 20.7912 30.8944C20.6932 30.9681 20.6269 31.0763 20.6057 31.1971C20.5845 31.3178 20.61 31.4421 20.6771 31.5448C20.7441 31.6475 20.8476 31.7208 20.9667 31.75C21.3763 31.8334 21.7738 31.9678 22.15 32.15C22.504 32.305 22.8219 32.5321 23.0833 32.8167C23.1515 32.9168 23.197 33.0306 23.2167 33.15V33.25C23.2167 33.5 23.1 33.75 23.05 34.0167L22.8667 34.2167C22.2011 34.6278 21.4467 34.8735 20.6667 34.9334C19.4063 35.1119 18.127 35.1119 16.8667 34.9334C16.6167 34.9334 16.3833 34.8334 16.15 34.7834C15.9162 34.7176 15.6877 34.634 15.4667 34.5334L14.5667 34.1167C14.4186 34.0402 14.2913 33.9289 14.1955 33.7925C14.0997 33.6561 14.0384 33.4986 14.0167 33.3334C14.03 33.1565 14.0835 32.9851 14.173 32.832C14.2625 32.679 14.3857 32.5483 14.5333 32.45C15.1733 31.9747 15.897 31.6242 16.6667 31.4167C17.4355 31.1977 18.2414 31.1409 19.0333 31.25C19.087 31.2623 19.1425 31.2639 19.1967 31.2546C19.251 31.2453 19.3028 31.2253 19.3493 31.1959C19.3958 31.1665 19.436 31.1281 19.4676 31.083C19.4992 31.038 19.5215 30.9871 19.5333 30.9334C19.5585 30.8229 19.5395 30.707 19.4803 30.6105C19.4211 30.5139 19.3265 30.4444 19.2167 30.4167C18.2932 30.2244 17.3401 30.2244 16.4167 30.4167C15.4839 30.5912 14.5913 30.9358 13.7833 31.4334C13.4475 31.6287 13.1633 31.9016 12.9545 32.2292C12.7458 32.5569 12.6185 32.9298 12.5833 33.3167C12.572 33.6361 12.6288 33.9543 12.75 34.25C12.75 34.5167 12.65 34.7667 12.6167 35.0334C12.6002 35.2775 12.6002 35.5225 12.6167 35.7667C12.5985 36.0164 12.5985 36.267 12.6167 36.5167C12.6757 36.957 12.7704 37.3918 12.9 37.8167C12.8237 37.8946 12.7809 37.9993 12.7809 38.1084C12.7809 38.2174 12.8237 38.3221 12.9 38.4C13.2969 38.7527 13.7398 39.0499 14.2167 39.2834C14.6757 39.5036 15.149 39.6929 15.6333 39.85C16.1784 40.0082 16.736 40.1198 17.3 40.1834C17.8542 40.2372 18.4124 40.2372 18.9667 40.1834C20.1357 40.044 21.2672 39.6819 22.3 39.1167C22.3593 39.0932 22.4132 39.0578 22.4583 39.0126C22.5034 38.9675 22.5388 38.9135 22.5622 38.8542C22.5856 38.7948 22.5966 38.7313 22.5945 38.6675C22.5924 38.6037 22.5773 38.5411 22.55 38.4834C22.5265 38.424 22.4911 38.3702 22.4459 38.3251C22.4008 38.28 22.3468 38.2446 22.2875 38.2212C22.2281 38.1977 22.1646 38.1867 22.1008 38.1888C22.037 38.1909 21.9744 38.2061 21.9167 38.2334C21.1508 38.4835 20.3548 38.6292 19.55 38.6667C18.9507 38.7083 18.3493 38.7083 17.75 38.6667C17.1474 38.6435 16.5466 38.5879 15.95 38.5C15.4145 38.4557 14.8843 38.3608 14.3667 38.2167L13.9333 38.0334C13.9333 37.5167 14.0333 37.0167 14.0667 36.5V35.8334L14.7 36.1167C14.9793 36.2468 15.2693 36.3527 15.5667 36.4334L16.4833 36.6334C17.9023 36.8571 19.3477 36.8571 20.7667 36.6334C21.481 36.512 22.1724 36.2816 22.8167 35.95C22.8084 36.0332 22.8084 36.1169 22.8167 36.2C22.9167 36.75 23.05 37.2834 23.1667 37.8667C23.1709 37.9302 23.1876 37.9923 23.2159 38.0493C23.2442 38.1064 23.2835 38.1572 23.3315 38.1991C23.3795 38.2409 23.4353 38.2728 23.4957 38.293C23.5561 38.3132 23.6198 38.3212 23.6833 38.3167C23.7461 38.3146 23.8078 38.2999 23.8648 38.2734C23.9217 38.2469 23.9727 38.2092 24.0147 38.1625C24.0568 38.1158 24.0889 38.0611 24.1093 38.0017C24.1297 37.9423 24.1379 37.8793 24.1333 37.8167C24.1333 37.3834 24.2333 36.9834 24.3 36.5667C25.1402 37.0582 26.0507 37.418 27 37.6334C27.5464 37.7615 28.1054 37.8286 28.6667 37.8334C29.2252 37.8433 29.7834 37.7986 30.3333 37.7C31.6702 37.481 32.9538 37.0117 34.1167 36.3167C34.1731 36.29 34.2236 36.2523 34.2652 36.2058C34.3068 36.1593 34.3386 36.1049 34.3588 36.0458C34.379 35.9868 34.3872 35.9243 34.3828 35.862C34.3784 35.7998 34.3616 35.739 34.3333 35.6834C34.3068 35.6247 34.2685 35.5722 34.2207 35.5291C34.1729 35.486 34.1167 35.4533 34.0557 35.4329C33.9947 35.4126 33.9301 35.4051 33.866 35.4109C33.8019 35.4167 33.7397 35.4357 33.6833 35.4667C32.5554 35.8892 31.3694 36.1365 30.1667 36.2H28.6333C28.1333 36.2 27.6167 36.2 27.1167 36.0834C26.1374 35.9993 25.1735 35.7864 24.25 35.45V34.7834C24.1346 33.9596 24.1346 33.1238 24.25 32.3C25.0987 32.79 26.0137 33.1549 26.9667 33.3834C28.1115 33.6055 29.2885 33.6055 30.4333 33.3834C31.5961 33.1792 32.7204 32.7969 33.7667 32.25C33.7667 33.3 33.7667 34.1667 33.85 34.7334C33.8369 34.8032 33.8393 34.875 33.8571 34.9438C33.8749 35.0126 33.9076 35.0766 33.953 35.1313C33.9983 35.186 34.0552 35.23 34.1195 35.2602C34.1838 35.2904 34.254 35.3061 34.325 35.3061C34.396 35.3061 34.4662 35.2904 34.5305 35.2602C34.5948 35.23 34.6517 35.186 34.697 35.1313C34.7424 35.0766 34.7751 35.0126 34.7929 34.9438C34.8107 34.875 34.8131 34.8032 34.8 34.7334C34.8833 33.5667 35.05 31.15 35.1667 28.4167V25.7C35.1667 24.7834 35.2833 23.5834 35.25 22.7ZM24.4667 26.0334V23.25C24.4584 23.1057 24.4584 22.961 24.4667 22.8167C25.2669 23.2612 26.1252 23.5921 27.0167 23.8C27.5631 23.9282 28.1221 23.9952 28.6833 24C29.2419 24.0099 29.8001 23.9653 30.35 23.8667C31.4646 23.6757 32.5437 23.316 33.55 22.8V25.4167V26.1834C32.4774 26.5671 31.3544 26.7917 30.2167 26.85H28.6833C28.1833 26.85 27.6667 26.85 27.1667 26.75C26.2056 26.6636 25.2592 26.4564 24.35 26.1334L24.4667 26.0334ZM25.2 19.0834C25.4826 19.2007 25.772 19.3009 26.0667 19.3834C26.3685 19.4659 26.6745 19.5327 26.9833 19.5834C28.3973 19.7995 29.836 19.7995 31.25 19.5834C32.2195 19.4365 33.1397 19.0593 33.9333 18.4834C33.9333 19.4167 33.8 20.5 33.75 21.7C32.6526 22.1032 31.5009 22.3392 30.3333 22.4H28.8C28.3 22.4 27.7833 22.4 27.2833 22.3C26.3229 22.1999 25.3775 21.9873 24.4667 21.6667V18.7334L25.2 19.0834ZM30.3333 31.5834H28.8C28.3 31.5834 27.7833 31.5834 27.2833 31.4834C26.2807 31.39 25.2945 31.1658 24.35 30.8167V28.8V27.2667C25.1597 27.7241 26.0291 28.0662 26.9333 28.2834C27.4823 28.3966 28.0398 28.4635 28.6 28.4834C29.1586 28.4933 29.7168 28.4486 30.2667 28.35C31.3753 28.1564 32.4485 27.7968 33.45 27.2834V28.1167C33.45 29.0834 33.45 30.0167 33.5333 30.85C32.5074 31.2439 31.4293 31.4854 30.3333 31.5667V31.5834Z" fill="black"/>
<path fill-rule="evenodd" clip-rule="evenodd" d="M16.3667 28.8667C16.4293 28.8736 16.4927 28.8677 16.553 28.8494C16.6133 28.8311 16.6693 28.8008 16.7176 28.7604C16.7658 28.7199 16.8054 28.67 16.8339 28.6138C16.8624 28.5576 16.8792 28.4962 16.8833 28.4333C17.031 27.6466 17.1202 26.85 17.15 26.05V25.05C17.134 24.7207 17.1006 24.3925 17.05 24.0667C16.95 23.35 16.8167 22.75 16.7167 22.4C16.7498 22.1016 16.721 21.7996 16.6321 21.5128C16.5432 21.226 16.3961 20.9607 16.2 20.7333C15.8924 20.4137 15.5241 20.1588 15.1167 19.9833C14.5928 19.7219 14.0299 19.5474 13.45 19.4667C13.3886 19.4547 13.3255 19.4552 13.2643 19.4681C13.2031 19.481 13.1451 19.5061 13.0938 19.5419C13.0425 19.5776 12.9989 19.6233 12.9656 19.6763C12.9323 19.7292 12.91 19.7883 12.9 19.85C12.8879 19.9124 12.8882 19.9765 12.901 20.0388C12.9137 20.1011 12.9386 20.1602 12.9742 20.2128C13.0098 20.2655 13.0554 20.3106 13.1084 20.3455C13.1615 20.3805 13.2209 20.4047 13.2833 20.4167C13.6958 20.4893 14.0948 20.6242 14.4667 20.8167C14.8255 20.963 15.1452 21.1913 15.4 21.4833C15.4767 21.5908 15.531 21.7125 15.5596 21.8414C15.5882 21.9702 15.5906 22.1035 15.5667 22.2333C15.5536 22.3611 15.5142 22.4847 15.4511 22.5966C15.388 22.7084 15.3025 22.806 15.2 22.8833C14.531 23.2871 13.7784 23.5322 13 23.6C11.7397 23.7789 10.4603 23.7789 9.2 23.6C8.93764 23.532 8.68124 23.4429 8.43333 23.3333C8.19993 23.2731 7.97148 23.1951 7.75 23.1L6.85 22.6833C6.70326 22.6071 6.57773 22.4956 6.48465 22.3589C6.39157 22.2222 6.33386 22.0645 6.31667 21.9C6.32809 21.7246 6.37899 21.5541 6.46557 21.4011C6.55215 21.2482 6.67217 21.1167 6.81667 21.0167C7.45987 20.5506 8.18287 20.206 8.95 20C9.71737 19.7729 10.525 19.7161 11.3167 19.8333C11.3725 19.8456 11.4302 19.8466 11.4864 19.8365C11.5427 19.8263 11.5963 19.8052 11.6444 19.7742C11.6924 19.7432 11.7338 19.703 11.7662 19.656C11.7987 19.6089 11.8215 19.5559 11.8333 19.5C11.8492 19.3902 11.8239 19.2785 11.7624 19.1862C11.7008 19.0939 11.6074 19.0276 11.5 19C10.5822 18.8076 9.63447 18.8076 8.71667 19C7.78435 19.1667 6.8913 19.5058 6.08333 20C5.7428 20.1898 5.45481 20.4613 5.24533 20.79C5.03585 21.1188 4.91145 21.4945 4.88333 21.8833C4.86061 22.1841 4.90619 22.486 5.01667 22.7667C4.88589 23.5838 4.79689 24.4071 4.75 25.2333V26.9C4.75 27.5 4.75 27.9833 4.85 28.5667C4.95 29.8 5.11667 30.9167 5.25 31.7833C5.19686 31.88 5.18108 31.9928 5.20566 32.1004C5.23024 32.2079 5.29347 32.3027 5.38333 32.3667L5.51667 32.4667C5.55225 32.5192 5.5975 32.5644 5.65 32.6C6.01743 32.9363 6.41971 33.2324 6.85 33.4833C7.08222 33.6231 7.33548 33.7244 7.6 33.7833C7.85317 33.8684 8.11666 33.9188 8.38333 33.9333C8.98714 33.9985 9.5962 33.9985 10.2 33.9333C10.2698 33.9465 10.3417 33.9441 10.4105 33.9263C10.4792 33.9085 10.5432 33.8757 10.5979 33.8304C10.6526 33.785 10.6966 33.7282 10.7268 33.6639C10.757 33.5996 10.7727 33.5294 10.7727 33.4583C10.7727 33.3873 10.757 33.3171 10.7268 33.2528C10.6966 33.1885 10.6526 33.1317 10.5979 33.0863C10.5432 33.041 10.4792 33.0082 10.4105 32.9904C10.3417 32.9726 10.2698 32.9702 10.2 32.9833C9.58333 32.8333 9.08333 32.6333 8.53333 32.4833L7.51667 32.15L6.25 31.6667V28.6667C7.07438 29.1342 7.96103 29.4821 8.88333 29.7C9.43111 29.8204 9.98928 29.8874 10.55 29.9C11.1085 29.9087 11.6666 29.864 12.2167 29.7667C13.4551 29.5469 14.6489 29.1246 15.75 28.5167C15.7628 28.5828 15.7898 28.6454 15.8292 28.7001C15.8685 28.7548 15.9192 28.8004 15.9778 28.8336C16.0364 28.8669 16.1015 28.887 16.1686 28.8928C16.2357 28.8985 16.3033 28.8896 16.3667 28.8667ZM12.25 28.2H10.7167C10.2 28.2 9.71667 28.2 9.2 28.0833C8.22197 27.9914 7.25909 27.7786 6.33333 27.45V26.7V25.1167V24.05L6.53333 24.1667C6.76566 24.2914 7.00494 24.4027 7.25 24.5C7.53123 24.6255 7.82081 24.7313 8.11667 24.8167C8.41293 24.8992 8.71335 24.9659 9.01667 25.0167C10.4363 25.2322 11.8804 25.2322 13.3 25.0167C14.1274 24.8945 14.9212 24.6053 15.6333 24.1667V25.15V26.1333C15.6333 26.45 15.7833 27.1 15.8333 27.4833C14.6879 27.9228 13.4763 28.1651 12.25 28.2Z" fill="black"/>
<path fill-rule="evenodd" clip-rule="evenodd" d="M20.8167 3.85002C21.5 3.85002 22.1333 4.11669 22.8167 4.23335H22.9667V4.33335C23.0393 5.0631 23.1618 5.78701 23.3333 6.50002C23.3418 6.62677 23.3982 6.74554 23.4911 6.83222C23.5839 6.91889 23.7063 6.96697 23.8333 6.96669C23.9615 6.95422 24.0804 6.89434 24.1668 6.79876C24.2531 6.70318 24.3006 6.57881 24.3 6.45002C24.3 5.73335 24.5 5.05002 24.5667 4.31669H24.6667C25.3958 4.25205 26.1162 4.11242 26.8167 3.90002C26.9335 3.86502 27.0327 3.78718 27.0945 3.68209C27.1563 3.577 27.1762 3.45244 27.15 3.33335C27.1306 3.21847 27.0717 3.11396 26.9835 3.03789C26.8952 2.96181 26.7832 2.91895 26.6667 2.91669C26.009 2.9005 25.3526 2.85044 24.7 2.76669C24.7 2.00002 24.6 1.25002 24.6 0.483354C24.6073 0.420964 24.601 0.35773 24.5814 0.298033C24.5619 0.238336 24.5296 0.183604 24.4868 0.137629C24.444 0.0916532 24.3917 0.0555337 24.3335 0.0317728C24.2754 0.00801185 24.2128 -0.00282237 24.15 2.07488e-05C24.0382 -0.0101488 23.9267 0.0218218 23.8373 0.0896588C23.7478 0.157496 23.687 0.256302 23.6667 0.366687C23.4294 1.05409 23.2346 1.75541 23.0833 2.46669C23.0833 2.46669 23.0833 2.61669 23.0833 2.68335C22.3208 2.73038 21.5629 2.83625 20.8167 3.00002C20.7612 2.99983 20.7063 3.01117 20.6555 3.03332C20.6047 3.05547 20.559 3.08796 20.5214 3.12871C20.4837 3.16946 20.455 3.21758 20.437 3.27003C20.419 3.32247 20.4121 3.37809 20.4167 3.43335C20.4205 3.53983 20.4633 3.64119 20.5371 3.71805C20.6109 3.79491 20.7104 3.84189 20.8167 3.85002Z" fill="black"/>
</g>
<defs>
<clipPath id="clip0_332_3544">
<rect width="40" height="40" fill="white"/>
</clipPath>
</defs>
</svg>
