<svg width="51" height="50" viewBox="0 0 51 50" fill="none" xmlns="http://www.w3.org/2000/svg">
<g clip-path="url(#clip0_115_5483)">
<path fill-rule="evenodd" clip-rule="evenodd" d="M47.2917 23.1459C46.7917 22.3543 45.7917 22.3334 44.8542 22.4584C40.9789 23.08 37.3635 24.8009 34.4375 27.4168C32.4782 28.7642 30.8937 30.5879 29.8332 32.7162C28.7726 34.8446 28.2709 37.2077 28.375 39.5834C28.3425 41.1429 28.6186 42.6935 29.1875 44.1459C27.8331 45.7972 26.6006 47.5449 25.5 49.3751C25.5 49.8543 26.1042 50.2501 26.7917 49.8126C29.2305 47.276 31.5257 44.6052 33.6667 41.8126C35.5101 39.0823 37.2002 36.2515 38.7292 33.3334C38.7908 33.1967 38.8012 33.0423 38.7585 32.8985C38.7157 32.7547 38.6227 32.631 38.4963 32.5502C38.3699 32.4693 38.2187 32.4366 38.0702 32.458C37.9217 32.4794 37.7859 32.5535 37.6875 32.6668C29.625 43.3126 30.7708 41.8334 29.875 43.0834C29.8528 42.7366 29.8528 42.3886 29.875 42.0418C29.5092 40.0704 29.623 38.04 30.2068 36.1219C30.7906 34.2038 31.8272 32.4543 33.2292 31.0209C37.3958 26.8543 43.4583 24.5834 45.1667 24.7709C45.1667 31.3334 45.1667 30.7084 45.0208 31.7501L41.8125 33.8334C41.4375 34.0418 40.5 34.2918 40.2292 35.0834C39.7708 36.4584 41.4583 36.5834 42.5625 37.6876C39.9167 39.2293 39.5833 38.7293 38.7708 39.3126C38.6309 39.3888 38.5075 39.492 38.4076 39.6161C38.3078 39.7402 38.2334 39.8829 38.1889 40.0358C38.1443 40.1888 38.1305 40.3491 38.1481 40.5074C38.1658 40.6657 38.2146 40.819 38.2917 40.9584C38.9516 41.5946 39.6472 42.1928 40.375 42.7501C34.7917 47.4376 33.2292 45.8126 32.2917 46.4376C32.1654 46.5221 32.0686 46.644 32.015 46.7862C31.9613 46.9284 31.9535 47.0839 31.9925 47.2308C32.0315 47.3777 32.1155 47.5087 32.2326 47.6055C32.3497 47.7024 32.4942 47.7602 32.6458 47.7709C36.8125 48.4376 42.2292 43.6043 42.4167 43.1251C42.75 42.2501 41.7292 41.5626 40.7708 40.6876C42.1529 40.1485 43.5024 39.5294 44.8125 38.8334C44.9829 38.7506 45.1301 38.6268 45.2409 38.4731C45.3517 38.3194 45.4227 38.1406 45.4474 37.9528C45.4722 37.7649 45.45 37.5738 45.3828 37.3967C45.3157 37.2195 45.2056 37.0618 45.0625 36.9376L43.3542 35.4168C45.7083 34.1251 46.8958 33.5001 47.3125 32.3543C47.5625 31.7293 47.9583 24.1668 47.2917 23.1459Z" fill="black"/>
<path fill-rule="evenodd" clip-rule="evenodd" d="M23.5416 39.5834C7.99998 39.8125 14.6041 39.8334 7.81248 39.0209C6.79165 38.9167 6.33331 38.1459 6.04165 37.25C5.49998 35.4792 5.64581 35.1667 5.89581 17.8125C5.59823 14.3358 5.74525 10.8354 6.33331 7.39588C6.85415 5.31254 6.33331 4.52088 9.29165 4.56254C9.29165 5.27088 9.02081 7.95838 9.08331 8.41671C9.27081 10 10.8333 9.77088 11.4375 9.93754C14.6041 10.6875 15.7916 8.31254 15.6041 5.00004C16.596 5.29895 17.654 5.29895 18.6458 5.00004C18.6458 5.22921 18.4375 7.87504 18.5 8.25004C18.6875 9.83338 20.2291 9.58338 20.8541 9.75004C23.9791 10.5 25.1666 8.20838 25.0208 4.95838C26.4375 5.37504 26.5416 5.31254 28.625 4.83338C28.625 5.04171 28.4583 7.70838 28.5 7.95838C28.5173 8.26399 28.6317 8.5561 28.8265 8.79217C29.0214 9.02824 29.2865 9.19595 29.5833 9.27088C32.9166 10.1667 34.875 9.27088 34.9791 5.66671C35.6768 5.68602 36.3726 5.74864 37.0625 5.85421C37.5625 5.85421 37.9791 6.02088 38.0208 6.43754L38.7916 20.875C38.775 20.9652 38.7784 21.058 38.8015 21.1467C38.8247 21.2354 38.8671 21.3179 38.9258 21.3884C38.9844 21.4589 39.0579 21.5156 39.1409 21.5546C39.2239 21.5935 39.3145 21.6137 39.4062 21.6137C39.4979 21.6137 39.5885 21.5935 39.6715 21.5546C39.7546 21.5156 39.828 21.4589 39.8867 21.3884C39.9453 21.3179 39.9877 21.2354 40.0109 21.1467C40.0341 21.058 40.0375 20.9652 40.0208 20.875C40.9376 15.9801 40.9376 10.9575 40.0208 6.06254C39.5208 3.97921 37.2708 3.97921 35.0625 4.16671C34.8644 2.99691 34.4848 1.86522 33.9375 0.812544C33.6408 0.545228 33.2934 0.340286 32.916 0.2099C32.5385 0.0795142 32.1387 0.0263454 31.7403 0.0535541C31.3419 0.0807629 30.953 0.187794 30.5968 0.368285C30.2405 0.548776 29.9242 0.799043 29.6666 1.10421C29.2608 1.7403 28.9781 2.44702 28.8333 3.18754C27.4454 2.85967 25.9901 2.96882 24.6666 3.50004C24.6018 2.65913 24.3754 1.83861 24 1.08338C23.6986 0.803431 23.3428 0.588459 22.9548 0.451821C22.5668 0.315182 22.1549 0.259795 21.7446 0.289103C21.3343 0.31841 20.9344 0.431786 20.5697 0.622184C20.2051 0.812582 19.8835 1.07594 19.625 1.39588C19.285 1.94142 19.0385 2.53994 18.8958 3.16671C17.7004 2.93001 16.4635 3.01631 15.3125 3.41671C15.2231 2.64023 14.9974 1.88562 14.6458 1.18754C14.3503 0.834417 13.9594 0.573912 13.5197 0.437206C13.08 0.3005 12.6103 0.293384 12.1666 0.416711C10.5 0.666711 9.87498 1.81254 9.49998 3.43754C8.38905 3.22736 7.2396 3.41157 6.24998 3.95838C5.18748 4.66671 5.12498 6.16671 4.83331 7.12504C4.02356 10.6486 3.66652 14.2611 3.77081 17.875C3.37498 27.6459 3.47915 24.5209 3.33331 31.8125C3.33331 35.7709 3.33331 40.8334 7.62498 41.1459C14.5833 41.6667 7.87498 41.9167 23.5625 41.0417C23.7559 41.039 23.9402 40.9595 24.075 40.8208C24.2098 40.6821 24.284 40.4955 24.2812 40.3021C24.2785 40.1087 24.199 39.9244 24.0603 39.7896C23.9216 39.6548 23.735 39.5806 23.5416 39.5834ZM30.5833 3.66671C30.75 0.562544 32.6666 1.33338 32.7916 1.93754C33.0342 3.47301 32.9989 5.03956 32.6875 6.56254C32.3541 7.70838 31.7708 7.43754 30.6041 7.41671C30.6601 6.16715 30.6531 4.91557 30.5833 3.66671ZM21 2.18754C21.4166 1.35421 22.625 1.91671 22.7916 1.85421C23.1157 3.50513 23.1157 5.2033 22.7916 6.85421C22.6041 7.47921 22.2291 7.91671 21.4375 7.68754H20.6875C20.6875 7.43754 20.8125 7.16671 20.8125 7.06254C20.5326 5.44236 20.5965 3.78144 21 2.18754ZM11.6458 2.29171C12.0625 1.45838 13.2708 2.02088 13.4375 1.95838C13.7511 3.60328 13.7511 5.29264 13.4375 6.93754C13.25 7.56254 12.875 8.02088 12.0833 7.77088H11.3333C11.3333 7.52088 11.4583 7.25004 11.4583 7.14588C11.1808 5.53251 11.2446 3.87886 11.6458 2.29171Z" fill="black"/>
<path fill-rule="evenodd" clip-rule="evenodd" d="M32.0208 17.2084C32.1038 17.1435 32.1731 17.0626 32.2245 16.9705C32.2758 16.8784 32.3083 16.777 32.3199 16.6722C32.3316 16.5674 32.3222 16.4614 32.2923 16.3602C32.2624 16.2591 32.2126 16.165 32.1458 16.0834C31.7499 15.4376 20.3333 14.5834 14.7916 14.8126C8.54161 15.2293 9.43745 16.2709 10.4374 16.5001C12.6041 17.1668 31.9791 17.2501 32.0208 17.2084Z" fill="black"/>
<path fill-rule="evenodd" clip-rule="evenodd" d="M25.5 23.6667C24.8542 23.5001 19.7917 23.2292 18.8333 23.2292C17.875 23.2292 10.8333 23.4376 10.5 24.2292C10.4812 24.3166 10.4826 24.4071 10.5043 24.4938C10.526 24.5805 10.5673 24.661 10.625 24.7292C11.8878 25.1871 13.2193 25.4267 14.5625 25.4376C18.2087 25.6931 21.8709 25.6025 25.5 25.1667C26.3542 25.1667 26.625 23.9376 25.5 23.6667Z" fill="black"/>
<path fill-rule="evenodd" clip-rule="evenodd" d="M11.0834 33.3334C14.2203 34.0311 17.4658 34.0878 20.6251 33.5001C20.7574 33.3673 20.8317 33.1875 20.8317 33.0001C20.8317 32.8126 20.7574 32.6328 20.6251 32.5001C18.6759 31.8657 16.6325 31.5698 14.5834 31.6251C9.81257 31.9167 8.8334 32.9584 11.0834 33.3334Z" fill="black"/>
</g>
<defs>
<clipPath id="clip0_115_5483">
<rect width="50" height="50" fill="white" transform="translate(0.5)"/>
</clipPath>
</defs>
</svg>
