<svg width="50" height="50" viewBox="0 0 50 50" fill="none" xmlns="http://www.w3.org/2000/svg">
<g clip-path="url(#clip0_115_5473)">
<path d="M19.1666 3.89586C20.6162 3.2662 22.1707 2.91292 23.75 2.85419C24.4166 2.85419 25.1041 2.85419 25.8333 2.75002C26.5625 2.64586 27.1875 2.75002 27.9166 2.75002C29.4797 2.666 31.0411 2.94406 32.4791 3.56252C32.5444 3.61016 32.6185 3.64422 32.6972 3.6627C32.7758 3.68117 32.8574 3.68369 32.937 3.67009C33.0167 3.65649 33.0928 3.62706 33.1608 3.58354C33.2289 3.54001 33.2876 3.48328 33.3333 3.41669C33.4241 3.28307 33.4596 3.11948 33.4324 2.96023C33.4053 2.80098 33.3175 2.65845 33.1875 2.56252C31.7159 1.42914 29.968 0.709855 28.125 0.479189C27.3239 0.375224 26.5154 0.340373 25.7083 0.375023C24.9391 0.412642 24.1734 0.503134 23.4166 0.645856C21.6291 0.983115 19.9326 1.69295 18.4375 2.72919C18.3579 2.77818 18.2887 2.84245 18.2341 2.91828C18.1794 2.99412 18.1403 3.08002 18.119 3.17105C18.0977 3.26207 18.0946 3.35641 18.1099 3.44863C18.1253 3.54085 18.1587 3.62912 18.2083 3.70836C18.3135 3.8566 18.4716 3.95873 18.65 3.99364C18.8284 4.02854 19.0133 3.99353 19.1666 3.89586Z" fill="black"/>
<path d="M49.5417 21.4791C49.5314 21.3858 49.5026 21.2955 49.4571 21.2134C49.4116 21.1314 49.3502 21.0592 49.2766 21.001C49.2029 20.9429 49.1184 20.8999 49.028 20.8747C48.9377 20.8495 48.8431 20.8425 48.75 20.8541C48.5677 20.8848 48.4039 20.9837 48.2917 21.1307C48.1796 21.2777 48.1274 21.4618 48.1459 21.6457C48.2709 22.6874 48.3334 23.7291 48.3542 24.7499C48.3762 25.7862 48.3345 26.8229 48.2292 27.8541C48.0386 29.7959 47.5829 31.7025 46.875 33.5207C46.1743 35.3481 45.2655 37.0887 44.1667 38.7082C41.8544 41.9703 38.6074 44.4546 34.8542 45.8332C31.1214 47.3012 27.1016 47.8927 23.1042 47.5624C20.9043 47.3697 18.7396 46.8863 16.6667 46.1249C14.5636 45.4019 12.6034 44.316 10.875 42.9166C7.90329 40.3915 5.64738 37.1298 4.33336 33.4582C2.96704 29.745 2.45436 25.7717 2.83336 21.8332C2.84293 21.7539 2.83679 21.6735 2.81527 21.5965C2.79375 21.5195 2.75729 21.4475 2.70796 21.3847C2.65863 21.3218 2.5974 21.2693 2.52776 21.2301C2.45812 21.1908 2.38145 21.1657 2.30211 21.1562C2.22277 21.1466 2.14232 21.1527 2.06535 21.1742C1.98839 21.1958 1.91641 21.2322 1.85354 21.2816C1.79067 21.3309 1.73812 21.3921 1.69892 21.4618C1.65971 21.5314 1.6346 21.6081 1.62502 21.6874C1.06511 25.8267 1.46427 30.0394 2.79169 33.9999C4.07598 38.035 6.39624 41.6627 9.52086 44.5207C11.366 46.1357 13.4818 47.4122 15.7709 48.2916C18.0602 49.1956 20.466 49.7707 22.9167 49.9999C27.2916 50.3156 31.6797 49.6021 35.7292 47.9166C39.8512 46.2987 43.3778 43.4556 45.8334 39.7707C46.9604 37.9987 47.8829 36.1047 48.5834 34.1249C49.2914 32.1446 49.7259 30.0769 49.875 27.9791V24.7082C49.875 23.5207 49.6875 22.5416 49.5417 21.4791Z" fill="black"/>
<path d="M39.8333 29.1666C39.1403 29.1023 38.4429 29.1023 37.75 29.1666C34.875 29.1666 28.6875 29.5416 23.1666 29.8541C17.6458 30.1666 12.0208 30.7916 12.0208 30.7916C11.8365 30.9275 11.6848 31.1027 11.5767 31.3045C11.4686 31.5063 11.4068 31.7296 11.3958 31.9583C11.362 33.0785 11.5387 34.195 11.9166 35.25C12.5062 37.2036 13.5079 39.0081 14.8541 40.5416C16.252 42.0095 17.9371 43.1739 19.8044 43.9624C21.6718 44.7509 23.6814 45.1467 25.7083 45.125C29.7967 44.9622 33.6823 43.3011 36.625 40.4583C38.5392 38.5763 39.901 36.2058 40.5625 33.6041C40.9094 32.4678 40.9454 31.2591 40.6666 30.1041C40.609 29.8944 40.5039 29.7007 40.3594 29.5381C40.2149 29.3756 40.0349 29.2484 39.8333 29.1666ZM37.2708 35.6458C36.6975 36.7792 35.9368 37.8076 35.0208 38.6875C32.5247 41.1996 29.1998 42.7177 25.6666 42.9583C23.9001 43.0325 22.1372 42.7415 20.4883 42.1034C18.8393 41.4654 17.3398 40.494 16.0833 39.25C15.0597 38.1787 14.2532 36.9194 13.7083 35.5416C13.2896 34.5993 13.0022 33.6039 12.8541 32.5833V31.8125C15.4377 31.5819 18.0314 31.4846 20.625 31.5208C26.5625 31.3958 34.1458 31.375 37.625 31.375H38.6666C38.5092 32.8814 38.0335 34.3372 37.2708 35.6458Z" fill="black"/>
<path d="M7.72916 17.875C8.88462 19.7533 9.89452 21.7174 10.75 23.75C10.9008 24.0695 11.1398 24.3392 11.4387 24.5274C11.7377 24.7157 12.0842 24.8146 12.4375 24.8125C12.7499 24.7227 13.037 24.5609 13.2758 24.3403C13.5146 24.1196 13.6984 23.8461 13.8125 23.5417C14.6211 21.3151 15.5745 19.1437 16.6667 17.0417C17.7917 15.5625 21.3542 14.4167 22.625 13.5208C22.9037 13.3698 23.1373 13.1475 23.302 12.8766C23.4667 12.6058 23.5566 12.2961 23.5625 11.9792C23.4942 11.6983 23.3681 11.4346 23.1924 11.2051C23.0166 10.9755 22.795 10.7851 22.5417 10.6458C20.2424 9.76918 17.9956 8.76056 15.8125 7.625C14.0625 6.25 12.7917 2.3125 11.7292 0.958333C11.5849 0.737137 11.3912 0.552409 11.1635 0.418661C10.9358 0.284913 10.6801 0.205788 10.4167 0.1875C9.89583 0.1875 9.33333 0.8125 8.97916 1.89583C8.53175 4.01272 7.95427 6.10001 7.24999 8.14583C6.41666 9.83333 2.54166 11.5 1.10416 12.5C0.810505 12.662 0.566294 12.9006 0.397532 13.1905C0.228771 13.4803 0.141781 13.8105 0.145826 14.1458C0.243978 14.4293 0.408728 14.6851 0.626237 14.8918C0.843747 15.0984 1.10766 15.2498 1.39583 15.3333C2.83333 15.9792 6.45833 16.6667 7.72916 17.875ZM6.66666 11.0625C7.53399 10.4758 8.24833 9.69 8.74999 8.77083C8.97393 8.23032 9.15504 7.67305 9.29166 7.10417C9.72916 5.35417 9.95833 3.29167 10.375 2.08333L10.4167 1.72917C10.4167 1.83333 10.6667 1.91667 10.75 2.0625C11.3958 3.10417 12.0833 4.97917 12.9583 6.5625C13.4033 7.46437 14.0107 8.27654 14.75 8.95833C15.4578 9.53784 16.2345 10.0277 17.0625 10.4167C18.3333 11 19.7708 11.5417 20.7708 12.0417L21.0208 12.1875H20.7917C19.7708 12.6875 18.3542 13.25 17.1458 13.9167C16.2766 14.3383 15.4981 14.9257 14.8542 15.6458C13.7675 17.479 12.8738 19.42 12.1875 21.4375C11.4452 19.5947 10.4871 17.8464 9.33333 16.2292C8.59363 15.6018 7.73681 15.1273 6.81249 14.8333C5.52083 14.375 4.02083 14.0208 2.91666 13.7083C3.83333 12.9792 5.41666 12.0417 6.66666 11.0625Z" fill="black"/>
<path d="M26.875 11.4583C26.8689 11.7725 26.9517 12.0819 27.1139 12.351C27.2761 12.6201 27.5111 12.8378 27.7917 12.9792C29.0208 13.8542 32.4792 14.9583 33.5625 16.3958C34.6141 18.4143 35.526 20.5025 36.2917 22.6458C36.4111 22.9425 36.5973 23.2077 36.8358 23.4209C37.0742 23.634 37.3585 23.7894 37.6667 23.875C38.0182 23.8815 38.3642 23.7867 38.6634 23.602C38.9626 23.4173 39.2024 23.1505 39.3542 22.8333C40.1749 20.8636 41.1502 18.9618 42.2708 17.1458C43.5 15.8958 47.0208 15.2917 48.3958 14.7083C49.2083 14.3542 49.5625 13.875 49.625 13.5417C49.6357 13.2076 49.5538 12.877 49.3884 12.5865C49.2229 12.2961 48.9803 12.057 48.6875 11.8958C47.3125 10.9167 43.5417 9.29167 42.75 7.72917C42.07 5.77116 41.5065 3.77461 41.0625 1.75C40.7083 0.6875 40.1667 0.104167 39.5833 0C39.3202 0.00931069 39.0632 0.0824388 38.8346 0.213089C38.6059 0.343739 38.4125 0.527997 38.2708 0.75C37.2292 2.0625 36 5.875 34.2917 7.20833C32.1808 8.30649 30.0108 9.28716 27.7917 10.1458C27.5515 10.2834 27.3447 10.4724 27.1862 10.6993C27.0277 10.9263 26.9215 11.1855 26.875 11.4583ZM29.6042 11.4583C30.5833 10.9792 31.9583 10.4583 33.1875 9.875C33.9795 9.51795 34.7275 9.07054 35.4167 8.54167C36.1408 7.88612 36.7469 7.11094 37.2083 6.25C38.0208 4.72917 38.7083 2.91667 39.2917 1.89583C39.2917 1.75 39.5208 1.66667 39.6042 1.5625C39.5893 1.67311 39.5893 1.78522 39.6042 1.89583C39.9792 3.0625 40.2292 5.08333 40.6458 6.79167C40.7758 7.33959 40.95 7.87607 41.1667 8.39583C41.631 9.28532 42.3028 10.0499 43.125 10.625C44.3125 11.5833 45.8125 12.4792 46.8125 13.1458C45.7708 13.4583 44.2708 13.7708 42.9792 14.2292C42.0771 14.5209 41.2416 14.9882 40.5208 15.6042C39.4137 17.1587 38.4908 18.8366 37.7708 20.6042C37.1798 18.6605 36.3909 16.7827 35.4167 15C34.7898 14.2986 34.0327 13.7255 33.1875 13.3125C32 12.6667 30.625 12.125 29.6458 11.6458H29.4792L29.6042 11.4583Z" fill="black"/>
</g>
<defs>
<clipPath id="clip0_115_5473">
<rect width="50" height="50" fill="white"/>
</clipPath>
</defs>
</svg>
