<svg width="23" height="22" viewBox="0 0 23 22" fill="none" xmlns="http://www.w3.org/2000/svg">
<g clip-path="url(#clip0_115_5497)">
<path d="M6.35017 5.47063C7.8111 4.3001 9.62799 3.66364 11.5 3.66663C13.4479 3.66663 15.2382 4.34129 16.6498 5.47063L17.9818 4.13871L19.2779 5.43488L17.946 6.76679C18.9156 7.9806 19.5227 9.44349 19.6976 10.9871C19.8724 12.5307 19.6079 14.0924 18.9344 15.4923C18.2609 16.8922 17.2059 18.0736 15.8907 18.9003C14.5754 19.7271 13.0535 20.1657 11.5 20.1657C9.9465 20.1657 8.42457 19.7271 7.10935 18.9003C5.79412 18.0736 4.73906 16.8922 4.06558 15.4923C3.3921 14.0924 3.12757 12.5307 3.30243 10.9871C3.4773 9.44349 4.08444 7.9806 5.054 6.76679L3.72209 5.43579L5.01825 4.13963L6.35017 5.47154V5.47063ZM12.4167 11V6.87038L7.83334 12.8333H10.5833V16.9583L15.1667 11H12.4167ZM7.83334 0.916626H15.1667V2.74996H7.83334V0.916626Z" fill="black"/>
</g>
<defs>
<clipPath id="clip0_115_5497">
<rect width="22" height="22" fill="white" transform="translate(0.5)"/>
</clipPath>
</defs>
</svg>
