<svg width="22" height="22" viewBox="0 0 22 22" fill="none" xmlns="http://www.w3.org/2000/svg">
<path d="M20.1666 5.5H13.75C12.2913 5.5 10.8923 6.07946 9.86089 7.11091C8.82944 8.14236 8.24998 9.54131 8.24998 11C8.24998 12.4587 8.82944 13.8576 9.86089 14.8891C10.8923 15.9205 12.2913 16.5 13.75 16.5H20.1666V18.3333C20.1666 18.5764 20.0701 18.8096 19.8982 18.9815C19.7263 19.1534 19.4931 19.25 19.25 19.25H2.74998C2.50686 19.25 2.27371 19.1534 2.1018 18.9815C1.92989 18.8096 1.83331 18.5764 1.83331 18.3333V3.66667C1.83331 3.42355 1.92989 3.19039 2.1018 3.01849C2.27371 2.84658 2.50686 2.75 2.74998 2.75H19.25C19.4931 2.75 19.7263 2.84658 19.8982 3.01849C20.0701 3.19039 20.1666 3.42355 20.1666 3.66667V5.5ZM13.75 7.33333H21.0833V14.6667H13.75C12.7775 14.6667 11.8449 14.2804 11.1573 13.5927C10.4696 12.9051 10.0833 11.9725 10.0833 11C10.0833 10.0275 10.4696 9.09491 11.1573 8.40728C11.8449 7.71964 12.7775 7.33333 13.75 7.33333ZM13.75 10.0833V11.9167H16.5V10.0833H13.75Z" fill="black"/>
</svg>
