<svg width="22" height="22" viewBox="0 0 22 22" fill="none" xmlns="http://www.w3.org/2000/svg">
<g clip-path="url(#clip0_332_3600)">
<path fill-rule="evenodd" clip-rule="evenodd" d="M21.2483 5.71999C21.5414 5.28946 21.7931 4.83214 22 4.35415C22.0081 4.22871 21.9903 4.10295 21.9477 3.98468C21.9051 3.86641 21.8387 3.75816 21.7525 3.66665C20.9976 2.87214 20.1585 2.16212 19.25 1.54915C18.8467 1.23515 18.3903 0.996084 17.9025 0.843321C17.8034 0.826384 17.7016 0.835192 17.6069 0.8689C17.5122 0.902609 17.4278 0.960087 17.3617 1.03582C17.0775 1.36582 16.445 1.89749 15.7667 2.54832C15.5375 2.76832 15.2992 3.00665 15.0792 3.26332C13.75 4.70249 12.3658 6.41666 11.7058 7.16832C10.3125 5.71999 7.37915 2.58499 5.92165 1.39332C5.63461 1.13659 5.29294 0.948514 4.92248 0.843321C4.83922 0.82228 4.75261 0.817927 4.66765 0.830513C4.5827 0.843099 4.50107 0.872375 4.42748 0.916654C4.34498 1.01749 0.91665 3.36415 0.183316 4.68415C0.0829994 4.83725 0.0221297 5.0128 0.00613523 5.19513C-0.00985919 5.37747 0.0195189 5.56093 0.0916496 5.72915C0.255067 6.00823 0.45895 6.26154 0.69665 6.48082C0.982799 6.77948 1.28907 7.05819 1.61332 7.31499C1.84248 7.48915 2.44748 8.02999 3.15332 8.68999C4.29915 9.72582 5.68332 11 6.36165 11.6875C5.44498 12.4758 3.30915 14.3275 2.04415 15.5925C1.66222 15.9477 1.32096 16.3443 1.02665 16.775C0.952707 16.8935 0.911582 17.0295 0.907483 17.1692C1.02588 17.5625 1.24744 17.917 1.54915 18.1958C2.39682 19.0558 3.28711 19.8726 4.21665 20.6433C4.35415 20.7625 4.59248 21.2758 5.05082 21.1475C5.2291 21.0552 5.39535 20.9413 5.54582 20.8083C5.80248 20.625 7.25998 19.4242 8.77248 18.1133C9.83582 17.1967 10.9175 16.225 11.6325 15.5192L12.0083 15.8308C13.5483 17.105 17.3708 20.3683 17.5083 20.625C17.5268 20.6619 17.5524 20.6948 17.5836 20.7217C17.6149 20.7486 17.6512 20.7691 17.6904 20.7818C17.7296 20.7946 17.771 20.7995 17.8121 20.7962C17.8533 20.7929 17.8933 20.7814 17.93 20.7625L18.2325 20.5792C18.7733 20.2125 19.9375 19.3325 20.625 18.7458C20.6516 18.7194 20.6727 18.688 20.6871 18.6534C20.7015 18.6188 20.7089 18.5816 20.7089 18.5442C20.7089 18.5067 20.7015 18.4695 20.6871 18.4349C20.6727 18.4003 20.6516 18.3689 20.625 18.3425C20.5994 18.3162 20.5687 18.2952 20.5349 18.2809C20.501 18.2666 20.4646 18.2593 20.4279 18.2593C20.3912 18.2593 20.3548 18.2666 20.3209 18.2809C20.2871 18.2952 20.2564 18.3162 20.2308 18.3425C19.5525 18.9108 18.3975 19.7633 17.8658 20.1117H17.8108C16.9583 19.25 13.8233 16.445 12.4575 15.2717L11.9166 14.7858C11.8379 14.7249 11.7412 14.6918 11.6416 14.6918C11.5421 14.6918 11.4454 14.7249 11.3666 14.7858C10.6608 15.4825 9.45082 16.5275 8.26832 17.5358C6.77415 18.7917 5.33498 19.9467 5.07832 20.1208L4.98665 20.1942L4.81248 20.0108C4.50998 19.745 3.82248 19.14 3.18082 18.5167C2.73733 18.1257 2.32934 17.6963 1.96165 17.2333C2.0022 17.1462 2.05133 17.0632 2.10832 16.9858C2.68699 16.3749 3.29903 15.7965 3.94165 15.2533C5.49998 13.75 7.48915 12.1092 7.48915 12.1092C7.54551 12.0619 7.59105 12.003 7.62268 11.9366C7.65432 11.8702 7.6713 11.7977 7.67248 11.7242C7.67731 11.651 7.66584 11.5777 7.63889 11.5095C7.61194 11.4414 7.57019 11.3801 7.51665 11.33C7.51665 11.33 5.49998 9.34082 3.92332 7.90165C3.17165 7.20499 2.53915 6.62749 2.29165 6.41666C1.99813 6.19722 1.72228 5.95509 1.46665 5.69249C0.925816 5.15165 1.01748 5.28915 1.34748 4.90415C1.55832 4.65665 1.80582 4.43665 1.93415 4.28999C2.84261 3.44343 3.81739 2.67096 4.84915 1.97999C4.97929 2.06481 5.10475 2.15661 5.22498 2.25499C6.81998 3.52915 10.1841 7.13165 11.3483 8.24999C11.3978 8.30071 11.457 8.34102 11.5223 8.36854C11.5877 8.39606 11.6578 8.41024 11.7287 8.41024C11.7996 8.41024 11.8698 8.39606 11.9351 8.36854C12.0005 8.34102 12.0596 8.30071 12.1091 8.24999C12.1733 8.18582 12.3016 8.03916 12.4758 7.82832C13.1266 7.04915 14.5016 5.35332 15.785 3.89582L17.9025 1.77832H17.985C18.9825 2.34001 19.9062 3.02359 20.735 3.81332C20.8682 3.9401 20.9937 4.07479 21.1108 4.21665C20.9422 4.56407 20.7524 4.90082 20.5425 5.22499C20.2961 5.6065 20.0203 5.96816 19.7175 6.30665L15.95 10.6608C15.8866 10.7367 15.8519 10.8324 15.8519 10.9312C15.8519 11.0301 15.8866 11.1258 15.95 11.2017C16.104 11.415 16.2693 11.62 16.445 11.8158C17.4992 13.035 19.9008 15.6567 20.8358 16.8667C21.0008 17.0775 21.065 17.3342 21.1475 17.3342C21.1585 17.4105 21.1938 17.4812 21.2483 17.5358C21.2782 17.5663 21.3138 17.5905 21.3532 17.6071C21.3925 17.6236 21.4348 17.6321 21.4775 17.6321C21.5202 17.6321 21.5624 17.6236 21.6018 17.6071C21.6411 17.5905 21.6768 17.5663 21.7066 17.5358C21.7599 17.4591 21.7884 17.3679 21.7884 17.2746C21.7884 17.1812 21.7599 17.09 21.7066 17.0133C21.4311 16.5765 21.1247 16.1599 20.79 15.7667C19.635 14.3642 17.7283 12.2283 16.9125 11.2475L16.6833 11L20.35 6.89332C20.6766 6.5238 20.9768 6.13172 21.2483 5.71999Z" fill="#EF4444"/>
<path d="M4.84375 3.29803L2.76025 5.13519L8.97116 11.5268L3.0009 17.1124L5.22359 19.2029L11.5705 13.6342L17.9363 19.0156L20.0691 17.1124L14.6221 11.3701L20.0691 4.51207L17.9363 3.03552L11.7345 9.63101L4.84375 3.29803Z" fill="#EF4444"/>
</g>
<defs>
<clipPath id="clip0_332_3600">
<rect width="22" height="22" fill="white"/>
</clipPath>
</defs>
</svg>
